<svg width="44.000000" height="44.000000" viewBox="0 0 44 44" fill="none" xmlns="http://www.w3.org/2000/svg" xmlns:xlink="http://www.w3.org/1999/xlink">
		<clipPath id="clip20162_135">
			<rect width="44.000000" height="44.000000" transform="translate(0.000000 -0.970215)" fill="white" fill-opacity="0"/>
		</clipPath>
		<clipPath id="clip20162_134">
			<rect width="44.000000" height="44.000000" transform="translate(0.000000 -0.970215)" fill="white" fill-opacity="0"/>
		</clipPath>
	</defs>
	<rect width="44.000000" height="44.000000" transform="translate(0.000000 -0.970215)" fill="#FFFFFF" fill-opacity="0"/>
	<g clip-path="url(#clip20162_134)">
		<rect width="44.000000" height="44.000000" transform="translate(0.000000 -0.970215)" fill="#FFFFFF" fill-opacity="0"/>
		<g clip-path="url(#clip20162_135)">
			<path d="M15.13 12.59L17.25 12.59C17.8 12.59 18.25 13.04 18.25 13.59L18.25 15.06C18.25 15.41 18.54 15.7 18.9 15.7C19.25 15.7 19.54 15.41 19.54 15.06L19.54 13.59C19.54 12.33 18.51 11.3 17.25 11.3L15.13 11.3C14.58 11.3 14.14 10.86 14.14 10.32C14.14 9.78 14.58 9.34 15.13 9.34L19.84 9.34C21.09 9.34 22.11 8.32 22.11 7.06C22.11 5.81 21.09 4.79 19.84 4.79L16.07 4.79C15.71 4.79 15.42 5.08 15.42 5.44C15.42 5.79 15.71 6.08 16.07 6.08L19.84 6.08C20.38 6.08 20.82 6.52 20.82 7.06C20.82 7.61 20.38 8.05 19.84 8.05L15.13 8.05C13.87 8.05 12.85 9.07 12.85 10.32C12.85 11.57 13.87 12.59 15.13 12.59Z" fill="#000000" fill-opacity="1.000000" fill-rule="nonzero"/>
			<path d="M7.38 16.92L9.49 16.92C10.04 16.92 10.48 17.36 10.48 17.9L10.48 19.36C10.48 19.71 10.77 20 11.12 20C11.48 20 11.77 19.71 11.77 19.36L11.77 17.9C11.77 16.65 10.75 15.63 9.49 15.63L7.38 15.63C6.85 15.63 6.41 15.19 6.41 14.66C6.41 14.12 6.85 13.69 7.38 13.69L9.85 13.69C10.2 13.69 10.49 13.4 10.49 13.04C10.49 12.69 10.2 12.4 9.85 12.4L7.38 12.4C6.14 12.4 5.12 13.41 5.12 14.66C5.12 15.9 6.14 16.92 7.38 16.92Z" fill="#000000" fill-opacity="1.000000" fill-rule="nonzero"/>
			<path d="M26.29 25.19C26.29 25.55 26 25.84 25.65 25.84C25.29 25.84 25 25.55 25 25.19C25 24.84 25.29 24.55 25.65 24.55C26 24.55 26.29 24.84 26.29 25.19Z" fill="#000000" fill-opacity="1.000000" fill-rule="evenodd"/>
			<path d="M29.47 26.65C29.47 27.01 29.18 27.3 28.83 27.3C28.47 27.3 28.18 27.01 28.18 26.65C28.18 26.3 28.47 26.01 28.83 26.01C29.18 26.01 29.47 26.3 29.47 26.65Z" fill="#000000" fill-opacity="1.000000" fill-rule="evenodd"/>
			<path d="M31.36 28.89C31.36 29.24 31.07 29.53 30.72 29.53C30.36 29.53 30.07 29.24 30.07 28.89C30.07 28.53 30.36 28.24 30.72 28.24C31.07 28.24 31.36 28.53 31.36 28.89Z" fill="#000000" fill-opacity="1.000000" fill-rule="evenodd"/>
			<path d="M28.7 23.65C28.7 24 28.41 24.29 28.05 24.29C27.7 24.29 27.41 24 27.41 23.65C27.41 23.29 27.7 23 28.05 23C28.41 23 28.7 23.29 28.7 23.65Z" fill="#000000" fill-opacity="1.000000" fill-rule="evenodd"/>
			<path d="M26.55 29.32C26.55 29.67 26.26 29.96 25.91 29.96C25.55 29.96 25.26 29.67 25.26 29.32C25.26 28.96 25.55 28.67 25.91 28.67C26.26 28.67 26.55 28.96 26.55 29.32Z" fill="#000000" fill-opacity="1.000000" fill-rule="evenodd"/>
			<path d="M42.91 21.84L41.08 21.84L41.98 19.97C43.13 19.74 44 18.73 44 17.51C44 16.27 43.08 15.24 41.89 15.04C40.58 12.67 38.01 10.9 34.89 10.18L34.89 10.14C34.89 9.78 34.6 9.49 34.25 9.49C33.95 9.49 33.7 9.69 33.63 9.96C33.24 9.91 32.84 9.88 32.43 9.86C32.33 9.64 32.11 9.49 31.85 9.49C31.59 9.49 31.37 9.64 31.27 9.86C30.86 9.88 30.46 9.91 30.07 9.96C29.99 9.69 29.75 9.49 29.45 9.49C29.1 9.49 28.81 9.78 28.81 10.14L28.81 10.18C25.69 10.9 23.12 12.67 21.81 15.04C20.62 15.24 19.7 16.27 19.7 17.51C19.7 17.59 19.71 17.66 19.71 17.73C16.74 18.01 14.06 19.25 12.06 21.11L8.01 21.11C7.73 21.11 7.49 21.24 7.32 21.43L5.43 21.43C5.12 20.65 4.35 20.1 3.47 20.1C2.31 20.1 1.36 21.04 1.36 22.2C1.36 22.3 1.37 22.4 1.39 22.49C0.58 22.79 0 23.56 0 24.47C0 24.88 0.11 25.26 0.32 25.6C0.11 25.93 0 26.32 0 26.72C0 27.88 0.94 28.83 2.1 28.83C2.98 28.83 3.75 28.27 4.06 27.49L5.76 27.49C5.84 27.78 6.05 28.01 6.35 28.11L8.37 28.8C8.35 29.01 8.35 29.22 8.35 29.43C8.35 29.63 8.35 29.82 8.36 30.02C8.05 30.1 7.75 30.23 7.49 30.4C7.06 30.11 6.54 29.94 5.98 29.94C4.48 29.94 3.26 31.16 3.26 32.66C3.26 32.69 3.27 32.71 3.27 32.73L2.51 32.73C2.09 32.73 1.71 32.97 1.53 33.35C1.35 33.74 1.4 34.18 1.67 34.51L3.6 36.86C3.81 37.11 4.12 37.26 4.45 37.26L31.71 37.26C32.06 37.26 32.35 36.97 32.35 36.61C32.35 36.26 32.06 35.97 31.71 35.97L4.54 35.97L2.94 34.02L42.48 34.02L40.88 35.97L34.71 35.97C34.36 35.97 34.07 36.26 34.07 36.61C34.07 36.97 34.36 37.26 34.71 37.26L40.97 37.26C41.3 37.26 41.6 37.11 41.81 36.86L43.75 34.51C44.02 34.18 44.07 33.74 43.89 33.35C43.71 32.97 43.33 32.73 42.9 32.73L42.27 32.73C42.9 31.64 43.14 30.34 42.91 29.06C42.86 28.8 42.65 28.59 42.39 28.54C40.64 28.22 38.85 28.78 37.6 30.04C37.52 30.11 37.45 30.19 37.38 30.27C37.01 30.07 36.59 29.96 36.14 29.95L36.14 28.72L36.83 28.72C37.92 28.72 38.81 27.83 38.81 26.74L38.81 25.88L42.91 25.88C43.51 25.88 44 25.39 44 24.79L44 22.92C44 22.32 43.51 21.84 42.91 21.84ZM6.29 32.73L4.56 32.73C4.55 32.71 4.55 32.69 4.55 32.66C4.55 31.87 5.19 31.23 5.98 31.23C6.21 31.23 6.42 31.29 6.61 31.38C6.4 31.76 6.28 32.2 6.28 32.66C6.28 32.69 6.28 32.71 6.29 32.73ZM38.51 30.95C39.35 30.1 40.52 29.67 41.7 29.75C41.77 30.84 41.41 31.91 40.69 32.73L39.63 32.73L40.51 31.85C40.76 31.6 40.76 31.19 40.51 30.94C40.26 30.69 39.85 30.69 39.6 30.94L38.68 31.85C38.6 31.59 38.48 31.35 38.34 31.14C38.39 31.07 38.45 31.01 38.51 30.95ZM25.5 12.97C26.47 12.31 27.6 11.82 28.81 11.52L28.81 12.18C28.81 12.53 29.1 12.82 29.45 12.82C29.81 12.82 30.1 12.53 30.1 12.18L30.1 11.26C30.46 11.21 30.83 11.17 31.2 11.15L31.2 12.18C31.2 12.53 31.49 12.82 31.85 12.82C32.21 12.82 32.49 12.53 32.49 12.18L32.49 11.15C32.87 11.17 33.24 11.21 33.6 11.26L33.6 12.18C33.6 12.53 33.89 12.82 34.25 12.82C34.6 12.82 34.89 12.53 34.89 12.18L34.89 11.52C36.1 11.82 37.23 12.31 38.2 12.97C39.15 13.6 39.93 14.37 40.49 15.22C40.27 15.32 40.07 15.45 39.89 15.6C39.44 15.23 38.87 15.01 38.28 15.01C37.68 15.01 37.12 15.23 36.67 15.6C36.23 15.23 35.66 15.01 35.06 15.01C34.47 15.01 33.9 15.23 33.46 15.6C33.01 15.23 32.44 15.01 31.85 15.01C31.26 15.01 30.69 15.23 30.24 15.6C29.8 15.23 29.23 15.01 28.64 15.01C28.04 15.01 27.47 15.23 27.03 15.6C26.58 15.23 26.02 15.01 25.42 15.01C24.83 15.01 24.26 15.23 23.81 15.6C23.63 15.45 23.43 15.32 23.21 15.22C23.77 14.37 24.55 13.6 25.5 12.97ZM22.21 16.3C22.64 16.3 23.04 16.53 23.26 16.91C23.37 17.11 23.58 17.23 23.81 17.23C24.04 17.23 24.26 17.11 24.37 16.91C24.59 16.53 24.99 16.3 25.42 16.3C25.85 16.3 26.25 16.53 26.47 16.91C26.59 17.11 26.8 17.23 27.03 17.23C27.26 17.23 27.47 17.11 27.59 16.91C27.8 16.53 28.2 16.3 28.64 16.3C29.07 16.3 29.47 16.53 29.68 16.91C29.8 17.11 30.01 17.23 30.24 17.23C30.47 17.23 30.68 17.11 30.8 16.91C31.02 16.53 31.42 16.3 31.85 16.3C32.28 16.3 32.68 16.53 32.9 16.91C33.01 17.11 33.23 17.23 33.46 17.23C33.69 17.23 33.9 17.11 34.01 16.91C34.23 16.53 34.63 16.3 35.06 16.3C35.49 16.3 35.9 16.53 36.11 16.91C36.23 17.11 36.44 17.23 36.67 17.23C36.9 17.23 37.11 17.11 37.23 16.91C37.45 16.53 37.85 16.3 38.28 16.3C38.71 16.3 39.11 16.53 39.33 16.91C39.44 17.11 39.66 17.23 39.89 17.23C40.11 17.23 40.33 17.11 40.44 16.91C40.66 16.53 41.06 16.3 41.49 16.3C42.16 16.3 42.71 16.84 42.71 17.51C42.71 18.18 42.16 18.73 41.49 18.73C41.06 18.73 40.66 18.49 40.44 18.12C40.33 17.92 40.11 17.8 39.89 17.8C39.66 17.8 39.44 17.92 39.33 18.12C39.11 18.49 38.71 18.73 38.28 18.73C37.85 18.73 37.45 18.49 37.23 18.12C37.11 17.92 36.9 17.8 36.67 17.8C36.44 17.8 36.23 17.92 36.11 18.12C35.9 18.49 35.49 18.73 35.06 18.73C34.63 18.73 34.23 18.49 34.01 18.12C33.9 17.92 33.69 17.8 33.46 17.8C33.23 17.8 33.01 17.92 32.9 18.12C32.68 18.49 32.28 18.73 31.85 18.73C31.42 18.73 31.02 18.49 30.8 18.12C30.68 17.92 30.47 17.8 30.24 17.8C30.01 17.8 29.8 17.92 29.68 18.12C29.47 18.49 29.07 18.73 28.64 18.73C28.2 18.73 27.8 18.49 27.59 18.12C27.47 17.92 27.26 17.8 27.03 17.8C26.8 17.8 26.59 17.92 26.47 18.12C26.34 18.34 26.15 18.51 25.93 18.61C24.42 18.01 22.75 17.67 21 17.67C21 17.62 20.99 17.57 20.99 17.51C20.99 16.84 21.54 16.3 22.21 16.3ZM8.39 22.4L10.86 22.4C10.6 22.72 10.37 23.05 10.15 23.39L8.39 23.39L8.39 22.4ZM5.73 26.2L3.55 26.2C3.22 26.2 2.94 26.46 2.91 26.79C2.87 27.21 2.52 27.54 2.1 27.54C1.65 27.54 1.28 27.17 1.28 26.72C1.28 26.48 1.39 26.25 1.58 26.09C1.73 25.97 1.81 25.79 1.81 25.6C1.81 25.4 1.73 25.22 1.58 25.1C1.39 24.94 1.28 24.72 1.28 24.47C1.28 24.02 1.65 23.66 2.1 23.66C2.52 23.66 2.87 23.99 2.91 24.4C2.94 24.74 3.22 24.99 3.55 24.99L5.73 24.99L5.73 26.2L5.73 26.2ZM5.95 23.71L4.06 23.71C3.82 23.11 3.31 22.64 2.7 22.46C2.67 22.38 2.65 22.29 2.65 22.2C2.65 21.75 3.02 21.38 3.47 21.38C3.89 21.38 4.24 21.71 4.28 22.13C4.31 22.46 4.59 22.72 4.92 22.72L7.1 22.72L7.1 23.39L6.64 23.39C6.36 23.39 6.12 23.51 5.95 23.71ZM10.43 32.73L7.57 32.73C7.57 32.71 7.57 32.69 7.57 32.66C7.57 31.87 8.21 31.23 9 31.23C9.79 31.23 10.43 31.87 10.43 32.66C10.43 32.69 10.43 32.71 10.43 32.73ZM30.31 32.73L28.06 32.73C28.06 32.71 28.06 32.69 28.06 32.66C28.06 31.87 28.7 31.23 29.49 31.23C29.88 31.23 30.24 31.39 30.5 31.65C30.37 31.97 30.3 32.31 30.3 32.66C30.3 32.69 30.31 32.71 30.31 32.73ZM29.49 29.94C27.99 29.94 26.77 31.16 26.77 32.66C26.77 32.69 26.77 32.71 26.77 32.73L11.72 32.73C11.72 32.71 11.72 32.69 11.72 32.66C11.72 31.39 10.84 30.32 9.66 30.02C9.64 29.83 9.64 29.63 9.64 29.43C9.64 29.36 9.64 29.3 9.64 29.23L16.23 31.47C16.68 31.62 17.13 31.69 17.58 31.69C18.43 31.69 19.26 31.43 19.98 30.91C21.09 30.12 21.72 28.89 21.72 27.54C21.72 27.05 21.63 26.58 21.47 26.13C21.35 25.79 20.98 25.62 20.64 25.74C20.31 25.86 20.14 26.23 20.26 26.56C20.37 26.88 20.43 27.2 20.43 27.54C20.43 28.47 19.99 29.32 19.23 29.86C18.47 30.41 17.53 30.55 16.65 30.25L7.02 26.98L7.02 24.68L17.57 24.68C17.89 24.68 18.21 24.73 18.51 24.84C18.85 24.96 19.22 24.78 19.33 24.44C19.45 24.11 19.28 23.74 18.94 23.62C18.5 23.47 18.04 23.39 17.57 23.39L11.72 23.39C13.78 20.71 17.16 18.96 20.98 18.96C27.23 18.96 32.32 23.66 32.32 29.43C32.32 29.63 32.31 29.84 32.3 30.04C31.91 30.15 31.55 30.34 31.26 30.6C30.78 30.19 30.16 29.94 29.49 29.94ZM34.45 32.73L31.6 32.73C31.59 32.71 31.59 32.69 31.59 32.66C31.59 31.87 32.23 31.23 33.02 31.23C33.81 31.23 34.45 31.87 34.45 32.66C34.45 32.69 34.45 32.71 34.45 32.73ZM34.85 30.24C34.75 30.3 34.65 30.36 34.56 30.42C34.27 30.22 33.94 30.08 33.59 30.01C33.6 29.81 33.61 29.62 33.61 29.43C33.61 29.19 33.6 28.95 33.58 28.72L34.85 28.72L34.85 30.24ZM37.52 32.66C37.52 32.69 37.52 32.71 37.52 32.73L35.74 32.73C35.74 32.71 35.74 32.69 35.74 32.66C35.74 32.21 35.63 31.78 35.43 31.4C35.62 31.29 35.85 31.23 36.09 31.23C36.88 31.23 37.52 31.87 37.52 32.66ZM37.52 26.74C37.52 27.12 37.21 27.43 36.83 27.43L33.42 27.43C33.33 26.9 33.19 26.38 33.02 25.88L37.52 25.88L37.52 26.74ZM42.71 24.59L32.49 24.59C32.24 24.08 31.96 23.59 31.64 23.12L34.37 23.12C34.73 23.12 35.01 22.84 35.01 22.48C35.01 22.12 34.73 21.84 34.37 21.84L30.61 21.84C30 21.16 29.3 20.55 28.54 20.01C28.57 20.02 28.6 20.02 28.64 20.02C29.23 20.02 29.8 19.8 30.24 19.43C30.69 19.8 31.26 20.02 31.85 20.02C32.44 20.02 33.01 19.8 33.46 19.43C33.9 19.8 34.47 20.02 35.06 20.02C35.66 20.02 36.23 19.8 36.67 19.43C37.12 19.8 37.68 20.02 38.28 20.02C38.87 20.02 39.44 19.8 39.89 19.43C40.1 19.61 40.34 19.75 40.61 19.85L39.65 21.84L37.38 21.84C37.02 21.84 36.73 22.12 36.73 22.48C36.73 22.84 37.02 23.12 37.38 23.12L42.71 23.12L42.71 24.59Z" fill="#000000" fill-opacity="1.000000" fill-rule="nonzero"/>
		</g>
	</g>
</svg>
