<svg width="44.000000" height="44.000000" viewBox="0 0 44 44" fill="none" xmlns="http://www.w3.org/2000/svg" xmlns:xlink="http://www.w3.org/1999/xlink">
		<clipPath id="clip20162_89">
			<rect width="44.000000" height="44.000000" transform="matrix(1 -5.55112e-17 -5.55112e-17 -1 0 43.0298)" fill="white" fill-opacity="0"/>
		</clipPath>
	</defs>
	<rect width="44.000000" height="44.000000" transform="matrix(1 -5.55112e-17 -5.55112e-17 -1 0 43.0298)" fill="#FFFFFF" fill-opacity="0"/>
	<g clip-path="url(#clip20162_89)">
		<path d="M43.74 42.78C43.51 43.01 43.16 43.09 42.85 42.97L7.15 30.25C5.91 31.01 4.34 31.18 2.9 30.59C0.5 29.59 -0.64 26.84 0.35 24.44C2.69 18.8 6.07 13.74 10.39 9.42C14.71 5.1 19.77 1.72 25.42 -0.62C26 -0.86 26.61 -0.98 27.21 -0.98C29.05 -0.98 30.81 0.12 31.56 1.93C32.06 3.14 32.01 4.45 31.53 5.58L43.95 41.89C44.06 42.2 43.98 42.55 43.74 42.78ZM12.56 30.35L16.34 31.7C16.79 31.23 17 30.57 16.92 29.92C16.84 29.34 16.54 28.82 16.08 28.46C15.61 28.11 15.04 27.95 14.46 28.03C13.88 28.11 13.36 28.4 13.01 28.87C12.68 29.3 12.52 29.82 12.56 30.35ZM29.97 2.58C29.34 1.07 27.59 0.34 26.07 0.97C15.07 5.53 6.5 14.1 1.94 25.1C1.64 25.84 1.64 26.65 1.94 27.38C2.25 28.12 2.82 28.69 3.56 29C4.29 29.3 5.1 29.3 5.84 29C6.57 28.69 7.15 28.12 7.45 27.38C9.4 22.67 12.22 18.46 15.82 14.85C19.43 11.25 23.65 8.43 28.36 6.48C29.87 5.85 30.6 4.1 29.97 2.58ZM37.6 28.65C37.53 28.65 37.45 28.65 37.37 28.66C36.79 28.74 36.28 29.04 35.92 29.5C35.56 29.96 35.41 30.54 35.49 31.12C35.64 32.32 36.75 33.16 37.94 33C38.31 32.96 38.66 32.81 38.96 32.59L37.6 28.65ZM39.53 34.27C39.11 34.49 38.65 34.65 38.17 34.71C36.03 34.99 34.06 33.48 33.78 31.34C33.64 30.31 33.92 29.28 34.56 28.45C35.17 27.66 36.04 27.13 37.03 26.98L35.33 21.98L33.36 23.49C32.98 23.78 32.44 23.71 32.16 23.33C31.87 22.95 31.94 22.41 32.31 22.12L34.74 20.26L30.3 7.27C29.92 7.6 29.49 7.87 29.01 8.07C19.91 11.84 12.81 18.93 9.04 28.04C8.91 28.36 8.75 28.65 8.56 28.92L10.86 29.74C10.94 29.05 11.21 28.39 11.64 27.82C12.28 26.99 13.2 26.46 14.23 26.33C14.41 26.3 14.58 26.29 14.75 26.29C15.61 26.29 16.43 26.57 17.12 27.1C17.95 27.74 18.48 28.66 18.62 29.69C18.74 30.62 18.52 31.54 18.04 32.3L28.72 36.11L29.13 35.14C29.26 34.8 29.58 34.6 29.92 34.6C30.03 34.6 30.14 34.63 30.25 34.67C30.69 34.85 30.89 35.35 30.71 35.79L30.34 36.69L41.75 40.76L39.53 34.27Z" fill="#000000" fill-opacity="1.000000" fill-rule="nonzero"/>
		<path d="M9.28 19.97C9.27 19.97 9.27 19.98 9.26 19.99C9 20.38 8.47 20.49 8.07 20.23C7.68 19.96 7.57 19.43 7.83 19.04C8 18.78 8.27 18.65 8.55 18.65C8.71 18.65 8.87 18.69 9.02 18.78C9.42 19.04 9.53 19.57 9.28 19.97Z" fill="#000000" fill-opacity="1.000000" fill-rule="nonzero"/>
		<path d="M7.97 22.1C7.13 23.57 6.38 25.11 5.73 26.67C5.55 27.11 5.05 27.32 4.61 27.14C4.17 26.96 3.96 26.45 4.14 26.01C4.82 24.39 5.6 22.78 6.48 21.25C6.63 20.98 6.93 20.82 7.22 20.82C7.37 20.82 7.51 20.86 7.65 20.93C8.06 21.17 8.2 21.69 7.97 22.1Z" fill="#000000" fill-opacity="1.000000" fill-rule="nonzero"/>
		<path d="M26.89 32.03C26.72 32.05 26.54 32.06 26.37 32.06C24.42 32.06 22.76 30.6 22.5 28.66C22.22 26.52 23.73 24.56 25.87 24.27C26.04 24.25 26.21 24.24 26.38 24.24C28.33 24.24 30 25.7 30.25 27.64C30.53 29.78 29.02 31.74 26.89 32.03ZM28.55 27.86C28.41 26.78 27.47 25.96 26.38 25.96C26.29 25.96 26.19 25.97 26.09 25.98C24.89 26.14 24.05 27.24 24.21 28.44C24.35 29.52 25.28 30.34 26.37 30.34C26.47 30.34 26.57 30.33 26.66 30.32C27.86 30.16 28.71 29.06 28.55 27.86Z" fill="#000000" fill-opacity="1.000000" fill-rule="nonzero"/>
		<path d="M26.66 21.34C26.49 21.36 26.32 21.37 26.15 21.37C24.2 21.37 22.53 19.91 22.28 17.97C22.14 16.94 22.42 15.91 23.05 15.08C23.69 14.25 24.61 13.72 25.64 13.58C25.81 13.56 25.99 13.55 26.16 13.55C28.11 13.55 29.77 15.01 30.03 16.95C30.31 19.09 28.8 21.05 26.66 21.34ZM28.33 17.17C28.18 16.09 27.25 15.27 26.16 15.27C26.06 15.27 25.96 15.28 25.87 15.29C25.29 15.37 24.77 15.66 24.42 16.13C24.06 16.59 23.91 17.17 23.98 17.75C24.13 18.83 25.06 19.65 26.15 19.65C26.25 19.65 26.34 19.65 26.44 19.63C27.64 19.47 28.48 18.37 28.33 17.17Z" fill="#000000" fill-opacity="1.000000" fill-rule="nonzero"/>
		<path d="M21 24.9L18.35 25.24C17.88 25.31 17.45 24.98 17.39 24.5C17.33 24.03 17.66 23.6 18.13 23.54L20.77 23.19C20.81 23.19 20.85 23.19 20.88 23.19C21.31 23.19 21.68 23.5 21.74 23.93C21.8 24.4 21.47 24.83 21 24.9Z" fill="#000000" fill-opacity="1.000000" fill-rule="nonzero"/>
		<path d="M19.66 18.55L19.42 20.33C19.36 20.8 18.93 21.13 18.46 21.07C17.99 21 17.66 20.57 17.72 20.1L17.95 18.33C18.01 17.9 18.38 17.58 18.8 17.58C18.84 17.58 18.88 17.59 18.92 17.59C19.39 17.65 19.72 18.08 19.66 18.55Z" fill="#000000" fill-opacity="1.000000" fill-rule="nonzero"/>
	</g>
</svg>
