<svg width="200.000000" height="39.000000" viewBox="0 0 200 39" fill="none" xmlns="http://www.w3.org/2000/svg" xmlns:xlink="http://www.w3.org/1999/xlink">
	<desc>
			Created with Pixso.
	</desc>
	<defs/>
	<path id="SimpleFood" d="M184.58 30.75Q185.89 31.33 187.6 31.33Q189.51 31.33 190.78 30.66Q192.06 30 192.88 28.98L192.88 28.98L192.88 30.21Q192.88 30.4 192.95 30.57Q193 30.68 193.09 30.77Q193.14 30.82 193.2 30.86Q193.39 31 193.68 31L196.28 31Q196.46 31 196.62 30.92Q196.74 30.87 196.83 30.77Q196.95 30.65 197.01 30.51Q197.07 30.37 197.07 30.21L197.07 8.36Q197.07 8.18 197 8.04Q196.94 7.91 196.83 7.8Q196.73 7.69 196.6 7.63Q196.45 7.57 196.28 7.57L193.47 7.57Q193.22 7.57 193.04 7.68Q192.96 7.73 192.89 7.8Q192.82 7.88 192.77 7.98Q192.69 8.15 192.69 8.36L192.69 15.68Q191.86 14.73 190.61 14.12Q189.38 13.5 187.6 13.5Q185.89 13.5 184.58 14.1Q183.7 14.5 183.02 15.11Q182.69 15.42 182.4 15.77L182.4 15.77Q181.53 16.84 181.08 18.26Q180.64 19.68 180.57 21.33Q180.54 21.92 180.54 22.4Q180.54 22.87 180.57 23.47Q180.64 25.19 181.1 26.62Q181.56 28.05 182.41 29.12Q182.66 29.42 182.94 29.68Q183.65 30.34 184.58 30.75ZM119.27 30.93Q119.41 31 119.59 31L122.49 31Q122.74 31 122.93 30.89Q123.01 30.84 123.09 30.77Q123.2 30.65 123.26 30.51Q123.32 30.37 123.32 30.21L123.32 22.02L133.25 22.02Q133.51 22.02 133.7 21.91Q133.78 21.86 133.84 21.79Q133.96 21.68 134.02 21.54Q134.08 21.4 134.08 21.23L134.08 18.92Q134.08 18.68 133.97 18.5Q133.92 18.4 133.84 18.32Q133.77 18.25 133.68 18.2Q133.5 18.09 133.25 18.09L123.32 18.09L123.32 11.82L133.91 11.82Q134.21 11.82 134.42 11.68Q134.46 11.65 134.5 11.61Q134.57 11.54 134.62 11.46Q134.74 11.28 134.74 11.03L134.74 8.72Q134.74 8.47 134.63 8.29Q134.58 8.2 134.5 8.13Q134.44 8.06 134.36 8.01Q134.17 7.9 133.91 7.9L119.59 7.9Q119.42 7.9 119.28 7.95Q119.14 8.01 119.03 8.13Q118.95 8.2 118.9 8.29Q118.79 8.47 118.79 8.72L118.79 30.21Q118.79 30.37 118.85 30.51Q118.91 30.65 119.03 30.77Q119.13 30.88 119.27 30.93ZM142.47 30.41Q144.27 31.33 146.91 31.33Q149.55 31.33 151.35 30.41Q152.53 29.8 153.33 28.87Q153.76 28.38 154.09 27.8Q155.03 26.11 155.16 23.86Q155.2 23.28 155.2 22.42Q155.2 21.56 155.16 20.96Q155.03 18.68 154.05 17.02Q153.7 16.41 153.24 15.91Q152.43 15.02 151.28 14.43Q149.49 13.5 146.91 13.5Q144.34 13.5 142.53 14.43Q141.39 15.02 140.58 15.91Q140.12 16.41 139.76 17.02Q138.8 18.68 138.66 20.96Q138.63 21.56 138.63 22.42Q138.63 23.28 138.66 23.86Q138.8 26.11 139.73 27.8Q140.07 28.4 140.52 28.91Q141.32 29.81 142.47 30.41ZM163.42 30.41Q165.23 31.33 167.86 31.33Q170.51 31.33 172.3 30.41Q173.48 29.8 174.29 28.87Q174.72 28.38 175.04 27.8Q175.98 26.11 176.11 23.86Q176.15 23.28 176.15 22.42Q176.15 21.56 176.11 20.96Q175.98 18.68 175.01 17.02Q174.66 16.41 174.19 15.91Q173.38 15.02 172.24 14.43Q170.44 13.5 167.86 13.5Q165.29 13.5 163.49 14.43Q162.34 15.02 161.53 15.91Q161.07 16.41 160.72 17.02Q159.75 18.68 159.61 20.96Q159.58 21.56 159.58 22.42Q159.58 23.28 159.61 23.86Q159.75 26.11 160.68 27.8Q161.02 28.4 161.48 28.91Q162.28 29.81 163.42 30.41ZM149.11 27.42Q148.24 28.05 146.91 28.05Q145.6 28.05 144.73 27.43Q144.44 27.23 144.2 26.95Q143.25 25.85 143.14 23.7Q143.11 23.2 143.11 22.41Q143.11 21.63 143.14 21.13Q143.25 18.98 144.2 17.88Q144.44 17.6 144.73 17.4Q145.6 16.78 146.91 16.78Q148.24 16.78 149.11 17.41Q149.38 17.61 149.62 17.88Q150.57 18.98 150.67 21.13Q150.7 21.63 150.7 22.41Q150.7 23.2 150.67 23.7Q150.57 25.85 149.62 26.95Q149.38 27.22 149.11 27.42ZM170.06 27.42Q169.19 28.05 167.86 28.05Q166.55 28.05 165.69 27.43Q165.4 27.23 165.16 26.95Q164.21 25.85 164.1 23.7Q164.07 23.2 164.07 22.41Q164.07 21.63 164.1 21.13Q164.21 18.98 165.16 17.88Q165.4 17.6 165.69 17.4Q166.55 16.78 167.86 16.78Q169.19 16.78 170.06 17.41Q170.34 17.61 170.57 17.88Q171.53 18.98 171.63 21.13Q171.66 21.63 171.66 22.41Q171.66 23.2 171.63 23.7Q171.53 25.85 170.57 26.95Q170.34 27.22 170.06 27.42ZM191.03 27.17Q190.2 27.8 188.82 27.8Q187.43 27.8 186.63 27.18Q186.33 26.96 186.09 26.68Q185.69 26.21 185.46 25.58Q185.1 24.59 185.02 23.41Q185.01 22.91 185.01 22.41Q185.01 21.92 185.02 21.42Q185.1 20.24 185.46 19.25Q185.69 18.62 186.09 18.15Q186.33 17.87 186.63 17.65Q187.43 17.03 188.82 17.03Q190.14 17.03 190.96 17.63Q191.43 17.96 191.77 18.4Q192.03 18.74 192.22 19.14Q192.46 19.64 192.58 20.17Q192.67 20.59 192.69 21.03Q192.72 21.63 192.72 22.3Q192.72 22.98 192.69 23.57Q192.68 23.84 192.64 24.11Q192.54 24.85 192.25 25.56Q192.04 26.09 191.7 26.51Q191.41 26.88 191.03 27.17Z" fill="#363853" fill-opacity="1.000000" fill-rule="evenodd"/>
	<path id="SimpleFood" d="M25.13 10.94Q25.27 11 25.44 11L28.44 11Q28.69 11 28.87 10.89Q28.96 10.84 29.03 10.76Q29.16 10.64 29.21 10.49Q29.26 10.36 29.26 10.21L29.26 7.83Q29.26 7.67 29.2 7.53Q29.15 7.39 29.03 7.27Q28.96 7.19 28.87 7.14Q28.69 7.03 28.44 7.03L25.44 7.03Q25.27 7.03 25.13 7.09Q24.99 7.15 24.87 7.27Q24.77 7.38 24.71 7.51Q24.65 7.66 24.65 7.83L24.65 10.21Q24.65 10.37 24.7 10.5Q24.76 10.64 24.87 10.76Q24.99 10.88 25.13 10.94ZM5.46 30.42Q7.52 31.33 10.59 31.33Q13.39 31.33 15.5 30.5Q17.61 29.67 18.78 28.14Q19.05 27.8 19.25 27.42Q19.96 26.11 19.96 24.43Q19.96 22.48 19.13 21.21Q18.31 19.94 16.53 19.12Q14.75 18.29 11.94 17.66Q9.96 17.14 8.75 16.68Q7.55 16.21 7 15.6Q6.86 15.43 6.75 15.25Q6.46 14.74 6.46 14.07Q6.46 13.25 6.84 12.69Q7.1 12.29 7.55 12.02Q8.64 11.36 10.42 11.36Q12.14 11.36 13.22 12.09Q14.16 12.71 14.44 13.54Q14.49 13.69 14.51 13.83Q14.68 14.2 14.94 14.33Q15.21 14.46 15.47 14.46L18.54 14.46Q18.79 14.46 18.95 14.34Q19 14.31 19.05 14.25Q19.17 14.11 19.21 13.95Q19.23 13.86 19.23 13.77Q19.2 12.75 18.62 11.68Q18.05 10.6 16.95 9.66Q15.87 8.72 14.22 8.15Q12.57 7.57 10.42 7.57Q7.75 7.57 5.82 8.43Q3.89 9.28 2.85 10.76Q2.85 10.76 2.85 10.76Q2.49 11.27 2.26 11.83Q1.81 12.9 1.81 14.16Q1.81 16.15 2.65 17.44Q3.49 18.72 5.16 19.56Q6.83 20.4 9.3 21Q11.44 21.52 12.75 22Q14.05 22.48 14.68 23.06Q14.89 23.26 15.04 23.49Q15.31 23.96 15.31 24.59Q15.31 25.19 15.08 25.68Q14.79 26.3 14.13 26.74Q12.97 27.53 10.59 27.53Q9.1 27.53 8.12 27.14Q7.16 26.74 6.59 26.13Q6.04 25.52 5.84 24.89Q5.67 24.62 5.46 24.45Q5.24 24.26 4.81 24.26L1.87 24.26Q1.72 24.26 1.59 24.32Q1.48 24.37 1.38 24.46Q1.29 24.56 1.24 24.67Q1.18 24.8 1.18 24.95Q1.19 25.21 1.23 25.47Q1.42 26.81 2.32 28.05Q3.39 29.51 5.46 30.42ZM88.28 30.93Q88.43 31 88.6 31L91.34 31Q91.53 31 91.68 30.92Q91.8 30.87 91.9 30.77Q92.01 30.65 92.07 30.51Q92.13 30.37 92.13 30.21L92.13 8.36Q92.13 8.18 92.07 8.04Q92.01 7.91 91.9 7.8Q91.79 7.69 91.66 7.63Q91.52 7.57 91.34 7.57L88.6 7.57Q88.44 7.57 88.3 7.62Q88.16 7.68 88.04 7.8Q87.93 7.91 87.87 8.04Q87.8 8.18 87.8 8.36L87.8 30.21Q87.8 30.37 87.86 30.51Q87.92 30.65 88.04 30.77Q88.15 30.88 88.28 30.93ZM35.38 30.93Q35.53 31 35.7 31L38.48 31Q38.66 31 38.81 30.92Q38.93 30.87 39.03 30.77Q39.15 30.65 39.21 30.51Q39.26 30.37 39.26 30.21L39.26 21Q39.26 19.51 39.72 18.66Q40.19 17.81 40.9 17.43Q40.91 17.42 40.92 17.42Q41.52 17.1 42.15 17.04Q42.28 17.03 42.4 17.03Q42.89 17.03 43.34 17.16Q43.65 17.25 43.95 17.4Q43.97 17.41 43.98 17.42Q44.69 17.78 45.14 18.64Q45.6 19.51 45.6 21L45.6 30.21Q45.6 30.37 45.66 30.51Q45.71 30.65 45.83 30.77Q45.94 30.88 46.07 30.93Q46.22 31 46.4 31L49.1 31Q49.29 31 49.44 30.92Q49.56 30.87 49.66 30.77Q49.77 30.65 49.83 30.51Q49.89 30.37 49.89 30.21L49.89 21Q49.89 19.51 50.35 18.64Q50.82 17.77 51.54 17.4Q52.27 17.03 52.99 17.03Q53.81 17.03 54.48 17.34Q54.55 17.37 54.61 17.4Q54.67 17.43 54.73 17.47Q55.37 17.84 55.76 18.64Q56.19 19.51 56.19 21L56.19 30.21Q56.19 30.37 56.25 30.51Q56.31 30.65 56.43 30.77Q56.54 30.88 56.67 30.93Q56.81 31 56.99 31L59.69 31Q59.86 31 60.01 30.93Q60.14 30.88 60.25 30.77Q60.37 30.65 60.43 30.51Q60.49 30.37 60.49 30.21L60.49 20.73Q60.49 18.29 59.67 16.69Q59.02 15.4 57.98 14.63Q57.73 14.45 57.46 14.3Q57.09 14.09 56.7 13.93Q55.61 13.5 54.35 13.5Q53.11 13.5 52.02 13.91Q51.58 14.08 51.16 14.32Q50.06 14.94 49.36 15.86Q49.14 16.14 48.97 16.44Q48.37 15.24 47.42 14.53Q45.98 13.47 43.72 13.5Q42.1 13.54 40.92 14.18Q39.76 14.83 39.06 15.75L39.06 14.62Q39.06 14.45 39 14.3Q38.94 14.17 38.83 14.07Q38.72 13.96 38.59 13.9Q38.45 13.83 38.27 13.83L35.7 13.83Q35.54 13.83 35.4 13.89Q35.26 13.95 35.14 14.07Q35.03 14.17 34.97 14.3Q34.91 14.45 34.91 14.62L34.91 30.21Q34.91 30.37 34.96 30.51Q35.02 30.65 35.14 30.77Q35.25 30.88 35.38 30.93ZM66.62 37.2Q66.76 37.26 66.92 37.26L69.72 37.26Q69.98 37.26 70.16 37.14Q70.24 37.1 70.3 37.03Q70.39 36.94 70.44 36.83Q70.51 36.67 70.51 36.47L70.51 28.98Q70.67 29.19 70.85 29.38Q71.56 30.16 72.56 30.68Q73.82 31.33 75.6 31.33Q77.35 31.33 78.64 30.74Q79.59 30.29 80.32 29.61Q80.57 29.37 80.79 29.1Q81.67 28.05 82.13 26.65Q82.59 25.25 82.62 23.6Q82.66 23.01 82.66 22.41Q82.66 21.82 82.62 21.26Q82.56 19.55 82.1 18.13Q81.64 16.7 80.78 15.66Q80.51 15.34 80.21 15.07Q79.53 14.45 78.64 14.07Q77.35 13.5 75.6 13.5Q73.68 13.5 72.39 14.2Q71.11 14.89 70.32 15.95L70.32 14.62Q70.32 14.43 70.24 14.27Q70.19 14.16 70.1 14.07Q70.04 14 69.96 13.95Q69.78 13.83 69.52 13.83L66.92 13.83Q66.76 13.83 66.62 13.89Q66.47 13.95 66.36 14.07Q66.25 14.17 66.19 14.3Q66.12 14.45 66.12 14.62L66.12 36.47Q66.12 36.65 66.19 36.79Q66.25 36.92 66.36 37.03Q66.47 37.15 66.62 37.2ZM100.33 29.89Q102.31 31.33 105.33 31.33Q107.18 31.33 108.61 30.85Q110.05 30.37 111 29.64Q111.96 28.92 112.47 28.16Q112.99 27.4 113.02 26.87Q113.04 26.71 112.98 26.58Q112.93 26.47 112.83 26.38Q112.78 26.32 112.71 26.28Q112.53 26.18 112.29 26.18L109.46 26.18Q109.1 26.18 108.91 26.26Q108.73 26.34 108.43 26.74Q108.27 26.97 107.87 27.33Q107.48 27.69 106.85 27.97Q106.22 28.26 105.3 28.26Q104.39 28.26 103.69 27.87Q103.52 27.78 103.37 27.67Q103.13 27.49 102.93 27.29Q102.44 26.79 102.14 26.1Q101.73 25.12 101.7 23.97L101.7 23.7L112.66 23.7Q112.89 23.7 113.08 23.6Q113.17 23.55 113.25 23.47Q113.37 23.35 113.43 23.21Q113.49 23.07 113.49 22.91L113.49 22.21Q113.49 19.64 112.56 17.69Q112.03 16.56 111.21 15.72Q110.6 15.09 109.82 14.62Q108.01 13.5 105.33 13.5Q102.92 13.5 101.14 14.48Q100.33 14.92 99.68 15.53Q98.9 16.27 98.35 17.25Q97.35 19.05 97.21 21.56Q97.18 21.85 97.18 22.37Q97.18 22.87 97.21 23.2Q97.37 26.85 99.26 28.94Q99.39 29.08 99.52 29.21Q99.9 29.59 100.33 29.89ZM25.25 30.93Q25.4 31 25.57 31L28.31 31Q28.58 31 28.77 30.87Q28.83 30.83 28.88 30.77Q28.98 30.67 29.03 30.55Q29.1 30.39 29.1 30.21L29.1 14.62Q29.1 14.43 29.03 14.27Q28.97 14.16 28.88 14.07Q28.82 14 28.75 13.95Q28.57 13.83 28.31 13.83L25.57 13.83Q25.41 13.83 25.27 13.89Q25.13 13.95 25.01 14.07Q24.9 14.17 24.84 14.3Q24.78 14.45 24.78 14.62L24.78 30.21Q24.78 30.37 24.83 30.51Q24.89 30.65 25.01 30.77Q25.12 30.88 25.25 30.93ZM108.99 20.93L101.7 20.93L101.7 20.83Q101.7 19.55 102.11 18.57Q102.41 17.86 102.93 17.39Q103.13 17.2 103.35 17.06Q103.39 17.03 103.44 17Q104.23 16.51 105.33 16.51Q106.4 16.51 107.19 16.98Q107.25 17.02 107.31 17.06Q107.54 17.21 107.74 17.4Q108.26 17.87 108.56 18.57Q108.99 19.55 108.99 20.83L108.99 20.93ZM76.59 27.18Q75.8 27.8 74.37 27.8Q73.06 27.8 72.23 27.2Q71.77 26.87 71.44 26.44Q71.17 26.1 70.97 25.7Q70.72 25.17 70.61 24.61Q70.53 24.21 70.51 23.8Q70.48 23.17 70.48 22.51Q70.48 21.85 70.51 21.26Q70.53 20.97 70.58 20.68Q70.69 19.96 70.96 19.26Q71.15 18.77 71.46 18.37Q71.77 17.97 72.18 17.66Q73.02 17.03 74.37 17.03Q75.8 17.03 76.59 17.65Q76.84 17.84 77.05 18.08Q77.5 18.58 77.74 19.25Q78.1 20.24 78.17 21.42Q78.19 21.92 78.19 22.41Q78.19 22.91 78.17 23.41Q78.1 24.59 77.74 25.58Q77.5 26.25 77.05 26.75Q76.84 26.99 76.59 27.18Z" fill="#FF6838" fill-opacity="1.000000" fill-rule="evenodd"/>
</svg>
