<svg width="196.000000" height="30.000000" viewBox="0 0 196 30" fill="none" xmlns="http://www.w3.org/2000/svg" xmlns:xlink="http://www.w3.org/1999/xlink">
	<desc>
			Created with Pixso.
	</desc>
	<defs/>
	<path id="SimpleFood" d="M182.58 22.75Q183.89 23.33 185.6 23.33Q187.51 23.33 188.78 22.66Q190.06 22 190.88 20.98L190.88 20.98L190.88 22.21Q190.88 22.4 190.95 22.57Q191 22.68 191.09 22.77Q191.14 22.82 191.2 22.86Q191.39 23 191.68 23L194.28 23Q194.46 23 194.62 22.92Q194.74 22.87 194.83 22.77Q194.95 22.65 195.01 22.51Q195.07 22.37 195.07 22.21L195.07 0.36Q195.07 0.18 195 0.04Q194.94 -0.09 194.83 -0.2Q194.73 -0.31 194.6 -0.37Q194.45 -0.43 194.28 -0.43L191.47 -0.43Q191.22 -0.43 191.04 -0.32Q190.96 -0.27 190.89 -0.2Q190.82 -0.12 190.77 -0.02Q190.69 0.15 190.69 0.36L190.69 7.68Q189.86 6.73 188.61 6.12Q187.38 5.5 185.6 5.5Q183.89 5.5 182.58 6.1Q181.7 6.5 181.02 7.11Q180.69 7.42 180.4 7.77L180.4 7.77Q179.53 8.84 179.08 10.26Q178.64 11.68 178.57 13.33Q178.54 13.92 178.54 14.4Q178.54 14.87 178.57 15.47Q178.64 17.19 179.1 18.62Q179.56 20.05 180.41 21.12Q180.66 21.42 180.94 21.68Q181.65 22.34 182.58 22.75ZM117.27 22.93Q117.41 23 117.59 23L120.49 23Q120.74 23 120.93 22.89Q121.01 22.84 121.09 22.77Q121.2 22.65 121.26 22.51Q121.32 22.37 121.32 22.21L121.32 14.02L131.25 14.02Q131.51 14.02 131.7 13.91Q131.78 13.86 131.84 13.79Q131.96 13.68 132.02 13.54Q132.08 13.4 132.08 13.23L132.08 10.92Q132.08 10.68 131.97 10.5Q131.92 10.4 131.84 10.32Q131.77 10.25 131.68 10.2Q131.5 10.09 131.25 10.09L121.32 10.09L121.32 3.82L131.91 3.82Q132.21 3.82 132.42 3.68Q132.46 3.65 132.5 3.61Q132.57 3.54 132.62 3.46Q132.74 3.28 132.74 3.03L132.74 0.72Q132.74 0.47 132.63 0.29Q132.58 0.2 132.5 0.13Q132.44 0.06 132.36 0.01Q132.17 -0.1 131.91 -0.1L117.59 -0.1Q117.42 -0.1 117.28 -0.05Q117.14 0.01 117.03 0.13Q116.95 0.2 116.9 0.29Q116.79 0.47 116.79 0.72L116.79 22.21Q116.79 22.37 116.85 22.51Q116.91 22.65 117.03 22.77Q117.13 22.88 117.27 22.93ZM140.47 22.41Q142.27 23.33 144.91 23.33Q147.55 23.33 149.35 22.41Q150.53 21.8 151.33 20.87Q151.76 20.38 152.09 19.8Q153.03 18.11 153.16 15.86Q153.2 15.28 153.2 14.42Q153.2 13.56 153.16 12.96Q153.03 10.68 152.05 9.02Q151.7 8.41 151.24 7.91Q150.43 7.02 149.28 6.43Q147.49 5.5 144.91 5.5Q142.34 5.5 140.53 6.43Q139.39 7.02 138.58 7.91Q138.12 8.41 137.76 9.02Q136.8 10.68 136.66 12.96Q136.63 13.56 136.63 14.42Q136.63 15.28 136.66 15.86Q136.8 18.11 137.73 19.8Q138.07 20.4 138.52 20.91Q139.32 21.81 140.47 22.41ZM161.42 22.41Q163.23 23.33 165.86 23.33Q168.51 23.33 170.3 22.41Q171.48 21.8 172.29 20.87Q172.72 20.38 173.04 19.8Q173.98 18.11 174.11 15.86Q174.15 15.28 174.15 14.42Q174.15 13.56 174.11 12.96Q173.98 10.68 173.01 9.02Q172.66 8.41 172.19 7.91Q171.38 7.02 170.24 6.43Q168.44 5.5 165.86 5.5Q163.29 5.5 161.49 6.43Q160.34 7.02 159.53 7.91Q159.07 8.41 158.72 9.02Q157.75 10.68 157.61 12.96Q157.58 13.56 157.58 14.42Q157.58 15.28 157.61 15.86Q157.75 18.11 158.68 19.8Q159.02 20.4 159.48 20.91Q160.28 21.81 161.42 22.41ZM147.11 19.42Q146.24 20.05 144.91 20.05Q143.6 20.05 142.73 19.43Q142.44 19.23 142.2 18.95Q141.25 17.85 141.14 15.7Q141.11 15.2 141.11 14.41Q141.11 13.63 141.14 13.13Q141.25 10.98 142.2 9.88Q142.44 9.6 142.73 9.4Q143.6 8.78 144.91 8.78Q146.24 8.78 147.11 9.41Q147.38 9.61 147.62 9.88Q148.57 10.98 148.67 13.13Q148.7 13.63 148.7 14.41Q148.7 15.2 148.67 15.7Q148.57 17.85 147.62 18.95Q147.38 19.22 147.11 19.42ZM168.06 19.42Q167.19 20.05 165.86 20.05Q164.55 20.05 163.69 19.43Q163.4 19.23 163.16 18.95Q162.21 17.85 162.1 15.7Q162.07 15.2 162.07 14.41Q162.07 13.63 162.1 13.13Q162.21 10.98 163.16 9.88Q163.4 9.6 163.69 9.4Q164.55 8.78 165.86 8.78Q167.19 8.78 168.06 9.41Q168.34 9.61 168.57 9.88Q169.53 10.98 169.63 13.13Q169.66 13.63 169.66 14.41Q169.66 15.2 169.63 15.7Q169.53 17.85 168.57 18.95Q168.34 19.22 168.06 19.42ZM189.03 19.17Q188.2 19.8 186.82 19.8Q185.43 19.8 184.63 19.18Q184.33 18.96 184.09 18.68Q183.69 18.21 183.46 17.58Q183.1 16.59 183.02 15.41Q183.01 14.91 183.01 14.41Q183.01 13.92 183.02 13.42Q183.1 12.24 183.46 11.25Q183.69 10.62 184.09 10.15Q184.33 9.87 184.63 9.65Q185.43 9.03 186.82 9.03Q188.14 9.03 188.96 9.63Q189.43 9.96 189.77 10.4Q190.03 10.74 190.22 11.14Q190.46 11.64 190.58 12.17Q190.67 12.59 190.69 13.03Q190.72 13.63 190.72 14.3Q190.72 14.98 190.69 15.57Q190.68 15.84 190.64 16.11Q190.54 16.85 190.25 17.56Q190.04 18.09 189.7 18.51Q189.41 18.88 189.03 19.17Z" fill="#363853" fill-opacity="1.000000" fill-rule="evenodd"/>
	<path id="SimpleFood" d="M23.13 2.94Q23.27 3 23.44 3L26.44 3Q26.69 3 26.87 2.89Q26.96 2.84 27.03 2.76Q27.16 2.64 27.21 2.49Q27.26 2.36 27.26 2.21L27.26 -0.17Q27.26 -0.33 27.2 -0.47Q27.15 -0.61 27.03 -0.73Q26.96 -0.81 26.87 -0.86Q26.69 -0.97 26.44 -0.97L23.44 -0.97Q23.27 -0.97 23.13 -0.91Q22.99 -0.85 22.87 -0.73Q22.77 -0.62 22.71 -0.49Q22.65 -0.34 22.65 -0.17L22.65 2.21Q22.65 2.37 22.7 2.5Q22.76 2.64 22.87 2.76Q22.99 2.88 23.13 2.94ZM3.46 22.42Q5.52 23.33 8.59 23.33Q11.39 23.33 13.5 22.5Q15.61 21.67 16.78 20.14Q17.05 19.8 17.25 19.42Q17.96 18.11 17.96 16.43Q17.96 14.48 17.13 13.21Q16.31 11.94 14.53 11.12Q12.75 10.29 9.94 9.66Q7.96 9.14 6.75 8.68Q5.55 8.21 5 7.6Q4.86 7.43 4.75 7.25Q4.46 6.74 4.46 6.07Q4.46 5.25 4.84 4.69Q5.1 4.29 5.55 4.02Q6.64 3.36 8.42 3.36Q10.14 3.36 11.22 4.09Q12.16 4.71 12.44 5.54Q12.49 5.69 12.51 5.83Q12.68 6.2 12.94 6.33Q13.21 6.46 13.47 6.46L16.54 6.46Q16.79 6.46 16.95 6.34Q17 6.31 17.05 6.25Q17.17 6.11 17.21 5.95Q17.23 5.86 17.23 5.77Q17.2 4.75 16.62 3.68Q16.05 2.6 14.95 1.66Q13.87 0.72 12.22 0.15Q10.57 -0.43 8.42 -0.43Q5.75 -0.43 3.82 0.43Q1.89 1.28 0.85 2.76Q0.85 2.76 0.85 2.76Q0.49 3.27 0.26 3.83Q-0.19 4.9 -0.19 6.16Q-0.19 8.15 0.65 9.44Q1.49 10.72 3.16 11.56Q4.83 12.4 7.3 13Q9.44 13.52 10.75 14Q12.05 14.48 12.68 15.06Q12.89 15.26 13.04 15.49Q13.31 15.96 13.31 16.59Q13.31 17.19 13.08 17.68Q12.79 18.3 12.13 18.74Q10.97 19.53 8.59 19.53Q7.1 19.53 6.12 19.14Q5.16 18.74 4.59 18.13Q4.04 17.52 3.84 16.89Q3.67 16.62 3.46 16.45Q3.24 16.26 2.81 16.26L-0.13 16.26Q-0.28 16.26 -0.41 16.32Q-0.52 16.37 -0.62 16.46Q-0.71 16.56 -0.76 16.67Q-0.82 16.8 -0.82 16.95Q-0.81 17.21 -0.77 17.46Q-0.58 18.81 0.32 20.05Q1.39 21.51 3.46 22.42ZM86.28 22.93Q86.43 23 86.6 23L89.34 23Q89.53 23 89.68 22.92Q89.8 22.87 89.9 22.77Q90.01 22.65 90.07 22.51Q90.13 22.37 90.13 22.21L90.13 0.36Q90.13 0.18 90.07 0.04Q90.01 -0.09 89.9 -0.2Q89.79 -0.31 89.66 -0.37Q89.52 -0.43 89.34 -0.43L86.6 -0.43Q86.44 -0.43 86.3 -0.38Q86.16 -0.32 86.04 -0.2Q85.93 -0.09 85.87 0.04Q85.8 0.18 85.8 0.36L85.8 22.21Q85.8 22.37 85.86 22.51Q85.92 22.65 86.04 22.77Q86.15 22.88 86.28 22.93ZM33.38 22.93Q33.53 23 33.7 23L36.48 23Q36.66 23 36.81 22.92Q36.93 22.87 37.03 22.77Q37.15 22.65 37.21 22.51Q37.26 22.37 37.26 22.21L37.26 13Q37.26 11.51 37.72 10.66Q38.19 9.81 38.9 9.43Q38.91 9.42 38.92 9.42Q39.52 9.1 40.15 9.04Q40.28 9.03 40.4 9.03Q40.89 9.03 41.34 9.16Q41.65 9.25 41.95 9.4Q41.97 9.41 41.98 9.42Q42.69 9.78 43.14 10.64Q43.6 11.51 43.6 13L43.6 22.21Q43.6 22.37 43.66 22.51Q43.71 22.65 43.83 22.77Q43.94 22.88 44.07 22.93Q44.22 23 44.4 23L47.1 23Q47.29 23 47.44 22.92Q47.56 22.87 47.66 22.77Q47.77 22.65 47.83 22.51Q47.89 22.37 47.89 22.21L47.89 13Q47.89 11.51 48.35 10.64Q48.82 9.77 49.54 9.4Q50.27 9.03 50.99 9.03Q51.81 9.03 52.48 9.34Q52.55 9.37 52.61 9.4Q52.67 9.43 52.73 9.47Q53.37 9.84 53.76 10.64Q54.19 11.51 54.19 13L54.19 22.21Q54.19 22.37 54.25 22.51Q54.31 22.65 54.43 22.77Q54.54 22.88 54.67 22.93Q54.81 23 54.99 23L57.69 23Q57.86 23 58.01 22.93Q58.14 22.88 58.25 22.77Q58.37 22.65 58.43 22.51Q58.49 22.37 58.49 22.21L58.49 12.73Q58.49 10.29 57.67 8.69Q57.02 7.4 55.98 6.63Q55.73 6.45 55.46 6.3Q55.09 6.09 54.7 5.93Q53.61 5.5 52.35 5.5Q51.11 5.5 50.02 5.91Q49.58 6.08 49.16 6.32Q48.06 6.94 47.36 7.86Q47.14 8.14 46.97 8.44Q46.37 7.24 45.42 6.53Q43.98 5.47 41.72 5.5Q40.1 5.54 38.92 6.18Q37.76 6.83 37.06 7.75L37.06 6.62Q37.06 6.45 37 6.3Q36.94 6.17 36.83 6.07Q36.72 5.96 36.59 5.9Q36.45 5.83 36.27 5.83L33.7 5.83Q33.54 5.83 33.4 5.89Q33.26 5.95 33.14 6.07Q33.03 6.17 32.97 6.3Q32.91 6.45 32.91 6.62L32.91 22.21Q32.91 22.37 32.96 22.51Q33.02 22.65 33.14 22.77Q33.25 22.88 33.38 22.93ZM64.62 29.2Q64.76 29.26 64.92 29.26L67.72 29.26Q67.98 29.26 68.16 29.14Q68.24 29.1 68.3 29.03Q68.39 28.94 68.44 28.83Q68.51 28.67 68.51 28.47L68.51 20.98Q68.67 21.19 68.85 21.38Q69.56 22.16 70.56 22.68Q71.82 23.33 73.6 23.33Q75.35 23.33 76.64 22.74Q77.59 22.29 78.32 21.61Q78.57 21.37 78.79 21.1Q79.67 20.05 80.13 18.65Q80.59 17.25 80.62 15.6Q80.66 15.01 80.66 14.41Q80.66 13.82 80.62 13.26Q80.56 11.55 80.1 10.13Q79.64 8.7 78.78 7.66Q78.51 7.34 78.21 7.07Q77.53 6.45 76.64 6.07Q75.35 5.5 73.6 5.5Q71.68 5.5 70.39 6.2Q69.11 6.89 68.32 7.95L68.32 6.62Q68.32 6.43 68.24 6.27Q68.19 6.16 68.1 6.07Q68.04 6 67.96 5.95Q67.78 5.83 67.52 5.83L64.92 5.83Q64.76 5.83 64.62 5.89Q64.47 5.95 64.36 6.07Q64.25 6.17 64.19 6.3Q64.12 6.45 64.12 6.62L64.12 28.47Q64.12 28.65 64.19 28.79Q64.25 28.92 64.36 29.03Q64.47 29.15 64.62 29.2ZM98.33 21.89Q100.31 23.33 103.33 23.33Q105.18 23.33 106.61 22.85Q108.05 22.37 109 21.64Q109.96 20.92 110.47 20.16Q110.99 19.4 111.02 18.87Q111.04 18.71 110.98 18.58Q110.93 18.47 110.83 18.38Q110.78 18.32 110.71 18.28Q110.53 18.18 110.29 18.18L107.46 18.18Q107.1 18.18 106.91 18.26Q106.73 18.34 106.43 18.74Q106.27 18.97 105.87 19.33Q105.48 19.69 104.85 19.97Q104.22 20.26 103.3 20.26Q102.39 20.26 101.69 19.87Q101.52 19.78 101.37 19.67Q101.13 19.49 100.93 19.29Q100.44 18.79 100.14 18.1Q99.73 17.12 99.7 15.97L99.7 15.7L110.66 15.7Q110.89 15.7 111.08 15.6Q111.17 15.55 111.25 15.47Q111.37 15.35 111.43 15.21Q111.49 15.07 111.49 14.91L111.49 14.21Q111.49 11.64 110.56 9.69Q110.03 8.56 109.21 7.72Q108.6 7.09 107.82 6.62Q106.01 5.5 103.33 5.5Q100.92 5.5 99.13 6.48Q98.33 6.92 97.68 7.53Q96.9 8.27 96.35 9.25Q95.35 11.05 95.21 13.56Q95.18 13.85 95.18 14.37Q95.18 14.87 95.21 15.2Q95.37 18.85 97.26 20.94Q97.39 21.08 97.52 21.21Q97.9 21.59 98.33 21.89ZM23.25 22.93Q23.4 23 23.57 23L26.31 23Q26.58 23 26.77 22.87Q26.83 22.83 26.88 22.77Q26.98 22.67 27.03 22.55Q27.1 22.39 27.1 22.21L27.1 6.62Q27.1 6.43 27.03 6.27Q26.97 6.16 26.88 6.07Q26.82 6 26.75 5.95Q26.57 5.83 26.31 5.83L23.57 5.83Q23.41 5.83 23.27 5.89Q23.13 5.95 23.01 6.07Q22.9 6.17 22.84 6.3Q22.78 6.45 22.78 6.62L22.78 22.21Q22.78 22.37 22.83 22.51Q22.89 22.65 23.01 22.77Q23.12 22.88 23.25 22.93ZM106.99 12.93L99.7 12.93L99.7 12.83Q99.7 11.55 100.11 10.57Q100.41 9.86 100.93 9.39Q101.13 9.2 101.35 9.06Q101.39 9.03 101.44 9Q102.23 8.51 103.33 8.51Q104.4 8.51 105.19 8.98Q105.25 9.02 105.31 9.06Q105.54 9.21 105.74 9.4Q106.26 9.87 106.56 10.57Q106.99 11.55 106.99 12.83L106.99 12.93ZM74.59 19.18Q73.8 19.8 72.37 19.8Q71.06 19.8 70.23 19.2Q69.77 18.87 69.44 18.44Q69.17 18.1 68.97 17.7Q68.72 17.17 68.61 16.61Q68.53 16.21 68.51 15.8Q68.48 15.17 68.48 14.51Q68.48 13.85 68.51 13.26Q68.53 12.97 68.58 12.68Q68.69 11.96 68.96 11.26Q69.15 10.77 69.46 10.37Q69.77 9.97 70.18 9.66Q71.02 9.03 72.37 9.03Q73.8 9.03 74.59 9.65Q74.84 9.84 75.05 10.08Q75.5 10.58 75.74 11.25Q76.1 12.24 76.17 13.42Q76.19 13.92 76.19 14.41Q76.19 14.91 76.17 15.41Q76.1 16.59 75.74 17.58Q75.5 18.25 75.05 18.75Q74.84 18.99 74.59 19.18Z" fill="#FF6838" fill-opacity="1.000000" fill-rule="evenodd"/>
</svg>
