<svg width="63" height="72" fill="none" xmlns="http://www.w3.org/2000/svg"><g clip-path="url(#clip0_1_159)"><path d="M29.616 71.464c-1.02-.571-3.934-2.803-6.248-4.787a65.782 65.782 0 01-10.224-11.003C6.658 46.881 2.647 36.651.894 24.43.057 18.598-.268 10.453.264 8.635a5.495 5.495 0 012.072-2.897c1.047-.73 4.392-2.044 7.392-2.904C16.086 1.01 23.108.137 31.441.133 42.063.127 50.757 1.54 58.092 4.463c2.619 1.043 3.587 1.79 4.343 3.353l.497 1.027-.011 4.49c-.033 12.481-2.859 24.614-8.012 34.4-1.314 2.494-4.419 7.318-5.955 9.252-2.843 3.578-6.13 7.01-9.391 9.809-2.202 1.889-5.461 4.352-6.364 4.81-1.11.563-2.418.511-3.583-.14zm2.204-.321a1.44 1.44 0 00-.62 0c-.17.045-.03.082.31.082.341 0 .48-.037.31-.082zm-7.036-4.435c0-.037-.14-.179-.31-.314-.281-.224-.287-.218-.067.067.231.3.377.395.377.247zm-1.063-.889c0-.032-.219-.255-.486-.494l-.487-.435.429.494c.401.462.544.576.544.435zm-2.478-2.366c-.627-.643-1.18-1.168-1.229-1.168-.048 0 .425.526 1.052 1.168.627.642 1.18 1.167 1.229 1.167.049 0-.425-.525-1.052-1.167zm-2.655-2.695c-.627-.642-1.18-1.168-1.229-1.168-.049 0 .425.526 1.052 1.168.627.642 1.18 1.168 1.229 1.168.048 0-.425-.526-1.052-1.168zm-1.594-1.765c0-.032-.218-.255-.486-.494l-.487-.436.43.495c.4.461.543.576.543.435zm-1.062-1.26c0-.035-.179-.217-.398-.405l-.398-.342.337.404c.317.38.46.486.46.342zm-.708-.9c0-.033-.179-.215-.398-.404l-.398-.342.337.404c.317.38.46.487.46.343zm-.708-.903c0-.037-.14-.18-.31-.314-.28-.224-.287-.218-.066.067.23.3.376.395.376.247zm-.53-.719c0-.037-.14-.178-.31-.314-.281-.224-.288-.217-.068.068.232.3.377.394.377.246zm-.532-.718c0-.038-.14-.18-.31-.315-.28-.223-.287-.217-.066.068.23.3.376.395.376.247zm-2.478-3.705c-.104-.197-.23-.36-.278-.36-.049 0-.004.163.1.36.105.198.23.36.279.36.049 0 .003-.162-.101-.36zm-.531-.898c-.105-.198-.23-.36-.278-.36-.05 0-.004.162.1.36.105.197.23.36.279.36.048 0 .003-.162-.101-.36zm-.531-.898c-.104-.198-.23-.36-.278-.36-.049 0-.004.162.1.36.105.197.23.36.279.36.048 0 .003-.163-.101-.36zm-1.631-3.136c-.507-1.034-.95-1.85-.984-1.816-.078.08 1.701 3.694 1.818 3.694.048 0-.328-.845-.834-1.879zm-1.534-3.273c-.209-.364-.26-.247-.089.204.061.16.148.254.194.208.045-.046-.002-.231-.105-.412zm17.006-31.079c-.128-.051-.28-.045-.34.015-.058.06.046.102.233.094.206-.009.248-.051.107-.109zM1.485 8.115c.06-.16.03-.232-.07-.169-.097.06-.175.186-.175.279 0 .258.126.201.244-.11zm60.297.12c0-.089-.165-.352-.367-.585l-.367-.424.317.584c.328.605.417.696.417.424zM19.86 5.575c-.128-.051-.28-.045-.34.014-.058.06.047.103.233.095.206-.009.248-.051.107-.109zm7.668-.236c.176-.198.28-.36.231-.36-.049 0-.232.162-.409.36-.176.197-.28.359-.231.359.048 0 .232-.162.409-.36zm-4.481-.123c-.128-.052-.28-.045-.34.014-.058.06.046.103.233.095.206-.009.248-.051.107-.109zm21.242-3.413c-.127-.052-.28-.046-.339.014s.046.102.232.095c.207-.01.249-.052.107-.109zm-1.416-.18c-.128-.052-.28-.045-.339.015s.046.102.233.094c.206-.009.247-.051.106-.109zm-1.405-.176a.674.674 0 00-.443 0c-.121.05-.021.09.222.09s.343-.04.221-.09zm-17.536-.183c-.128-.052-.28-.045-.34.014-.058.06.046.102.233.094.206-.008.248-.05.107-.108zm15.497-.002c-.172-.045-.411-.042-.53.007-.12.05.02.086.312.083.292-.004.39-.044.218-.09zm-12.126-.185a4.644 4.644 0 00-1.062.002c-.266.04-.006.073.578.073.585-.001.802-.035.484-.075zm9.382 0a4.645 4.645 0 00-1.062.002c-.266.04-.005.073.579.073.584-.001.802-.035.483-.075z" fill="#F7DE9F"/><path d="M29.847 71.534c-3.17-1.688-10.574-8.372-14.426-13.021C5.621 46.68.731 32.386.066 13.624c-.164-4.648.14-5.853 1.88-7.44C4.17 4.155 12.922 1.633 20.712.776 35.179-.815 49.068.679 58.988 4.895c2.773 1.178 3.848 2.747 3.994 5.824.096 2.018-.218 8.052-.588 11.295-2.276 19.97-10.51 35.088-25.561 46.927-3.154 2.481-3.905 2.921-5.113 2.995-.814.049-1.172-.028-1.873-.402zm4.087-1.341c5.725-3.942 11.625-9.776 15.894-15.72 5.65-7.864 9.377-17.187 11.236-28.116 1.09-6.408 1.553-15.646.895-17.874-.388-1.311-1.582-2.25-4.18-3.287-7.566-3.022-17.92-4.58-28.48-4.284-9.604.269-17.36 1.649-24.013 4.274-1.902.75-2.385 1.024-3.212 1.82-.953.92-.978.968-1.195 2.384-.256 1.669-.018 8.109.454 12.297C3.628 42.025 12.018 57.193 27.54 69.063c2.433 1.861 3.054 2.204 3.994 2.204.735 0 1.036-.135 2.4-1.074zm-4.197.147c-.825-.508-3.15-2.298-4.953-3.81-9.636-8.083-16.276-17.922-20.09-29.766-1.468-4.555-2.572-9.912-3.185-15.447-.297-2.68-.647-10.363-.51-11.217.215-1.356.222-1.37.618-1.155.562.305.813-.056.44-.634-.23-.356-.254-.543-.106-.823.97-1.838 9.839-4.649 17.788-5.637 3.84-.478 6.855-.642 11.79-.643 9.533 0 16.724 1.009 23.615 3.316 3.114 1.042 4.99 1.876 5.493 2.44.313.35.314.389.018.898-.388.666-.258.89.514.89.642 0 .63-.02.866 1.411.145.882-.212 8.707-.527 11.524-1.45 12.983-5.515 24.045-12.193 33.176-3.934 5.38-9.978 11.32-15.307 15.044l-1.268.886-.285-.412c-.242-.35-.393-.397-1.007-.314-.397.054-.81.22-.918.37-.172.24-.267.228-.793-.097zm-3.815-22.349c.31-.316.372-.796.1-.796a.177.177 0 00-.176.177c0 .096-.2.226-.443.288-.443.113-.546.269-.324.493.198.202.55.135.843-.162zm-4.68-2.333c0-.044-.079-.08-.176-.08-.097 0-.177.086-.177.19 0 .106.08.141.177.08.097-.06.177-.146.177-.19zm12.372-1.523c-.297-.49-.57-.891-.603-.891-.035 0 .151.431.413.96.262.528.533.93.603.891.07-.038-.116-.47-.413-.96zm2.941-3.047c.063-.103-.061-.16-.292-.135-.318.035-.427-.068-.521-.494-.11-.503-.12-.508-.14-.08-.03.692.654 1.202.953.71zm-4-2.761c.797-.153 1.08-.414 1.08-1 0-.525-.515-1.41-.526-.902-.003.152-.357.627-.787 1.055-.43.428-.823.938-.873 1.132-.082.316-.06.326.206.092.164-.144.57-.314.9-.377zm5.678-.289c-1.173-.154-1.58-.357-2.19-1.092-.758-.915-.55-1.968.483-2.423l.56-.248-.63-.007c-1.856-.02-1.886 2.581-.04 3.57.47.252.989.355 1.733.344l1.062-.016-.978-.128zm4.947-1.711c-.008-.197-.054-.258-.103-.134-.05.123-.242.224-.429.224-.186 0-.34.06-.34.135 0 .074.2.134.444.134.329 0 .438-.092.428-.359zm-18.846-1.041c.296-.46.724-.89.952-.954.484-.138 1.68.211 2.373.692.696.484 1.598.6 1.89.243.13-.158.444-.29.7-.293.447-.005.452-.016.121-.27-.213-.163-.75-.264-1.416-.266-1.302-.003-1.87-.269-2.232-1.044l-.274-.588-.335.376c-.476.534-1.039.403-1.154-.268l-.093-.54-.547.81c-.776 1.145-1.128 1.89-1.128 2.386 0 .95.415.846 1.143-.284zm10.673-2.092c.18-.043-.021-1.233-.306-1.799-.267-.53-.488-.724-.93-.812-1.74-.35-2.171-.883-2.01-2.496.122-1.228.11-1.257-.838-1.974-.372-.28-.763-.705-.87-.942-.252-.563-.507-.543-1.725.136-1.427.796-1.56 1.072-.91 1.909.288.371.573 1.008.64 1.432.067.426.218.763.342.763.327 0 .632.809.632 1.673 0 .64.122.9.778 1.661l.778.902 2.187-.22a221.62 221.62 0 002.232-.233zm3.84-1.366c-.24-.647-.677-2.122-.972-3.279-.312-1.221-.874-2.798-1.343-3.764-.765-1.576-.987-1.857-1.198-1.511-.117.192.812 2.514 1.48 3.701.281.5.721 1.758.978 2.796.27 1.086.66 2.172.923 2.56.25.37.481.673.512.673.031 0-.14-.53-.38-1.176zm-4.194-9.301c-.918-.763-.452-1.323.669-.805.358.165.446.313.384.642-.052.276-.02.366.091.254.318-.323.055-.84-.59-1.16-1.16-.575-1.755.103-.846.964.303.287.601.52.664.516.063-.004-.105-.189-.372-.411zm7.4-1.104c.14-.343.256-.807.255-1.033 0-.55-.592-1.504-1.096-1.77l-.408-.216.376.429c.825.939.978 1.755.505 2.683-.168.328-.198.53-.08.53.105 0 .306-.28.447-.623zm-12.988-4.232c-.784-.486-.73-1.158.144-1.754.496-.34.804-.412 1.549-.366.634.04.93-.01.93-.155 0-.119.378-.336.84-.485l.841-.27-1.062.093c-1.626.145-2.78.535-3.533 1.194-.576.507-.664.674-.564 1.08.065.263.337.6.603.746.726.4.926.334.252-.083zM5.817 12.75c-.06-3.53-.057-3.55.337-3.726.589-.264.48-.463-.135-.245l-.531.188v3.665c0 2.538.06 3.665.194 3.665.136 0 .176-1.059.135-3.548zm29.205 3.39c.183-.119.162-.172-.094-.24a.612.612 0 00-.553.154c-.182.198-.164.242.094.24.174-.002.423-.071.553-.155zm21.94-7.191c.271.104.405.11.305.014-.097-.094-.356-.226-.575-.293l-.398-.122.04 3.74.04 3.74.052-3.632.052-3.632.483.185zM8.94 14.278c.116-.116.024-.13-.266-.045-.692.206-1.593.6-1.593.697 0 .132 1.654-.449 1.859-.652zm1.698-3.44c.754-3.31.786-3.4 1.307-3.631l.535-.236-.465-.007c-.256-.004-.545.094-.642.217-.176.223-1.824 7.123-1.802 7.547.023.47.322-.62 1.067-3.89zM53.66 14.02c-.209-.365-.259-.248-.088.204.06.16.147.254.193.208.045-.047-.002-.232-.105-.412zm-2.413-6.84c.238.046.391.015.34-.07-.052-.084-.288-.153-.526-.153h-.432l.04 3.637.04 3.638.053-3.568.051-3.568.434.084zm-38.245 5.984c-.067-.36-.162-.615-.21-.566-.048.05-.034.385.033.746.066.36.16.615.209.565.048-.05.034-.385-.033-.745zm2.277-3.18c.034-3.457.036-3.477.432-3.534.22-.032.398-.142.398-.245 0-.108-.17-.142-.398-.08-.219.06-.458.109-.531.11-.073.002-.133 1.673-.133 3.715s.045 3.668.1 3.612c.054-.056.114-1.666.133-3.578zm33.54-3.438c.444-.069.437-.077-.093-.102l-.575-.027.04 3.638.04 3.638.052-3.537.052-3.536.483-.074zm-31.63 4.998c-.25-.732-.481-1.303-.515-1.268-.034.034.122.712.346 1.506.224.793.456 1.364.514 1.268.06-.097-.097-.774-.346-1.506zm28.613-.77c-.036-.47-.066-.085-.066.853 0 .939.03 1.323.066.854a13.14 13.14 0 000-1.707zm-26.506.194c0-1.054-.03-1.882-.065-1.84-.152.174-.243 3.756-.096 3.756.089 0 .16-.862.16-1.916zm2.478-1.945V5.542l.794-.121c.437-.067 1.074-.088 1.416-.047.342.04.555.005.473-.078-.082-.084-.78-.128-1.549-.099l-1.4.053-.047 3.74c-.032 2.51.011 3.703.133 3.627.112-.07.18-1.42.18-3.594zm21.38-3.342l.482-.018-.442-.133c-.244-.074-.503-.101-.576-.062-.073.04-.114 1.705-.092 3.7l.04 3.626.052-3.547.052-3.548.483-.018zm11.33 2.417c.471.099.47.095-.049-.144l-.53-.245-.09 2.183c-.048 1.202-.048 2.305 0 2.454.049.148.111-.77.139-2.04l.05-2.308.48.1zm-27.111 3.524c-.547-.66-.727-1.465-.709-3.178.016-1.469.43-2.785 1.006-3.195.208-.147.7-.271 1.091-.274.589-.004.657-.039.39-.196-.443-.262-1.174-.045-1.76.521-1.248 1.205-1.374 5.133-.206 6.412.583.639.733.567.188-.09zm6.25-6.615c.768.035 1.303.005 1.19-.068-.113-.073-.782-.134-1.488-.135L32.04 4.8l.04 3.727.041 3.728.052-3.657.052-3.656 1.396.064zm1.162 6.081c-.166-.506-.341-.88-.39-.831-.049.05.047.504.213 1.01.166.508.342.882.39.833.049-.05-.047-.505-.213-1.012zm-10.52.257c.42-.385.456-1.48.066-1.974-.266-.337-.269-.335-.088.044.463.974.018 2.03-.859 2.035-.253.002-.579.089-.725.194-.198.143-.072.169.5.102.422-.048.92-.23 1.107-.401zm13.326-.122c-.398-.77-.534-3.286-.237-4.364.304-1.1 1.072-1.753 1.962-1.666.364.035.624.002.578-.074-.047-.076-.404-.138-.796-.138-.874 0-1.618.671-1.905 1.72-.32 1.167-.238 3.466.154 4.342.188.42.388.764.444.764.056 0-.034-.263-.2-.584zm-25.23.248c.192-.124.185-.307-.041-1.03l-.275-.88.1.82c.09.73.056.84-.313 1.02-.376.183-.381.203-.06.211.195.005.46-.058.588-.141zm27.817-.191c.101-.191.182-.454.181-.584-.001-.13-.105-.034-.23.213-.185.362-.353.445-.878.428-.358-.01-.608.05-.556.135.19.312 1.293.169 1.483-.192zm-10.57-.551c.221-.45.309-1.062.309-2.156 0-1.92-.344-2.757-1.166-2.838-.324-.033-.635.054-.765.214-.192.234-.15.241.34.054.505-.193.592-.174.889.198.641.803.693 3.697.083 4.642-.232.359-.41.444-.803.385-.279-.041-.464-.004-.41.082.052.087.346.133.654.102.436-.042.627-.192.868-.683zM19.234 5.877c.082-.079.309-.182.503-.23.238-.057.174-.093-.198-.107l-.553-.02-.555 1.93c-.305 1.063-.55 2.053-.544 2.201.006.148.278-.608.604-1.68.326-1.073.66-2.015.743-2.094zm21.182 3.008l.918-.065-1.018-.034c-1.005-.033-1.017-.027-.993.461.02.41.037.427.1.099.063-.336.214-.405.993-.461zm-15.184.06c-.064-.106-.201-.192-.305-.192-.117 0-.104.103.036.274.243.297.46.23.27-.082zM45.85 7.476V6.02l.487.114c.361.085.419.068.221-.067a1.222 1.222 0 00-.575-.185c-.27-.003-.31.184-.31 1.435v1.44l-.93-.071c-.722-.055-.791-.042-.309.062 1.458.314 1.416.352 1.416-1.272zm-21.764.586c.504-.414.543-1.352.074-1.788-.302-.28-.311-.28-.106-.003.288.39.189 1.417-.155 1.595-.146.076-.544.217-.885.315l-.62.176.645.018c.385.011.806-.115 1.047-.313zm10.789-.207c.423-.43.462-1.302.076-1.694-.403-.408-.495-.346-.175.117.616.892.229 1.561-1.023 1.769l-.737.122.753.022c.537.017.853-.08 1.106-.336zm5.24-1.21c-.058-.059-.1.047-.092.237.008.209.05.251.106.108.052-.13.045-.284-.013-.344z" fill="#F9CE5C"/><path d="M30.004 71.573c-2.129-1.03-7.701-5.706-11.418-9.58C8.446 51.424 2.786 38.922.71 22.496c-.276-2.183-.707-8.75-.708-10.804-.003-3.33 1.043-5.361 3.326-6.46 2.445-1.178 7.35-2.71 11.1-3.468C20.98.438 30.151-.15 37.087.313c7.77.517 13.62 1.605 19.255 3.581 4.026 1.412 5.232 2.227 6.128 4.14.459.98.462 1.019.43 4.94-.135 16.114-4.335 30.327-12.302 41.633-3.744 5.313-9.051 10.738-14.768 15.095-3.055 2.328-4.152 2.68-5.825 1.87v.001zm3.851-1.262c4.173-2.826 10.742-8.987 14.016-13.146 3.511-4.46 7.246-10.896 9.12-15.718 2.88-7.413 4.495-15 5.143-24.161.216-3.06.226-7.304.018-8.21-.104-.456-.09-.687.045-.733.26-.088-.338-1.027-.654-1.027-.127 0-.423-.21-.66-.467C59.219 5.037 50.65 2.493 42.84 1.491c-5.674-.728-15.22-.82-20.888-.2-8.715.954-18.01 3.585-19.899 5.634-.282.307-.572.52-.644.476-.915-.574-.904 7.966.02 15.364C3.46 39.01 9.277 51.582 19.643 62.117c3.655 3.714 8.1 7.447 10.49 8.81 1.285.732 1.878.633 3.722-.616zm-3.342-.903c-.403-.238-1.552-1.062-2.553-1.832-1.002-.77-1.926-1.399-2.054-1.399-.128 0-.493-.235-.81-.522l-.578-.522.664.484c.893.65.844.468-.075-.282-.407-.331-.68-.506-.61-.39.296.485-.22.163-.872-.545-.385-.417-.5-.6-.257-.405.243.194-.874-1.02-2.484-2.7-2.837-2.959-5.55-6.215-7.332-8.8-1.015-1.473-1.283-1.788-.992-1.168l.21.45-.363-.45c-.2-.247-.325-.554-.279-.683.046-.128.008-.186-.084-.129-.177.111-.763-.874-.611-1.029.049-.049-.304-.822-.783-1.717-1.27-2.373-2.25-4.473-3.388-7.265-.554-1.358-1.054-2.421-1.113-2.362-.058.059-.064-.083-.014-.315.06-.275.037-.344-.066-.198-.224.317-.821-1.43-.672-1.966.092-.333.076-.361-.085-.144-.155.21-.175.13-.09-.359.088-.497.068-.572-.094-.36-.173.23-.188.22-.1-.058.058-.18-.089-1.11-.326-2.066C3.55 28.044 2.349 19.8 2.29 16.12c-.01-.567-.053-.704-.148-.459-.125.324-.143.317-.25-.09-.064-.242-.118-.864-.119-1.382-.004-1.43-.35-1.246-.592.314-.039.247-.08-.763-.092-2.245-.011-1.482.038-2.776.109-2.875.072-.098.368-.18.659-.18.637 0 .766-.387.386-1.16-.248-.504-.237-.556.209-1.015.452-.466 2.12-1.334 3.036-1.58.428-.115.426-.11-.044.162-.268.155-.487.36-.487.456 0 .223-.005.223.885-.096.897-.32 1.125-.337.962-.07-.079.13-.006.162.211.093 3.81-1.217 7.072-2.03 10.51-2.618 1.63-.279 2.765-.547 2.568-.607-.195-.058.044-.066.53-.017.677.069.823.043.62-.11-.202-.152-.033-.179.708-.112.536.049 2.687.02 4.78-.066 7.058-.286 10.003-.349 9.783-.208-.12.078.963.24 2.407.36 3.21.268 8.1.977 10.747 1.558 1.082.237 2.159.388 2.393.335.35-.079.378-.058.161.111-.218.17-.198.188.118.098.458-.13 1.333.064 1.208.267-.048.08.085.099.295.043.278-.074.344-.04.244.125-.104.17-.037.195.26.1.255-.083.358-.063.286.055-.064.106.284.317.819.496 1.767.593 3.764 1.539 4.265 2.02 1.052 1.01 1.094 1.22 1.055 5.2-.03 3.088-.374 8.576-.676 10.82-.096.707-.042.586.478-1.077.2-.642.434-1.255.518-1.362.084-.107.23-.633.323-1.168.162-.923.166-.903.077.374-.62 8.967-3.678 19.644-7.786 27.183-3.497 6.415-8.55 12.766-13.524 16.997l-1.148.977.806-.887c.442-.488.935-1.18 1.093-1.54.159-.359.55-.965.868-1.347l.579-.695-.61.549c-.337.302-1.13 1.024-1.762 1.605-1.384 1.271-4.969 4.188-6.582 5.356-1.468 1.063-1.959 1.165-2.913.6zm-4.49-21.314c.75-.762.3-1.302-.572-.683-.318.227-.61.43-.648.453-.144.085.389.589.622.589.134 0 .403-.162.598-.36zm-4.67-2.701c.014-.293-.03-.533-.1-.533-.24 0-.587.875-.47 1.186.17.449.536.03.57-.653zm12.971-.108c.325-.164.358-.239.16-.36-.137-.086-.419-.438-.626-.783-.467-.78-1.112-1.493-1.237-1.366-.052.052.166.505.482 1.006.476.752.56 1.034.484 1.612-.102.774.078 1.175.232.515.053-.23.28-.51.505-.624zm9.399-.29a1.093 1.093 0 00-.155-.468c-.195-.312-.45.05-.306.432.12.319.464.346.46.036zm-7.079-3.92c0-.085-.16-.24-.354-.347-.194-.105-.354-.31-.354-.455 0-.145-.08-.263-.177-.263-.303 0-.199 1.047.122 1.23.322.182.763.087.763-.165zm-13.936-2.502l.096-.988-.274.629c-.15.345-.303 1.032-.338 1.526-.062.884-.06.89.178.36.133-.297.284-.984.338-1.527zm9.298 1.14c.044-.303.183-.356.91-.345.993.015 1.519-.352 1.7-1.188.088-.405.026-.632-.257-.937-.205-.221-.68-1.03-1.058-1.796-.777-1.577-.745-1.644.696-1.503.482.047.877.03.877-.04 0-.235.903-.54 1.6-.54.507 0 .76.098.92.358.121.198.341.357.488.354.212-.004.203-.043-.043-.188-.55-.326-.328-.543.248-.242.429.226.5.329.31.451-.182.116-.13.158.195.157.442-.003.442-.004-.136-.537-.441-.407-.747-.533-1.295-.533-.394 0-.87-.084-1.059-.186-.42-.228-.474-.802-.06-.641.155.06.493.155.752.211l.47.102-.442-.395a3.422 3.422 0 00-.93-.57c-.584-.208-.635-.633-.1-.834.363-.136.356-.151-.133-.254-.333-.07-.63-.31-.829-.672-.273-.496-.373-.548-.848-.443-.605.135-1.409-.279-1.409-.724 0-.146.168-.435.373-.643l.373-.379-.342-1.104c-.327-1.056-.384-1.123-1.322-1.582-1.453-.71-1.504-1.304-.187-2.212.796-.55 1.421-.571 2.365-.083.766.397 1.218 1.183 1.218 2.115 0 .347.32.96.962 1.843.998 1.373 1.411 2.42 1.31 3.322-.048.427-.157.538-.59.604-.467.07-.435.092.266.18.666.083.84.19 1.067.65.365.739 1.23 1.839 1.232 1.566 0-.12-.164-.645-.367-1.167-.203-.523-.644-2.001-.98-3.285-.352-1.35-.925-2.976-1.357-3.852a91.497 91.497 0 01-.805-1.662c-.032-.08.104-.145.304-.145.586 0 1.583 1.038 2.34 2.438.745 1.376 1.344 1.932 1.984 1.84.334-.049.383-.16.356-.802-.037-.863-.615-2.12-1.123-2.442-.516-.327-.428-.495.26-.495.61 0 .96-.241.64-.442-.093-.059-.763-.26-1.486-.449-.724-.188-2.122-.716-3.108-1.174-1.087-.506-1.92-.791-2.122-.726-.183.058-.762.488-1.288.955-1.451 1.288-2.599 2.089-3.868 2.698-2.129 1.021-2.567 1.74-3.079 5.057-.16 1.033-.354 1.922-.432 1.976-.332.23-2.007 2.61-2.246 3.191-.315.765-.327 1.145-.056 1.75.256.57.91.608 1.278.074.41-.593.822-.32.697.463-.067.416-.033.639.098.639.313 0 .914-.69 1.195-1.371.336-.816.662-.916 1.478-.45.85.484 1.845.495 2.432.027.246-.197.512-.317.591-.267.193.121.434-.28.434-.72 0-.485.55-.56.789-.109.143.271.136.459-.026.722-.313.509-.028.683.56.341l.501-.292.075.652c.068.586-.011.738-.77 1.489-.935.924-1.189 1.57-.883 2.25.23.512.613.482.692-.053zm-6.868-3.757c0-.534.289-1.156.537-1.156.245 0 .211 1.145-.042 1.401-.331.337-.495.257-.495-.245zm2.387-2.351a2.437 2.437 0 01-.452-.723c-.233-.622-.648-.705-1.147-.23-.523.499-.725.364-.473-.316.102-.275.28-1.26.397-2.19.332-2.654 1.087-3.092 1.692-.98.152.53.39 1.08.53 1.22.138.142.252.581.252.978 0 .582.136.88.708 1.55.39.457.708.866.708.91 0 .043-.432.078-.96.078-.659 0-1.054-.094-1.255-.297zm7.084-11.286c-.427-.357-.482-.477-.282-.611.49-.329 1.58.39 1.233.814-.266.326-.336.311-.951-.203zm5.252 15.757c.173-.176-.049-.222-1.066-.222-1.936 0-2.859-.642-2.859-1.988 0-1.48 1.86-1.89 2.333-.513.099.29.255.526.346.526.097 0 .09-.144-.017-.348-.3-.568-.215-.73.392-.751.43-.016.338-.061-.366-.18-.518-.088-1.09-.24-1.272-.339-.723-.392-1.932-.131-2.428.524-.622.822.103 2.52 1.366 3.204.675.366.992.422 2.075.37.703-.034 1.376-.162 1.496-.283zm3.584-1.144c-.069-.113-.133-.369-.143-.57-.01-.2-.13-.402-.265-.447-.15-.05-.197-.004-.122.12.075.124-.01.202-.222.202-.19 0-.392.121-.448.27-.076.201.029.27.413.27.284 0 .565.08.625.179.06.099.15.18.198.18.049 0 .032-.092-.036-.204zm-.712-4.571c.132-.35-.065-1.692-.249-1.692-.281 0-.483 1.603-.234 1.856.194.197.369.137.483-.164zm-18.3-1.001c.388-.609.704-1.195.703-1.303-.002-.108-.199.152-.44.58-.24.426-.603 1.012-.806 1.302-.203.29-.323.526-.265.526.057 0 .421-.498.809-1.106zm18.843-3.964c-.125-.754-.395-1.034-.63-.657-.261.418-.177 1.398.15 1.736.297.308.316.306.452-.04.077-.199.09-.666.028-1.039zm-17.854.267c-.059-.06-.1.047-.093.236.009.21.05.252.107.109.05-.13.044-.285-.014-.345zM26.82 25.1c.176-.198.28-.36.231-.36-.048 0-.232.162-.409.36-.176.198-.28.36-.231.36.048 0 .232-.162.409-.36zm15.584-4.194c.234-1.264-.9-2.643-2.4-2.916-.613-.112-.612-.11.18.31 1.392.74 2.02 2.332 1.318 3.347-.151.22-.218.494-.148.609.188.309.916-.626 1.05-1.35zm-10.628.96c.176-.197.28-.359.232-.359-.049 0-.233.162-.409.36-.176.197-.28.359-.232.359.05 0 .233-.162.41-.36zm1.15-.988c.122-.148.181-.269.133-.269-.049 0-.188.121-.31.27-.12.148-.18.269-.13.269.048 0 .187-.122.308-.27zm-3.097-3.427c-1.529-.558-1.605-1.598-.158-2.158.7-.272 1.145-.263 1.912.035.187.073.281.011.281-.183 0-.388.696-.64 1.827-.662.725-.014.825-.048.475-.161-1.815-.59-5.163.347-5.926 1.657l-.324.557.644.6c.501.466.792.596 1.31.586l.667-.013-.708-.258zM5.842 12.714c0-3.002.042-3.58.266-3.667.23-.09.265.32.265 3.035 0 3.486-.065 3.335 1.24 2.868.865-.31 1.061-.33 1.061-.113 0 .085-.6.378-1.336.65-.735.272-1.305.526-1.267.565.038.038.673-.15 1.41-.42 1.187-.433 1.35-.547 1.414-.992.08-.552.007-.554-1.26-.027-1.14.473-1.106.568-1.048-2.896.028-1.729.044-3.144.034-3.144-.01 0-.269.09-.575.198l-.558.197v3.765c0 2.465.061 3.727.177 3.655.108-.069.177-1.493.177-3.674zM35.2 16.14c.177-.113.134-.179-.17-.26-.225-.059-.451-.036-.504.05-.053.088-.375.193-.715.235-.496.06-.444.08.267.101.487.015.992-.042 1.122-.125zm21.31-3.726l-.053-3.524.495.124c.584.146.357-.154-.258-.343l-.399-.122v3.695c0 2.032.06 3.695.133 3.695.073 0 .11-1.586.081-3.525zm-3.422-.048c-.6-1.498-1.124-2.691-1.163-2.652-.039.04.34 1.113.841 2.385a511.48 511.48 0 011.075 2.742c.09.235.203.388.251.34.048-.05-.403-1.316-1.004-2.815zm-42.379 1.458c.168-1.134.233-1.252.767-1.38.261-.064.608-.155.77-.204.236-.071.336.109.497.894l.201.982.539-.19c.626-.222.668.188-.423-4.107l-.755-2.975-.545.143c-.51.134-.563.23-.847 1.538-.166.768-.565 2.536-.886 3.93l-.584 2.533.573-.178c.506-.158.588-.275.693-.986zm-.556.04c-.058-.152-.065-.317-.017-.366.048-.049.13.076.182.278.11.428-.012.494-.165.089zm.13-.875c-.008-.189.034-.295.093-.236.059.06.065.215.014.345-.057.143-.099.1-.107-.109zm.354-1.616c-.008-.19.034-.296.093-.236s.065.214.014.344c-.057.143-.099.1-.107-.108zm.711-.42c.01-.271.113-.898.231-1.392l.214-.898.222 1.24c.18 1.014.179 1.268-.01 1.39-.438.282-.675.16-.657-.34zm-.534-.299c-.008-.19.034-.296.093-.236s.065.215.014.345c-.057.143-.098.1-.107-.109zm.275-1.093c.201-1.202.429-1.727.312-.718-.057.494-.177 1.019-.267 1.167-.107.176-.122.02-.044-.449zm.422-1.93c-.002-.212.127-.31.395-.301.267.01.31.048.133.117a.96.96 0 00-.396.3c-.08.122-.13.077-.132-.117zm39.473 3.033V7.186l.487.079c.38.062.429.037.221-.112-.146-.105-.444-.192-.663-.194l-.399-.002v3.592c0 2.276.065 3.593.177 3.593.112 0 .177-1.279.177-3.478zm-35.124 2.76c.203 0 .255-.457.275-2.38.013-1.31.059-2.179.102-1.932.124.716 1.142 4.027 1.286 4.188.073.08.183-.163.246-.54.063-.376.389-1.533.724-2.57l.611-1.887L19 10.656l-.104 2.353.548-.082.548-.081.05-3.664.052-3.663h-.558c-.54 0-.572.045-.949 1.303a69.162 69.162 0 00-.696 2.524l-.306 1.222-.649-2.053c-.356-1.129-.648-2.144-.648-2.255 0-.225-.246-.25-.841-.089-.397.108-.399.124-.399 3.79 0 3.282.031 3.668.28 3.571a1.77 1.77 0 01.532-.109zm32.506-3.345l-.052-3.524.45.114c.248.063.45.042.45-.048s-.239-.198-.53-.242L48.15 6.3v3.652c0 2.008.06 3.651.133 3.651.073 0 .11-1.586.08-3.524zm-2.562.425c-.035-.518-.065-.094-.065.944 0 1.037.03 1.461.065.942.036-.518.036-1.367 0-1.886zM23.91 12.332c.965-.246 1.45-.885 1.544-2.037.07-.854.026-1.03-.352-1.414-.42-.427-.424-.447-.11-.841.496-.62.434-1.884-.119-2.445-.41-.416-.546-.445-1.903-.396l-1.461.052-.048 3.701-.048 3.702.933-.08a12.037 12.037 0 001.564-.242zm-1.428-2.051V9.112h.681c.817 0 1.267.426 1.267 1.2 0 .707-.49 1.136-1.298 1.136h-.65V10.28zm.07-2.318c-.05-.135-.067-.599-.036-1.03.05-.701.105-.79.533-.84.768-.09 1.204.25 1.204.939 0 .69-.21.908-1.025 1.065-.41.079-.61.039-.675-.134zm20.288 1.22c0-3.436.009-3.523.354-3.43.195.05.354.03.354-.049 0-.127-.586-.354-.93-.36-.073-.002-.132 1.654-.132 3.68 0 2.335.065 3.682.177 3.682.112 0 .177-1.294.177-3.524zm11.644-1.059c.478.092.478.09-.049-.16l-.53-.254-.051 2.075c-.045 1.867-.076 2.041-.31 1.734-.24-.311-.246-.294-.078.199.388 1.142.44 1.005.487-1.305l.05-2.382.481.093zm-14.122 4.114c.29-.18.32-.232.089-.149-.195.07-.633.187-.974.261-.609.133-.61.135-.089.15.292.007.73-.11.974-.262zm-10.832-.255c.71-.44 1.078-1.272 1.213-2.75.282-3.06-1.098-5.179-2.83-4.344-.89.428-1.399 1.556-1.5 3.328-.184 3.238 1.222 4.938 3.117 3.766zm-1.547-1.06c-.728-.74-.738-3.81-.015-4.592.54-.583.978-.572 1.37.035.246.38.314.862.314 2.208 0 1.347-.068 1.829-.314 2.209-.369.571-.878.623-1.355.14zm7.953 1.057c0-.08-.229-.803-.51-1.607l-.508-1.46.42-.28c.95-.631.921-2.687-.05-3.462-.376-.301-.717-.37-1.854-.37h-1.392v7.366h.442c.44 0 .443-.012.443-1.617V8.932l.487.002c.46.002.515.096.992 1.673.498 1.65.511 1.67 1.017 1.595.282-.042.513-.143.513-.223zm-.762-.127c-.041-.075-.291-.802-.556-1.617l-.481-1.482h-.694c-.437 0-.692-.083-.692-.225.002-.149.332-.234.981-.253.539-.016 1.088-.12 1.22-.232.656-.552.437-1.95-.364-2.32-.525-.244-1.6-.269-1.739-.042-.054.09-.114 1.057-.133 2.151-.02 1.094-.08 1.944-.133 1.89-.054-.056-.139-1.105-.187-2.332l-.089-2.23h1.244c1.447 0 1.907.243 2.209 1.169.276.85.078 1.616-.547 2.113l-.52.412.522 1.566c.397 1.194.464 1.566.278 1.566-.134 0-.278-.06-.32-.135zm-2.175-4.065c-.051-.136-.068-.641-.039-1.123.053-.842.077-.877.628-.931 1.143-.112 1.944 1.4 1.07 2.022-.49.347-1.532.368-1.659.032zm5.264 4.104c-.691-.591-.968-1.473-.983-3.138-.016-1.798.422-2.996 1.219-3.334.806-.341 1.765-.022 2.183.729.11.197.203.252.205.12.003-.13-.227-.474-.512-.763-.397-.402-.68-.525-1.215-.525-1.534 0-2.236 1.311-2.132 3.98.072 1.84.452 2.943 1.104 3.21.644.265.68.19.131-.28zm1.8-.345c.619-.628.504-2.075-.165-2.075-.135 0-.244-.13-.244-.288 0-.19.096-.251.28-.18.154.06.468.11.699.11.379 0 .425.089.483.942l.065.943.033-1.122.033-1.123h-.974c-.913 0-.973.027-.973.437 0 .343.104.45.487.494.427.05.479.123.424.596-.092.795-.343 1.168-.785 1.164-.656-.007-1.18-.565-1.348-1.436-.106-.549-.162-.652-.175-.324-.06 1.479 1.344 2.69 2.16 1.862zm.973-.193c-.055-.056-.154.044-.22.221-.097.257-.076.277.099.1.12-.12.175-.266.12-.321zm4.813-3.778c0-1.315.008-1.337.454-1.337.257 0 .405-.078.343-.18-.06-.098-.304-.18-.541-.18-.422 0-.432.034-.432 1.438 0 1.035-.062 1.434-.222 1.426-.121-.006-.6-.074-1.062-.15-.462-.078-.84-.078-.84-.001s.378.192.84.255c.463.063.92.138 1.018.166.367.107.443-.138.443-1.437zm-7.705-.314c.063-.376.268-.841.457-1.033.19-.192.267-.35.172-.35-.313 0-.743.87-.818 1.655-.085.888.024.731.19-.272zm2.218-.206c0-.242-.432-.988-.613-1.059-.14-.054-.117.121.068.523.237.513.545.816.545.536zm.708-.272c0-.096-.12-.128-.266-.071-.146.057-.265.135-.265.174 0 .039.12.07.265.07.146 0 .266-.078.266-.173zm-36.374-.51c-.054-.056-.197 0-.317.122-.174.178-.153.198.1.1.174-.066.272-.167.217-.222z" fill="#D8A016"/><path d="M31.081 71.82c-.667-.092-1.118-.311-2.07-1.004-3.267-2.375-5.967-4.578-8.385-6.84-.928-.868-2.965-2.953-3.68-3.767-2.927-3.329-5.354-6.74-8.326-11.7-.655-1.093-1.454-2.727-2.545-5.203C2.53 35.266.68 27.15.134 17.253A86.125 86.125 0 010 11.658c.008-1.804.017-2.02.103-2.497.164-.902.481-1.756.865-2.33.476-.712 1.766-1.738 2.8-2.227 1.46-.69 5.014-1.76 8.218-2.472.87-.194 2.585-.543 3.168-.646l.797-.142c.265-.048.53-.091.798-.13.17-.023.45-.071.62-.107.17-.036.49-.088.708-.116.22-.029.678-.09 1.02-.137.273-.039.546-.075.82-.11a155.18 155.18 0 012.126-.245c3.605-.39 8.395-.574 11.85-.455 1.518.052 4.96.25 5.233.3.075.015.414.042.753.061.338.02.895.07 1.236.11.341.042.89.107 1.218.144 1.543.174 2.883.348 3.455.448.208.036.756.126 1.219.2 4.875.78 8.913 1.917 11.917 3.355 1.3.622 1.819.972 2.45 1.65a5.459 5.459 0 011.405 2.674c.196.89.108 6.43-.157 9.948-.362 4.802-.985 8.844-2.015 13.07-1.112 4.566-2.604 8.748-4.775 13.383-.733 1.568-.932 1.953-1.54 2.987a95.465 95.465 0 00-.618 1.056 4.335 4.335 0 01-.155.248c-.073.112-.157.242-.186.291-.029.05-.139.23-.244.404a6.71 6.71 0 00-.208.36.196.196 0 01-.045.067 4.023 4.023 0 00-.222.336c-.119.192-.24.381-.364.569-.094.14-.17.274-.17.3 0 .024-.015.05-.034.06-.045.02-.277.384-.277.435 0 .023-.03.053-.066.067-.037.014-.066.047-.066.072 0 .025-.11.206-.244.402-.134.196-.244.376-.244.4 0 .024-.03.055-.066.07a.111.111 0 00-.067.094c0 .038-.016.069-.036.069-.02 0-.065.056-.1.123a1.679 1.679 0 01-.096.169c-.15.198-.33.452-.653.919a55.88 55.88 0 01-1.103 1.528c-3.988 5.367-8.159 9.397-14.71 14.214-.956.703-1.404.954-1.962 1.098-.391.1-.945.142-1.276.096zm1.134-.406c.552-.143 1.01-.395 1.886-1.038 8.367-6.151 13.043-11.153 18.371-19.656 1.433-2.286 2.127-3.496 2.697-4.7 1.55-3.277 2.668-6.006 3.585-8.762 2.231-6.698 3.435-13.78 3.738-21.984.071-1.926.058-5.658-.022-6.12-.217-1.264-.982-2.465-2.108-3.312-.41-.307-1.861-1.052-2.79-1.43-2.75-1.12-5.894-1.96-10.01-2.676-2.417-.42-5.574-.808-8.617-1.057a86.859 86.859 0 01-.82-.07 150.46 150.46 0 00-3.477-.204c-2.133-.1-6-.049-8.706.117-7.082.433-14.852 1.846-20.18 3.67-1.466.503-1.988.737-2.745 1.235-1.23.807-1.79 1.422-2.195 2.406-.474 1.151-.558 2.124-.487 5.6.09 4.408.35 7.846.865 11.452 1.02 7.163 2.81 13.208 5.87 19.829 1.191 2.575 1.533 3.196 3.426 6.22a117.52 117.52 0 002.268 3.414c3.567 5.078 7.02 8.746 12.164 12.922 1.336 1.085 4.513 3.488 5.05 3.82.195.12.707.319.948.368.343.07.924.05 1.29-.044zM31.024 69.6c-.27-.077-.887-.505-2.146-1.492-7.732-6.057-12.099-10.799-16.457-17.871a98.105 98.105 0 01-1.885-3.211c-.523-.938-2.19-4.454-3.023-6.378-2.952-6.818-4.574-13.893-5.071-22.12-.175-2.891-.201-6.852-.051-7.68.165-.908.463-1.702.87-2.318.443-.67 1.262-1.338 2.041-1.662 1.6-.666 5.223-1.706 8.324-2.39 5.394-1.19 10.43-1.804 16.082-1.964 1.555-.044 4.257-.03 4.807.026.097.01.476.03.841.045 3.499.14 8.195.643 11.563 1.239 4.159.735 7.325 1.67 10.035 2.959l1.106.525c1.5.704 2.184 1.792 2.41 3.825.112 1-.154 5.953-.506 9.44-.999 9.882-3.004 17.1-6.779 24.403-1.524 2.948-3.96 6.977-5.802 9.595-3.158 4.49-6.218 7.628-12.376 12.694l-1.157.956c-.512.424-1.064.861-1.228.973-.578.394-1.14.537-1.598.406zM19.54 53.546c.543-.25.723-.633.796-1.691.05-.704.186-.971.534-1.045l.176-.037-.022-.425c-.034-.634-.027-1.575.011-1.714.019-.067.24-.38.49-.696.596-.749.951-1.267 1.051-1.534.044-.119.124-.507.176-.863.106-.728.06-.623.86-1.945.238-.393.594-1.047.791-1.454.215-.444.427-.814.527-.923.087-.094.173-.19.257-.286.05-.057.109-.104.132-.104.09 0 .355.282.453.485.099.203.103.254.103 1.26 0 1.046 0 1.047.104 1.133.058.047.15.086.206.086.101 0 .1-.002-.023-.136-.181-.196-.223-.466-.19-1.228.025-.598.019-.676-.071-.947-.054-.162-.092-.36-.084-.44.013-.138.024-.146.213-.16.225-.016.327-.091.447-.33.085-.169.107-.305.093-.562-.007-.123-.04-.161-.238-.27-.302-.167-.386-.293-.44-.667-.064-.433-.012-1.77.08-2.076.08-.27.118-.275.435-.055.309.215 1.25.62 1.714.738.568.146 1.342.163 1.588.036.213-.111 1.006-.726 1.339-1.038.152-.143.396-.348.542-.455.146-.108.344-.263.44-.345.096-.082.22-.15.275-.15.157 0 .579.175.726.3.267.228.133.458-.516.886-.512.337-1.059.938-1.312 1.44-.116.231-.654 1.847-.654 1.965 0 .19.145.583.29.788.534.75.791 1.171.846 1.384.033.128.09.307.128.396.143.349-.029.542-.612.686a7.015 7.015 0 01-.66.131l-.252.03.071.11c.061.095.077.101.11.04.032-.058.13-.07.545-.07.408 0 .551-.019.74-.094l.233-.093.112.14c.124.157.842.906.842.878 0-.113-.343-.902-.615-1.416-.19-.358-.435-.843-.545-1.078a6.444 6.444 0 00-.561-.916c-.2-.27-.377-.542-.395-.606-.062-.227-.03-.61.08-.92.17-.488.307-.455.308.075 0 .385.05.502.476 1.121.488.712.523.774.766 1.385.207.517.46.993.76 1.425.149.214.435.989.435 1.175 0 .075-.054.172-.149.265l-.15.147-.094-.122c-.053-.067-.11-.109-.126-.092-.017.018-.039.162-.049.32-.018.286-.016.292.142.434.15.135.16.16.16.416 0 .325.096.545.296.68.08.055.346.137.632.195l.493.1.174-.141c.305-.245.663-.68.712-.865.057-.215.021-.401-.099-.511a.84.84 0 01-.15-.2c-.09-.176-.012-.22.384-.22.322 0 .347-.008.45-.13.117-.142.417-.81.593-1.32.09-.262.111-.407.11-.748-.003-.346.019-.486.114-.764.157-.46.158-.802.004-1.103-.13-.254-.224-.348-.556-.558-.363-.23-.317-.374.18-.565.285-.11.429-.23.429-.36 0-.105-.002-.105-.392-.08-.39.026-.393.025-.476-.098-.245-.36-.385-.412-.637-.236-.274.19-.887 1.317-.887 1.628 0 .18.2.364.565.516.188.079.389.173.444.209.183.118.275.328.275.63 0 .153.02.333.046.4.025.068.047.253.048.412.002.235-.023.342-.134.57-.179.369-.736 1.097-.882 1.153-.158.06-.323-.07-.402-.32-.057-.178-.054-.21.039-.422.209-.48.233-.658.183-1.35-.025-.352-.07-.694-.1-.76-.092-.205-.237-.142-.545.233-.289.353-.476.502-.633.502-.151 0-.204-.152-.178-.513.028-.362.107-.606.423-1.308.24-.53.617-1.529.745-1.973.099-.34.11-1.195.02-1.55-.047-.189-.115-.303-.292-.494a9.18 9.18 0 01-1.204-1.707c-.32-.613-.537-1.257-.422-1.257.06 0 .552.637.754.976.246.415.375.522.594.492.161-.022.166-.018.192.142.086.531.337 1.054.729 1.517.18.214.932.825 1.15.935.252.128.667.266 1.154.383.297.071.529.09 1.097.09.757 0 .93-.032 1.109-.215.048-.048.204-.13.347-.183a3.96 3.96 0 00.366-.15c.155-.083.274-.265.244-.376-.023-.088-.065-.096-.586-.122-.672-.033-1.268-.174-1.726-.408a7.747 7.747 0 00-.616-.276c-.52-.198-.916-.519-1.007-.816-.046-.149.043-.275.219-.308.085-.016.166-.047.18-.07.013-.021.057-.04.098-.04.19-.002.2-.057.102-.482-.117-.51-.119-.595-.006-.595.18 0 .31.113.562.487.142.213.372.504.51.646.222.231.269.26.428.26.1 0 .191-.02.206-.044.015-.024-.014-.124-.064-.223a.964.964 0 01-.09-.404c0-.187.023-.251.137-.383.128-.148.157-.16.392-.16.3 0 .495.11.663.373.098.152.125.167.308.167a.586.586 0 00.37-.12c.144-.1.186-.11.278-.068.06.027.156.126.215.22.07.107.152.207.243.299.125.12.152.127.373.099a.935.935 0 01.355.015c.2.077.224.184.139.632-.071.375-.071.411-.001.597.04.11.134.266.208.35.15.17.152.179.22.744.064.538.01.919-.213 1.508-.097.254-.247.655-.336.89-.088.235-.217.496-.287.58l-.126.154.181.14c.235.18.412.484.663 1.136.359.93.39 1.046.397 1.402.004.285-.024.425-.182.907-.25.764-.257 1.059-.032 1.358.085.113.155.24.155.28 0 .042-.11.26-.243.484-.553.926-.551 1.348.009 1.867.292.27.55.414.714.395.11-.013.12-.031.132-.261.016-.277.14-.463.295-.44.077.011.095.058.12.32.037.38.057.434.16.434.183 0 .8-.488.924-.73l.067-.132-.192.134a2.23 2.23 0 00-.299.252c-.129.14-.262.148-.415.026-.156-.124-.182-.298-.096-.634.1-.393.069-.697-.087-.833-.102-.089-.168-.104-.46-.105-.188 0-.37-.019-.405-.042-.12-.076.017-.258.304-.404.415-.212.437-.363.08-.548-.237-.122-.295-.2-.297-.402a.588.588 0 01.396-.538c.284-.107.4-.264.4-.542 0-.309-.105-.51-.372-.714-.436-.332-.425-.313-.425-.715 0-.291.016-.377.082-.444.06-.062.088-.176.107-.448a1.62 1.62 0 01.117-.56c.147-.307.131-.386-.155-.818-.184-.275-.24-.555-.24-1.193 0-.267-.018-.534-.04-.593-.058-.154-.006-.663.07-.693.129-.05.328.09.47.33.155.263.187.285.222.15.037-.143.253-.11.763.114 1.157.51 2.453.615 3.153.253.398-.206 1.116-.837 1.3-1.143.172-.285.161-.29-.555-.266-.724.025-1.16-.029-1.639-.203-.407-.147-.856-.452-1.11-.753a6.973 6.973 0 00-.66-.626c-.252-.212-.47-.416-.483-.452a.111.111 0 00-.097-.067c-.135 0-.735-.281-1.063-.498a7.41 7.41 0 00-.513-.313c-.319-.165-1.532-.415-2.286-.47l-.409-.031-.03-.164c-.054-.299-.144-.498-.413-.921-.223-.349-.268-.451-.269-.616-.001-.237-.097-.464-.417-.98a2.856 2.856 0 01-.336-.743 6.7 6.7 0 00-.268-.75 3.896 3.896 0 01-.35-1.273 5.323 5.323 0 00-.349-1.42 7.427 7.427 0 01-.273-.96c-.14-.706-.192-.836-.553-1.373-.178-.264-.337-.549-.356-.632a.791.791 0 00-.152-.29 3.903 3.903 0 01-.291-.427 13.606 13.606 0 00-.274-.44.618.618 0 01-.101-.275c0-.191.106-.248.439-.235.701.028 1.244.56 1.953 1.92.564 1.08 1.027 1.637 1.603 1.929.226.115.372.159.523.159.264 0 .36-.099.389-.4.024-.26-.026-.499-.267-1.262-.138-.439-.183-.661-.204-1.02-.034-.556-.059-.59-.561-.766-.432-.151-.458-.23-.104-.321.35-.09.724.006 1.134.29.269.188.32.207.49.188.155-.018.239-.067.446-.263.233-.22.253-.255.237-.402-.02-.18.098-.458.258-.602.132-.12.206-.305.36-.894.203-.784.15-1.439-.162-1.98-.25-.434-1.433-1.387-2.12-1.709-.629-.294-.66-.296-4.06-.337-3.793-.044-5.48-.128-5.97-.297-.708-.242-1.218-.682-1.143-.985.042-.174.28-.412.493-.494.394-.152.952-.044 2.035.397.993.404 1.595.507 2.744.468 1.02-.035 1.827-.158 2.034-.312.076-.056.076-.061-.001-.131-.045-.04-.37-.149-.723-.24-.774-.201-1.196-.363-1.196-.46 0-.06.076-.065.587-.043a7.217 7.217 0 011.768.302c.318.1 1.036.124 1.27.041.156-.055.184-.17.07-.284-.283-.288-1.84-.853-3.038-1.101-.754-.157-1.34-.195-2.597-.17-1.549.03-2.189.145-2.929.524-.604.31-1.312.96-1.534 1.413-.26.53-.085.884.666 1.34.519.315.925.444 1.794.57 1.572.23 2.682.283 5.737.28 1.492-.002 2.68.016 2.835.042.46.076 1 .272 1.28.463.33.226.736.708.948 1.127.139.275.16.356.162.651.002.29-.015.37-.125.57-.171.313-.523.706-.697.78-.207.086-.708-.003-1.3-.23-.411-.157-.56-.191-.974-.222-.54-.04-.6-.058-1.403-.418-.82-.367-2.066-.777-2.691-.885-.299-.051-.589.007-1.004.201-.419.197-.66.39-1.493 1.199-.785.762-1.142 1.046-1.58 1.258-.798.387-3.075 1.684-3.287 1.872-.31.275-.834.919-1.055 1.296-.404.69-.529 1.233-.576 2.506-.033.867-.04.911-.178 1.267-.154.398-.564 1.114-1.118 1.952-.52.789-.895 1.416-1.145 1.918-.493.988-.577 1.366-.62 2.767l-.032 1.034-.16.473c-.088.26-.273.746-.41 1.078-.508 1.232-.498 1.169-.545 3.434l-.035 1.662-.186.371a6.932 6.932 0 01-.38.659c-.245.364-.314.656-.405 1.71a85.45 85.45 0 01-.09.995c-.02.164-.088.26-.58.808-.939 1.045-1.298 1.589-1.298 1.965 0 .187-.014.212-.189.334-.343.239-.827.8-.989 1.146-.191.409-.236.79-.12 1.017.13.254.216.212.583-.285l.325-.442.107.102c.058.056.106.127.106.157 0 .031-.08.225-.179.43-.099.207-.173.424-.166.487.017.15.171.173 1.098.163.655-.009.753-.02.952-.112zm-.412-2.435c-.153-.061-.382-.581-.344-.784.032-.174.075-.187.305-.089.24.101.357.083.58-.09.218-.168.288-.188.371-.103.078.08.065.22-.04.42-.054.1-.107.202-.16.303-.124.237-.51.422-.712.343zm1.428-4.24c-.098-.1-.108-.146-.108-.49 0-.209-.01-.407-.022-.44-.012-.033-.002-.09.021-.127.037-.056.066-.043.18.079.11.119.17.146.319.146.125 0 .214-.03.283-.096.135-.129.239-.082.235.105a1.077 1.077 0 01-.455.816c-.224.146-.314.148-.453.008zm14.1-.403a.867.867 0 01-.259-.103c-.076-.078-.15-.626-.102-.764.094-.27.428-.145.511.191.049.195.056.201.22.201.197 0 .263.083.263.329 0 .137-.016.157-.139.182-.182.038-.243.033-.495-.035zM21.481 42.74c-.186-.083-.251-.303-.229-.77.021-.43.195-.832.43-.992l.148-.101.11.133c.067.08.153.133.219.133.162 0 .498-.193.747-.43.122-.116.335-.31.473-.433.314-.277.392-.463.39-.923-.004-.596-.045-.72-.326-.976-.283-.258-.393-.484-.394-.813 0-.385.186-.602.518-.602.183 0 .31.123.541.523.38.66.935.915 1.3.598.174-.151.232-.162.33-.062.058.058.07.189.07.716 0 .355.018.694.04.753.029.074.12.142.29.211.303.125.4.276.367.573a.506.506 0 01-.393.463c-.248.068-.431.002-1.19-.428-.229-.13-.484-.146-.643-.04-.06.039-.21.21-.334.38-.176.24-.323.374-.666.608-.483.327-.621.467-.902.912-.202.318-.442.587-.527.588a.793.793 0 00-.14.021.45.45 0 01-.23-.042zm7.118-9.506a2.955 2.955 0 00-.51-.183c-.283-.061-.446-.147-.531-.278-.061-.094-.06-.133.002-.38.08-.317.038-.565-.117-.708-.08-.072-.156-.084-.477-.078-.22.004-.465.037-.576.078-.107.04-.2.072-.205.072-.021 0 .03-.427.072-.593a.402.402 0 01.197-.263c.264-.165.3-.261.272-.712-.034-.542.033-.81.206-.812.021 0 .113.075.204.168.115.117.196.264.266.482.173.535.246.651.412.652.265.002.276.028.276.66 0 .692.042.799.504 1.26.71.711.711.967.005.635zm7.204-3.609c-.016-.065-.016-.297 0-.516l.03-.397-.127-.083c-.112-.075-.224-.084-1.035-.085-.795-.002-.933-.012-1.088-.085l-.177-.085.133-.032c.073-.018.322-.036.554-.039.486-.006.676-.05.882-.204.576-.431.46-.965-.398-1.824-.534-.535-.628-.682-.608-.955l.013-.188.222.227c.121.125.29.347.375.494.244.42 1.05 1.539 1.353 1.876.441.49.606.917.535 1.385-.038.248-.299.565-.497.603-.122.024-.14.014-.167-.092zm-.964-7.11a3.028 3.028 0 01-.214-.273 5.56 5.56 0 00-.312-.395c-.253-.293-.288-.397-.173-.513.119-.12.62-.122.84-.004.223.121.393.479.428.9l.027.33-.134-.03c-.1-.022-.14-.012-.16.04-.04.107-.178.082-.302-.054zm-1.3-6.33a2.725 2.725 0 01-.297-.112c-.253-.11-.314-.24-.169-.358.13-.106.23-.103.454.013.1.052.304.105.452.117.188.016.32.057.435.136.182.124.202.167.096.209-.08.031-.839.027-.97-.005zM24.42 51.28c.304-.158.585-.487.835-.978.124-.244.296-.497.424-.629.261-.265.315-.366.437-.82.115-.426.31-.826.665-1.365.403-.61.582-.783 1.112-1.071.834-.454.884-.515.937-1.147.02-.247.066-.507.102-.577.083-.162.5-.546.84-.772l.26-.174h-1.227c-.952 0-1.295.016-1.53.07a2.193 2.193 0 01-.52.056l-.214-.014-.276.696c-.151.384-.276.736-.276.784-.002.149-.142.668-.225.833-.114.228-.866 1.022-1.065 1.125a.809.809 0 01-.299.088c-.155 0-.33.132-.403.302-.03.069-.193.225-.367.35-.397.285-.888.743-1.011.946-.147.241-.22.585-.22 1.055 0 .48.094.895.202.895.037 0 .209-.1.382-.224.507-.361.61-.284.302.224-.098.161-.177.316-.177.344 0 .088.314.147.708.134.304-.01.42-.036.604-.13zm.433-2.449c-.284-.21-.549-.482-.549-.563 0-.045.105-.127.27-.212l.27-.138.18.12c.244.164.446.184.735.073.322-.125.358-.103.31.186a1.606 1.606 0 01-.094.342c-.07.14-.356.267-.681.3-.238.025-.273.016-.44-.108zm4.657.081c.1-.026.051-.036-.192-.04-.283-.004-.323-.015-.31-.084.008-.043.118-.129.244-.19.126-.062.246-.13.266-.15.02-.02.036-.197.036-.392 0-.424.061-.513.397-.577.232-.043.334-.136.334-.303 0-.077-.047-.123-.196-.19-.244-.109-.328-.242-.215-.342l.445-.39c.324-.283.373-.346.426-.549.116-.442.207-1.002.177-1.086-.043-.12-.198-.288-.268-.288-.033 0-.099-.04-.148-.09-.059-.06-.088-.07-.088-.03 0 .033-.133.28-.295.55-.161.27-.374.658-.472.864-.158.334-.207.394-.447.56-.674.462-1.035 1.049-1.133 1.841-.046.371-.016.616.075.616.036 0 .17-.09.298-.202.128-.111.268-.202.31-.202.07 0 .075.033.047.307l-.03.306.148.048c.172.057.403.061.59.013zm13.833-15.478a2.35 2.35 0 00.348-.388l.197-.27-.112-.14c-.443-.554-.72-.968-.93-1.396-.136-.272-.245-.525-.244-.563.002-.108.137-.25.403-.42.602-.384.667-.546.693-1.71.012-.547 0-.946-.033-1.122a2.383 2.383 0 00-.553-1.09l-.23-.257-.174.053c-.212.065-.535.374-.645.617-.115.257-.102.558.054 1.17.092.365.136.645.136.877 0 .404-.016.51-.206 1.299-.192.798-.249 1.234-.248 1.899.001.59.06.877.23 1.129.294.434.953.591 1.314.312zM5.963 16.422c.409-.22 1.488-.681 2.38-1.018l.764-.288V14.5c0-.348-.017-.618-.04-.618-.056 0-1.355.535-1.793.737a3.217 3.217 0 01-.387.162c-.022 0-.04-1.387-.04-3.167 0-1.741-.014-3.166-.032-3.167-.019 0-.325.136-.681.303l-.649.304-.018 3.728c-.01 2.05-.012 3.743-.003 3.761.035.073.226.027.5-.12zm51.398-1.586c-.007-.883-.027-2.582-.044-3.776l-.03-2.17-.577-.244c-.316-.134-.63-.244-.697-.244h-.122v7.49l.188.05c.104.028.418.15.698.27.28.122.53.223.554.225.028.003.04-.55.03-1.601zM54.91 10.06l.006-2.093-.498-.167a8.229 8.229 0 01-.575-.21.541.541 0 00-.211-.041h-.134l-.005 1.897a135.28 135.28 0 00.002 1.954c.032.25-.188-.242-.971-2.173-.679-1.671-.928-2.238-.995-2.267-.167-.071-.991-.265-1.128-.265h-.136v7.545h.113c.092 0 .958.203 1.271.297.074.022.077-.095.05-2.281-.02-1.593-.014-2.29.018-2.26.025.025.514 1.196 1.086 2.604l1.04 2.558.504.16.503.16.027-1.663c.015-.914.03-2.604.033-3.755zM9.713 14.937c.072-.036.328-.127.569-.202.24-.075.44-.142.443-.147.004-.006.103-.49.22-1.078l.215-1.067.203-.06c.7-.21 1.165-.311 1.196-.26.018.029.119.441.225.917.105.475.205.88.22.898.017.018.317-.035.67-.118.526-.125.637-.165.626-.226a62.758 62.758 0 00-.369-1.297c-.195-.673-.645-2.223-.998-3.446a110.2 110.2 0 00-.66-2.241c-.01-.01-.224.035-.474.1a7.5 7.5 0 01-.563.13c-.107.012-.12.062-.65 2.46l-.893 4.034c-.35 1.573-.352 1.587-.259 1.626.13.053.13.053.279-.023zm1.654-3.471c0-.072.443-2.274.472-2.345.032-.08.087.122.346 1.268l.19.842-.183.048c-.191.05-.615.166-.747.205-.043.013-.078.004-.078-.018zm37.938-1.298l.027-3.736-.254-.052c-.24-.05-.48-.101-.719-.154a5.236 5.236 0 00-.542-.101c-.073.002-.078.165-.089 2.7-.01 2.615.005 4.794.034 4.824.033.035 1.464.305 1.489.28.015-.013.04-1.707.054-3.761zM15.602 13.41c.311-.062.572-.112.58-.112.007 0 .018-.854.024-1.898.009-1.415.024-1.869.06-1.785.026.062.324.865.66 1.785.337.92.635 1.673.661 1.673.143-.003.13.037 1.053-3.144.126-.432.245-.805.265-.828.02-.024.037.81.037 1.853 0 1.042.015 1.895.033 1.894.053 0 1.039-.13 1.188-.156l.135-.024-.015-3.626c-.008-1.994-.026-3.694-.039-3.777-.022-.14-.032-.148-.164-.125-.38.065-1.016.127-1.116.108-.062-.012-.12-.009-.13.007-.01.017-.29.908-.622 1.982a3024.62 3024.62 0 01-.65 2.1c-.026.082-.055.14-.066.13-.01-.011-.298-.836-.638-1.833L16.22 5.77c-.013-.034-.18-.017-.543.055a6.27 6.27 0 01-.66.106l-.138.002-.029 1.422c-.016.782-.03 2.478-.03 3.77 0 2.509-.01 2.358.185 2.393.016.003.284-.046.596-.107v-.001zm31.151-3.72l.012-3.756-.1-.022c-.432-.094-1.088-.205-1.208-.205h-.146l.025 1.46c.023 1.413.021 1.46-.06 1.46-.047 0-.414-.05-.816-.112a37.603 37.603 0 00-.764-.112c-.018 0-.033-.667-.033-1.482V5.44l-.1-.021a16.743 16.743 0 00-1.24-.16h-.122v7.528l.698.092c.384.05.71.086.725.077.014-.008.017-.787.005-1.73l-.023-1.714.106.025c.059.014.43.07.826.126l.72.101v3.489l.144.002c.08.002.393.05.698.106.304.058.574.1.598.095.03-.005.048-1.306.056-3.765zm-6.842 2.957c.673-.178 1.111-.604 1.32-1.286.074-.24.084-.424.084-1.526V8.582h-2.038v.217c0 .12-.013.373-.028.562l-.029.344h.863l-.015.598c-.014.56-.023.61-.133.779-.328.501-1.005.413-1.4-.183-.287-.431-.299-.532-.299-2.43 0-1.67.002-1.71.097-1.89.118-.223.37-.456.535-.493.067-.015.145-.034.173-.043.105-.032.376.077.528.213.192.171.321.419.358.686l.027.203h.658c.753 0 .699.041.595-.455-.214-1.023-1.041-1.701-2.077-1.701-1.022 0-1.86.645-2.164 1.667-.045.15-.059.627-.058 1.97 0 1.96.025 2.195.288 2.727.168.34.532.75.854.962.24.156.655.323.917.368.257.043.708.026.945-.036zm-16.76-.246c1.518-.13 1.616-.157 2.001-.574.708-.768.807-2.357.185-2.994-.139-.142-.43-.294-.57-.295-.056 0-.02-.035.105-.098.67-.336.867-1.737.39-2.755-.185-.396-.44-.665-.775-.821l-.25-.116-.731.055c-.75.056-2.186.19-2.204.205-.005.004-.023 1.703-.04 3.774l-.03 3.766.416-.027c.23-.015.906-.07 1.503-.12zm-.587-1.06c-.018-.02-.033-.503-.033-1.076V9.224l.653-.026.654-.025.146.142c.08.078.2.253.265.39.104.212.12.302.12.65 0 .362-.013.428-.123.618-.188.324-.301.366-1.029.385-.34.009-.635 0-.653-.018zm.22-3.286l-.255-.017.012-.974.012-.975.604-.012.604-.013.205.231c.48.543.427 1.42-.105 1.692-.201.103-.36.113-1.076.068zm6.405 4.188c.924-.198 1.56-.86 1.668-1.738.023-.18.036-1.137.03-2.125-.01-1.982-.019-2.046-.307-2.605-.169-.327-.592-.766-.898-.931a2.665 2.665 0 00-1.028-.293c-.775-.053-1.624.528-2.05 1.403-.304.622-.32.78-.284 2.829.034 1.926.051 2.088.276 2.506.409.763 1.542 1.18 2.593.954zm-.948-1.163a1.006 1.006 0 01-.55-.453l-.113-.195-.01-1.88-.009-1.879.123-.252c.309-.639 1.045-.754 1.576-.248.202.192.319.439.363.765.02.15.043.981.05 1.846.014 1.56.013 1.573-.087 1.781-.226.467-.834.7-1.343.515zm7.98 1.128c0-.031-.29-.789-.643-1.684a57.162 57.162 0 01-.643-1.667c0-.022.074-.055.164-.072.657-.125 1.03-.776 1.032-1.797 0-.969-.401-1.85-1.007-2.21-.227-.135-.587-.168-2.304-.216l-1.075-.03v7.543l.144.022c.08.012.39.026.69.03l.544.007-.006-1.608-.007-1.607.372-.013.371-.013.397 1.293c.218.71.448 1.454.51 1.652l.116.36.483.012c.267.007.514.02.551.028.16.038.31.023.31-.03zm-3.116-4.33c-.017-.016-.03-.489-.03-1.05v-1.02l.546-.031c.604-.036.78.005 1.015.233.385.374.363 1.405-.037 1.762l-.154.136h-.655c-.361 0-.67-.013-.686-.03z" fill="#9F6B08"/><path d="M30.31 69.157c-1.48-.914-5.171-3.906-7.65-6.2-4.07-3.766-8.15-8.812-10.93-13.516C5.8 39.409 2.72 27.71 2.357 13.85c-.106-4.049-.098-4.176.287-4.985.512-1.071.97-1.386 3.403-2.333 6.716-2.616 13.807-3.826 23.517-4.014 10.962-.212 20.027 1.106 27.322 3.972 2.528.994 2.978 1.3 3.491 2.376.387.811.394.931.286 5.074-.594 22.764-8.433 39.647-24.429 52.611-1.94 1.573-3.964 3.006-4.468 3.165-.25.08-.708-.097-1.456-.56zM19.56 53.631c.278-.129.481-.458.63-1.022.123-.458.346-.979.497-1.158.167-.196.305-.794.35-1.516.066-1.055.153-1.292.754-2.063.387-.498.802-1.311.966-1.897.158-.564.411-1.268.563-1.564 1.136-2.218 1.87-3.503 2-3.503.39 0 .703.852.703 1.917 0 .84.071 1.16.284 1.28.254.144.257.217.025.683a5.902 5.902 0 00-.384 1.05c-.171.722-.739 1.49-1.33 1.8-.27.143-.862.624-1.314 1.07-.651.642-.82.931-.819 1.4.004.792.259 1.206.557.903.356-.361.518-.257.392.254-.114.46-.097.473.474.357.733-.149 1.396-.577 1.518-.979a3.21 3.21 0 01.248-.573c.086-.148.413-.822.729-1.498.391-.84.822-1.435 1.363-1.885.434-.362.906-.94 1.048-1.283.418-1.016 1.635-1.883 1.635-1.165 0 .421-.685 1.692-1.186 2.2-.629.639-1.114 1.495-1.115 1.97 0 .416.248.542.442.224.193-.317.413-.192.317.18-.078.302-.006.359.453.359.91 0 1.765-.52 1.897-1.152.063-.305.268-.812.457-1.126.223-.373.303-.727.23-1.023-.12-.484.204-1.729.45-1.729.183 0 .824 1.34.989 2.066.067.296.278.714.47.928.323.361.464.382 2.056.291 1.647-.093 1.726-.117 2.152-.651.32-.402.47-.853.542-1.64.128-1.386.728-2.329 2.106-3.31l1.031-.734.254.402c.14.221.442.868.672 1.437.384.95.4 1.106.193 1.923-.123.489-.172 1.058-.107 1.265.066.21-.021.768-.196 1.262l-.314.886.418.452c.476.514.804.577.953.183.135-.356.467-.346.467.015 0 .382.347.242.747-.301.306-.416.309-.494.047-1.246-.154-.442-.244-.942-.2-1.113.043-.17 0-.655-.097-1.078-.221-.965-.21-2.095.034-3.284.171-.836.147-1.017-.252-1.89-.243-.533-.408-1.002-.368-1.043.041-.041.376.046.745.193 1.717.685 3.058.529 3.872-.45l.483-.581-1.045-.09c-1.188-.104-1.243-.13-2.497-1.245-.883-.785-.916-.846-.821-1.549.056-.414-.032-1.325-.202-2.102-.277-1.264-.278-1.447-.02-2.352.155-.54.282-1.218.282-1.508 0-.868-.477-2.208-1.038-2.917-.29-.365-.613-.99-.718-1.387a5.528 5.528 0 00-.627-1.373c-.41-.613-.42-.686-.177-1.276.142-.345.258-1.071.258-1.614 0-.858-.075-1.075-.575-1.653-1.084-1.253-1.592-1.368-6.77-1.523-5.98-.179-6.92-.406-5.992-1.448.38-.426 1-.415 2.29.041 1.41.498 3.134.622 4.144.297.867-.278.882-.263-.62-.58-.243-.051-.443-.183-.443-.293 0-.134.276-.162.841-.086 2.315.312 2.7.335 2.7.16 0-.291-1.555-.89-3.176-1.224-2.608-.536-5.122-.091-6.312 1.116-.73.742-.814 1.53-.204 1.933.766.507 2.027.663 6.529.806 4.116.13 4.61.18 5.326.53.88.433 1.262.998 1.239 1.83-.02.691-.476 1.429-.884 1.429-.69 0-2.977-.582-4.597-1.17-.95-.344-1.887-.626-2.081-.626-.44.002-.957.345-2.487 1.656a17.195 17.195 0 01-2.61 1.773c-2.51 1.325-3.285 2.379-3.633 4.942-.19 1.388-.424 1.943-1.503 3.562-.896 1.343-1.53 3.149-1.536 4.369-.002.59-.21 1.533-.553 2.515-.454 1.3-.556 1.882-.588 3.368-.035 1.54-.104 1.915-.491 2.634-.279.517-.499 1.29-.576 2.023-.114 1.08-.203 1.277-.995 2.217-.478.566-.87 1.128-.87 1.248-.001.12-.242.496-.536.836-.676.78-1.007 1.676-.726 1.961.15.152.27.103.475-.193.388-.563.61-.495.433.132-.101.36-.083.558.057.62.267.118 1.274-.04 1.798-.282zm13.55-37.687c-.497-.319-.023-.402.736-.13l.764.275-.62.011c-.34.007-.737-.064-.88-.156zm-25.54-.219c1.371-.507 1.46-.572 1.46-1.062 0-.287-.027-.522-.06-.522-.034 0-.525.162-1.09.36-.567.197-1.057.359-1.09.359-.034 0-.061-1.415-.061-3.144S6.7 8.573 6.666 8.573a5.98 5.98 0 00-.62.197l-.557.198v3.774c0 3.522.02 3.765.31 3.65.17-.07.966-.369 1.77-.666zm49.964-3.003V8.968l-.557-.198a6.036 6.036 0 00-.62-.197c-.034 0-.062 1.686-.062 3.747v3.746l.575.188c.208.066.414.135.62.205.024.01.044-1.671.044-3.736zm-2.696-1.038L54.79 7.97l-.486-.132-.487-.132-.003 2.005c-.003 2.299-.021 2.292-1.081-.42-.777-1.986-1.03-2.334-1.694-2.334h-.409v3.682c0 2.825.052 3.683.221 3.685.122.002.398.05.614.11.388.105.394.08.443-2.081l.05-2.188.968 2.45c.533 1.349 1.09 2.524 1.24 2.612.703.419.722.319.672-3.542zm-44.192 3.067c.062-.036.167-.51.234-1.054.137-1.109.125-1.095 1.006-1.262l.641-.122.215.906c.21.89.225.904.773.799.308-.06.592-.136.632-.17.089-.078-1.59-6.76-1.737-6.912-.058-.06-.35-.042-.648.041-.538.15-.547.174-1.203 3.074-.298 1.323-.6 2.645-.905 3.966l-.244 1.045.562-.123c.31-.067.613-.151.675-.188zm.768-3.645c.058-.188.168-.693.243-1.123l.137-.782.234.963c.196.811.194.989-.01 1.12-.428.275-.72.189-.604-.178zm37.977-.816c0-2.02-.06-3.707-.133-3.748-.073-.042-.351-.129-.62-.194l-.486-.118v7.528l.487.075c.268.04.546.087.62.101.072.015.132-1.625.132-3.645zm-33.428 3.221c.173-.067.22-.418.179-1.308-.032-.669-.032-1.537 0-1.93.053-.66.107-.563.746 1.34l.689 2.052.639-2.301.639-2.302.05 2.018c.043 1.734.088 2.002.324 1.91a2.05 2.05 0 01.614-.106c.324 0 .34-.173.34-3.736V5.412l-.605.072c-.592.07-.614.103-1.072 1.625-.258.855-.572 1.877-.7 2.273l-.23.718-.577-1.886c-.317-1.037-.638-1.955-.715-2.039-.076-.084-.385-.098-.687-.03l-.548.122v3.668c0 3.496.016 3.668.34 3.668.186 0 .445-.041.575-.091zm30.732-3.816l-.048-3.727-.486-.057-.487-.057v2.902l-.753-.107c-1.234-.175-1.195-.12-1.195-1.688 0-1.033-.062-1.443-.22-1.445a3.232 3.232 0 01-.62-.11l-.399-.11v7.548l.62.073.62.074v-1.67c0-1.851-.058-1.781 1.283-1.556l.664.111v1.67c0 1.44.042 1.681.31 1.752.78.208.761.303.711-3.603zm-22.28 2.587c.727-.353 1.14-1.096 1.154-2.083.01-.691-.075-.987-.37-1.285-.378-.385-.379-.392-.044-.949.406-.676.43-1.385.072-2.09-.334-.655-1.189-.893-2.655-.738l-1.062.112-.048 3.746-.047 3.746 1.287-.126c.707-.07 1.478-.22 1.713-.333zm-1.754-1.881c0-.935.046-1.08.373-1.167.99-.263 1.709.732 1.197 1.661-.189.344-.421.476-.912.518l-.658.055v-1.067zm0-3.18v-.984h.584c.708 0 1.009.272 1.009.912 0 .571-.241.795-1.018.944l-.575.111V7.22zm17.994 5.033c.469-.312.768-1.274.77-2.475 0-.944-.015-.957-1.283-1.08l-.841-.082v.606c0 .528.058.607.442.607.358 0 .443.089.443.46 0 1.065-.843 1.539-1.476.83-.868-.973-.674-4.68.26-4.98.39-.126 1.039.345 1.039.754 0 .156.218.241.62.241.702 0 .781-.238.354-1.075-.374-.735-.94-1.08-1.771-1.08-1.52 0-2.207 1.15-2.2 3.682.003 1.674.256 2.731.797 3.338.626.702 1.99.823 2.846.254zm-10.95-.19c.217-.155.569-.62.781-1.034.555-1.08.566-3.795.02-5.005-.372-.824-1.094-1.405-1.747-1.405-.618 0-1.452.579-1.838 1.275-.823 1.486-.662 4.774.29 5.921.37.447.567.529 1.268.529.467 0 1.003-.123 1.225-.282zm-1.685-1.283c-.23-.354-.328-.926-.367-2.11-.045-1.391 0-1.712.314-2.221.459-.744 1.033-.721 1.419.056.399.805.368 3.632-.047 4.275-.4.62-.919.62-1.32 0zm5.085-.11c0-1.518.016-1.582.379-1.527.301.045.49.378.925 1.629l.547 1.572h1.324l-.582-1.693-.581-1.694.475-.455c.58-.556.76-1.365.513-2.298-.276-1.04-.97-1.403-2.684-1.404L32.056 4.8l-.052 3.698c-.028 2.034-.038 3.711-.021 3.727.016.017.275.03.575.03h.546v-1.584zm.133-2.742c-.073-.074-.133-.577-.133-1.117v-.981l.746.101c1.06.144 1.509.887.98 1.622-.24.331-1.374.599-1.593.375zM.028 12.884c0-.246.04-.348.09-.224a.707.707 0 010 .45c-.05.123-.09.021-.09-.225zm.026-1.616c0-.543.033-.766.073-.494.04.272.04.716 0 .988s-.073.05-.073-.494z" fill="#5C4B21"/><path d="M29.803 68.284c-4.35-3.153-9.78-8.275-12.832-12.107-9.218-11.573-13.584-24.6-14.239-42.484-.174-4.753.067-5.337 2.66-6.438 6.777-2.88 15.493-4.32 26.118-4.315 8.01.003 13.603.631 19.738 2.217 2.78.719 6.674 2.09 7.658 2.698.736.453 1.239 1.294 1.395 2.329.156 1.032-.198 8.31-.56 11.503-1.865 16.498-7.836 29.266-18.68 39.945-3.483 3.43-8.76 7.658-9.556 7.658-.171 0-.937-.452-1.702-1.006zM19.596 53.67c.417-.258.598-.53.69-1.032.067-.375.27-.875.451-1.11.24-.313.329-.732.329-1.553 0-1.048.048-1.182.713-1.997.49-.598.846-1.308 1.135-2.259.232-.762.578-1.611.769-1.886.191-.275.598-1.005.904-1.622.305-.618.625-1.123.709-1.123.376 0 .623.628.586 1.49-.047 1.101.078 1.564.423 1.564.223 0 .222.07-.012.53-.149.291-.27.63-.27.751 0 .55-.784 1.79-1.357 2.15a7.692 7.692 0 00-1.019.77c-.252.24-.512.47-.78.692-.359.291-.476.793-.39 1.663.052.519.317.744.572.485.334-.339.527-.252.318.144-.171.326-.134.36.392.359.667-.001 1.733-.593 1.733-.962 0-.248 1.252-2.779 1.69-3.415.127-.184.477-.487.777-.672.3-.186.682-.641.847-1.012.397-.895.921-1.483 1.32-1.483.177 0 .322.042.322.094 0 .304-1.088 2.213-1.311 2.3-.331.128-1.219 1.866-1.074 2.103.139.228.615.223.615-.007 0-.098.077-.18.171-.18.095 0 .123.13.063.288-.155.41.235.587.939.426.921-.21 1.482-.655 1.482-1.173 0-.25.17-.687.38-.973.29-.398.354-.673.274-1.173-.102-.64.149-1.526.432-1.526.205 0 .61.85.86 1.796.346 1.322.482 1.398 2.5 1.398 1.341 0 1.823-.064 1.982-.263.116-.144.364-.432.551-.64.244-.27.349-.672.369-1.407.024-.858.128-1.169.633-1.881.757-1.07 2.232-2.147 2.56-1.87.125.104.439.728.698 1.385.427 1.081.451 1.265.26 1.961-.117.423-.17.993-.119 1.267.052.275-.018.772-.155 1.105-.352.856-.313 1.233.185 1.738.539.547.772.556.97.036l.154-.404.167.44.167.44.47-.476c.53-.538.587-1 .214-1.732-.141-.277-.21-.68-.155-.897.056-.217 0-.881-.124-1.477-.184-.878-.184-1.36 0-2.556.213-1.396.205-1.51-.151-2.186-.57-1.077-.503-1.18.51-.79 1.533.591 3.145.345 3.781-.577.446-.645.372-.885-.236-.762-.94.191-1.69-.087-2.735-1.015l-1.006-.893-.09-1.574c-.096-1.651-.1-2.612-.026-5.226.045-1.582.042-1.592-.656-2.65-.386-.584-.833-1.449-.993-1.922-.16-.472-.468-1.05-.684-1.284-.375-.404-.38-.45-.111-.979.844-1.656.34-3.291-1.302-4.218l-.958-.541-4.53-.143c-5.744-.181-6.827-.392-6.379-1.243.294-.558.923-.58 2.459-.087 1.558.499 3.27.607 4.233.266.648-.23.577-.522-.127-.522-.268 0-.641-.125-.83-.279-.322-.26-.3-.272.364-.182 2.167.293 2.92.324 2.92.12 0-.116-.338-.357-.752-.535-2.562-1.106-5.81-1.227-7.669-.284-.943.478-1.846 1.413-1.846 1.914 0 .33.864 1.02 1.527 1.219.378.112 2.757.283 5.289.38 4.969.188 5.803.341 6.46 1.189a1.715 1.715 0 01-.047 2.122l-.403.475-1.38-.289c-.758-.159-2.07-.54-2.916-.848-2.651-.965-2.665-.963-4.766.819-.71.602-2.102 1.545-3.093 2.094-2.52 1.398-3.03 2.204-3.42 5.415-.073.601-.363 1.25-1.006 2.246-1.356 2.102-1.738 3.073-1.916 4.86a15.03 15.03 0 01-.692 3.097c-.446 1.27-.536 1.801-.538 3.166-.002 1.395-.066 1.756-.43 2.425a5.689 5.689 0 00-.541 1.684c-.19 1.523-.252 1.674-1.054 2.59-.428.489-.836 1.076-.907 1.305-.07.229-.355.68-.632 1.003-.563.655-.787 1.319-.604 1.793.106.275.177.247.567-.224l.445-.539-.113.673-.113.674h.76c.442 0 .999-.148 1.327-.35zm13.589-37.743c-.184-.302-.04-.317.627-.068l.62.232-.566.014c-.31.007-.617-.073-.681-.178zM6.082 31.342c-.829-4.312-1.374-9.206-1.648-14.775-.288-5.858-.295-5.925-.625-6.438-.17-.263-.38-.478-.466-.478-.512 0 .156 10.19 1.014 15.449.492 3.015 1.595 7.545 1.838 7.545.075 0 .024-.587-.113-1.303zm3.123-16.706c0-.37-.027-.673-.06-.673-.034 0-.525.162-1.092.36-.567.197-1.071.317-1.121.266-.05-.05-.127-1.425-.171-3.054-.044-1.629-.144-2.962-.223-2.962-.078 0-.347.08-.596.175l-.455.176v7.716l1.859-.665 1.858-.665v-.674zm48.198-5.723c-.074-.074-.355-.19-.622-.257l-.487-.122v7.583l.575.238.575.238.048-3.772c.026-2.075-.013-3.834-.088-3.908zm-2.348 2.904c0-2.069-.06-3.797-.133-3.84-.073-.045-.4-.138-.725-.21l-.593-.128.061 1.815c.034.998.022 1.814-.027 1.813-.049 0-.428-.87-.843-1.931-.924-2.364-.886-2.306-1.59-2.461l-.576-.127v3.776c0 2.077.06 3.81.133 3.852.073.042.351.129.62.194l.486.118v-2.105c0-1.158.067-2.029.148-1.935.08.094.533 1.169 1.004 2.389.833 2.158 1.073 2.493 1.813 2.53.17.01.222-.854.222-3.75zm-44.82 3.208c.492-.174.574-.308.754-1.24.185-.954.248-1.052.736-1.151.8-.163.804-.16.925.569.174 1.045.278 1.138 1.033.926.36-.1.656-.226.656-.279 0-.052-.308-1.24-.684-2.641-.377-1.4-.79-2.973-.92-3.495-.232-.93-.248-.948-.777-.835-.297.063-.598.169-.668.235-.128.12-1.905 7.462-1.907 7.88-.001.276.144.281.852.03zm1.34-4.15c.06-.303.109-.678.109-.833 0-.454.295-.006.41.623.087.468.041.582-.261.662-.327.087-.354.038-.258-.452zm48.42.662c.012-1.294-.11-2.066-.325-2.066-.067 0-.266.107-.44.237-.305.226-.306.32-.018 2.2.166 1.08.346 2.086.402 2.234.146.39.369-1.134.382-2.605zM49.39 10.302v-3.84l-.56-.113c-.307-.062-.575-.093-.595-.067-.02.025-.088 1.715-.152 3.755l-.117 3.708.668.18c.367.1.687.189.712.199.024.01.044-1.71.044-3.822zM15.888 13.67c.377-.102.4-.203.415-1.838l.017-1.731.575 1.753c.317.965.619 1.798.672 1.851.052.054.257-.452.454-1.125l.621-2.12.263-.898.018 1.813.019 1.813.664-.11.664-.111-.067-3.768c-.037-2.073-.088-3.793-.113-3.824-.026-.03-.312.015-.636.1-.574.15-.604.207-1.206 2.28L17.63 9.88l-.643-1.956c-.635-1.93-.65-1.954-1.159-1.894-.283.033-.57.114-.638.18-.067.065-.147 1.796-.177 3.846-.059 4.027-.095 3.878.875 3.614zm31.024-3.828c0-2.069-.06-3.798-.133-3.844-.073-.045-.372-.11-.664-.145l-.531-.063-.052 1.392c-.05 1.382-.055 1.392-.53 1.39-1.196-.006-1.258-.086-1.314-1.679l-.051-1.463-.575-.056-.576-.056v3.765c0 4.026-.01 3.982.893 3.982.299 0 .338-.173.384-1.661l.05-1.661.709.062c.39.034.768.099.84.145.074.045.134.84.134 1.767v1.685l.575.072c.316.04.635.086.708.102.073.015.133-1.665.133-3.734zm-22.53 2.582c1.158-.477 1.654-2.248.954-3.412-.285-.475-.297-.597-.087-.888.332-.46.308-1.89-.04-2.396-.429-.62-1.064-.784-2.502-.647l-1.287.122v7.692l1.195-.118c.657-.065 1.452-.224 1.766-.353zm-1.65-1.225c-.053-.136-.07-.601-.04-1.032.05-.71.103-.79.553-.842.695-.081 1.008.251 1.008 1.072 0 .587-.074.73-.455.876-.627.242-.956.22-1.067-.074zm-.073-3.952c0-.685.057-.804.429-.899.597-.152.972.035 1.098.547.143.576-.363 1.14-1.023 1.14-.477 0-.504-.041-.504-.788zM40.433 12.5c.641-.296.991-1.192.991-2.537V8.802l-.822-.115c-1.29-.179-1.302-.173-1.302.515 0 .51.067.629.354.629.514 0 .52 1.359.006 1.524-.9.29-1.42-.714-1.422-2.743 0-1.507.357-2.374.98-2.374.358 0 .514.128.671.55.19.51.252.543.826.434.341-.065.645-.142.675-.172.03-.03-.06-.333-.2-.673-.777-1.886-3.071-2.03-3.851-.24-.47 1.08-.614 2.81-.341 4.142.298 1.458 1.205 2.426 2.273 2.426.396 0 .919-.092 1.162-.205zm-10.767-.313c.79-.489 1.187-1.478 1.277-3.18.146-2.743-.714-4.386-2.296-4.386-.57 0-.83.12-1.298.595-.782.793-1.025 1.801-.942 3.9.054 1.37.145 1.838.458 2.351.649 1.065 1.775 1.355 2.8.72zm-1.413-1.197c-.908-.921-.748-4.643.216-5.019 1.127-.438 1.66 3.806.625 4.968-.358.4-.489.409-.841.051zm8.037 1.39c0-.08-.237-.86-.528-1.732l-.528-1.585.547-.633c.498-.575.54-.72.47-1.594-.133-1.617-1.013-2.212-3.28-2.214h-1.107v7.724h1.416v-1.617c0-2.156.295-2.158 1.059-.01.502 1.413.627 1.615 1.04 1.68.837.13.911.129.911-.02zm-3.01-5.467v-.962l.614.073c.772.091 1.02.39.948 1.145-.053.562-.1.6-.809.651l-.752.055v-.962zM4.773 8.528c.013-.237-.608-.144-1.028.155l-.406.288.403.436.404.436.31-.59c.17-.325.313-.65.317-.725z" fill="#282928"/><path d="M28.85 67.427c-12.446-9.5-20.143-21.164-23.712-35.932-1.435-5.94-2.305-13.277-2.305-19.439 0-3.363.237-3.733 3.144-4.905 9.34-3.765 23.2-5.09 36.686-3.51 6.826.801 15.462 3.304 16.822 4.875.552.638.68 1 .306.864-.122-.045-.404.061-.627.236-.405.317-.406.322-.15 1.838.142.837.314 2.39.383 3.452.07 1.062.186 1.93.259 1.93.234 0 .35-1.277.392-4.31l.04-2.965.063 2.426c.116 4.554-.547 11.326-1.645 16.807-2.05 10.223-6.03 19.057-12.056 26.755-3.8 4.855-13.41 13.562-14.967 13.562-.262 0-1.273-.646-2.633-1.684zm4.27.223c2.31-1.514 4.569-3.44 7.175-6.117 3.573-3.672 5.644-6.123 6.36-7.528.218-.429.208-.512-.1-.795-.335-.307-.416-.245-2.782 2.126-2.958 2.964-5.004 4.639-5.004 4.098 0-.321-2.292-1.64-3.66-2.105-2.443-.833-5.096-.757-7.263.207l-.92.41-.295-1.02c-.833-2.877-1.3-6.702-.856-6.997.107-.07.416-.634.688-1.25a4.995 4.995 0 011.414-1.92c.557-.483.985-1.027 1.084-1.376.168-.592.95-1.335 1.285-1.218.288.102-.347 1.386-1.153 2.33-.387.454-.81 1.086-.94 1.404-.204.502-.198.615.05.867.262.266.296.262.416-.057.12-.314.141-.305.236.103.136.588.663.656 1.65.213.687-.308.79-.432.89-1.066.062-.394.239-.823.393-.953.188-.159.265-.475.236-.966-.047-.766.149-1.719.353-1.719.213 0 .691.97.819 1.663.069.372.28.877.472 1.123.33.425.438.448 2.172.448h1.825l.503-.67c.39-.52.51-.882.532-1.61.037-1.276.684-2.355 1.969-3.288l1.009-.733.288.387c.158.213.457.864.664 1.448.293.828.336 1.166.196 1.54-.1.265-.21.97-.247 1.569a18.82 18.82 0 01-.185 1.735c-.102.563-.055.697.365 1.032.61.487.762.484.96-.018.117-.293.164-.32.172-.1.02.512.37.562.835.118.379-.36.428-.529.338-1.14-.09-.63-.176-1.258-.258-1.887-.084-.642-.212-1.312-.284-1.489-.072-.176-.03-1.066.093-1.977.213-1.579.206-1.691-.156-2.411-.519-1.033-.485-1.193.18-.844.768.402 2.477.54 3.158.254.578-.243 1.24-.97 1.24-1.363 0-.176-.215-.212-.842-.139-.698.081-.935.027-1.399-.323-.307-.23-.886-.663-1.286-.96-.693-.512-.724-.574-.63-1.278.056-.42-.027-1.303-.193-2.044-.161-.718-.245-1.557-.186-1.865.058-.308.184-.949.28-1.423.243-1.19-.046-2.408-.872-3.676-.368-.567-.77-1.354-.894-1.75-.123-.394-.379-.94-.567-1.214-.33-.477-.332-.53-.043-1.412.568-1.737-.018-3.15-1.64-3.952-.788-.39-1.142-.427-5.183-.546-3.885-.114-5.906-.307-6.387-.608-.329-.206-.157-.81.29-1.017.38-.176.7-.126 1.992.31 1.646.556 3.379.67 4.337.287.637-.255.494-.482-.395-.626-.386-.063-.75-.195-.811-.293-.15-.248.227-.225 1.582.094 1.095.258 2.047.215 2.047-.091 0-.198-1.495-.821-2.77-1.155-1.438-.377-4.007-.371-5.174.011-1.076.353-2.236 1.305-2.4 1.97-.15.6.347 1.179 1.276 1.49.373.125 2.814.32 5.616.448 5.268.242 5.749.334 6.363 1.224.404.586.345 1.476-.134 2.042-.403.474-.43.48-1.372.268-.53-.119-2-.559-3.27-.978-1.789-.59-2.426-.729-2.832-.615-.289.08-1.122.67-1.852 1.31-.735.645-2.101 1.578-3.06 2.09-2.44 1.305-3.188 2.32-3.49 4.734-.17 1.358-.464 2.06-1.695 4.04-.84 1.352-1.315 2.721-1.315 3.793 0 .552-.24 1.629-.62 2.78-.522 1.586-.619 2.129-.619 3.477 0 1.351-.068 1.731-.442 2.467-.243.478-.487 1.274-.542 1.768-.166 1.48-.206 1.575-1.133 2.687-.49.589-.892 1.215-.892 1.392 0 .177-.077.322-.17.322-.297 0-1.07 1.32-1.07 1.828 0 .678.34.821.732.309l.328-.43-.11.584c-.094.507-.06.584.26.584.255 0 .518.264.849.853 1.873 3.329 6.007 8.218 9.094 10.757 1.558 1.28 3.696 2.76 3.989 2.76.113 0 .716-.334 1.339-.742zM21.06 51.073c.098-.26.168-.869.157-1.355-.016-.728.075-1.007.51-1.57.674-.87 1.018-1.555 1.285-2.563.229-.862 2.074-4.497 2.283-4.497.37 0 .551.541.551 1.643 0 .91.069 1.252.275 1.369.45.256-.193 2.086-1.02 2.9-1.07 1.054-1.611 1.525-2.126 1.853-.351.223-.519.512-.6 1.033-.064.397-.178.723-.256.723-.077 0-.386.21-.688.467l-.547.467.177-.47zm12.221-35.134c-.22-.144-.204-.173.089-.165.194.006.513.08.708.164.324.142.316.156-.089.165-.243.005-.562-.069-.708-.164zM8.21 38.797c-.331-1.062-.957-3.386-1.39-5.164-1.484-6.094-1.98-10.2-2.492-20.594-.087-1.767-.186-2.395-.446-2.83-.394-.656-.69-.72-.707-.154-.226 7.375.972 16.756 3.014 23.603.887 2.973 2.335 7.07 2.499 7.07.069 0-.146-.869-.478-1.93zm5.51-10.548c3.445-.92 6.659-3.611 8.16-6.832.185-.395.342-.759.35-.808.007-.05.164-.575.348-1.168.248-.799.336-1.635.341-3.233.008-2.417-.122-3.133-.572-3.166-.168-.012.15-.09.707-.172 1.922-.286 2.616-.99 2.616-2.651 0-.608-.107-1.02-.34-1.312-.318-.397-.32-.445-.044-.757.193-.217.296-.645.296-1.227 0-.783-.072-.96-.578-1.418-.61-.553-1.4-.664-2.919-.41l-.663.112v2.387c0 1.313-.049 2.515-.108 2.67-.059.157-.298.285-.53.285h-.425V7.944c0-2.582-.003-2.605-.398-2.602-1.032.006-1.107.106-1.732 2.29l-.597 2.087-.622-1.921-.622-1.921-.626.114c-.343.063-.684.149-.758.191-.073.042-.132 1.195-.132 2.562v2.485l-.469.119c-.257.065-.524.054-.593-.026-.07-.08-.373-1.104-.675-2.276-.301-1.173-.583-2.169-.627-2.213-.043-.044-.36-.026-.705.04l-.627.119-.465 2.003c-.842 3.623-.678 3.286-1.728 3.535-.51.121-1.186.327-1.503.458l-.575.237V10.79c0-2.154-.033-2.422-.282-2.325-.155.06-.478.16-.717.22l-.435.111.068 4.066c.075 4.483.302 6.106 1.436 10.283.866 3.188 1.647 5.174 2.116 5.381.529.235 3.348.065 4.63-.277zm-2.142-17.265c.059-.157.107-.456.107-.665 0-.49.271-.2.423.455.098.42.06.494-.261.494-.271 0-.347-.08-.27-.284zm11.26-.594c0-.747.056-.892.382-.978.616-.164 1.034.176 1.034.838 0 .719-.27 1.018-.92 1.018-.476 0-.496-.036-.496-.878zm-6.432.578c-.065-.066-.116-.248-.113-.404.005-.233.039-.226.193.043.191.333.136.58-.08.361zm2.388-.598c0-.247.04-.348.09-.225a.7.7 0 010 .449c-.05.124-.09.023-.09-.224zm4.044-3.144c0-.804.003-.808.62-.808.621 0 .72.142.627.898-.042.349-.52.718-.927.718-.262 0-.32-.148-.32-.808zm34.155 16.268c.498-1.257 1.253-5.82 1.244-7.51-.004-.643-.136-1.305-.349-1.752-.283-.595-.343-1.122-.348-3.069l-.006-2.35-.614-.191-.614-.191-.05 2.182c-.047 2.066-.068 2.179-.403 2.128-.798-.12-.797-.115-.797-2.523V7.9l-.553-.113a6.091 6.091 0 00-.708-.112c-.085 0-.158.788-.162 1.752l-.007 1.751-.807-1.976c-.443-1.087-.858-2.028-.922-2.092-.064-.063-.375-.17-.691-.239l-.576-.123v2.35c0 2.332-.002 2.35-.407 2.35-.742 0-.832-.295-.832-2.71 0-2.212-.011-2.282-.398-2.387-1.036-.282-1.018-.324-1.018 2.333v2.446l-.398-.109a3.436 3.436 0 00-.531-.11c-.074-.002-.133-1.124-.133-2.495V5.924l-.553-.113a6.069 6.069 0 00-.708-.112c-.086 0-.155.647-.155 1.437 0 1.55.01 1.538-1.034 1.326l-.546-.11-.05-1.461-.052-1.462-.664-.055-.664-.056v7.707l.625.074c.344.04.663.036.708-.01.046-.047.083-.799.083-1.672 0-1.715-.018-1.689 1.04-1.474l.554.112.01 1.37c.013 1.521.26 4.943.397 5.501.685 2.783 2.883 5.355 5.458 6.388 1.364.547 2.165.682 3.908.66 1.48-.02 1.549-.039 1.723-.48zm-4.848-11.732c-.185-.618-.228-1.024-.1-.944.239.15.536 1.168.341 1.168-.096 0-.204-.1-.24-.224zm-11.473.662c.57-.38.753-.966.753-2.404 0-1.365-.075-1.44-1.46-1.444-.657-.003-.664.005-.664.716 0 .599.059.718.354.718.272 0 .354.12.354.517 0 .757-.412 1.041-.97.67-.559-.371-.712-.937-.712-2.632 0-2.056.788-3.012 1.47-1.783.257.466.39.537.92.494.556-.045.616-.1.586-.546-.079-1.168-1.471-2.148-2.633-1.853-.695.178-1.416 1.042-1.648 1.974-.433 1.744-.109 4.16.697 5.198.638.825 2.013.999 2.953.375zm-10.786-.347c.742-.635 1.12-1.727 1.148-3.32.045-2.632-.78-4.136-2.266-4.136-1.567 0-2.475 1.483-2.475 4.042 0 1.665.401 2.946 1.097 3.5.66.528 1.823.488 2.496-.086zm-1.76-1.285c-.16-.195-.26-.89-.293-2.021-.055-1.907.15-2.584.81-2.68.65-.095.977.964.888 2.868-.076 1.605-.285 2.13-.852 2.13-.17 0-.42-.134-.553-.297zm5.118.072c.069-2.1.358-2.09 1.11.044l.57 1.617h.772c.425 0 .77-.02.766-.045-.003-.024-.268-.8-.588-1.725l-.582-1.68.5-.506c.415-.422.5-.66.5-1.411 0-1.862-.61-2.393-2.877-2.505l-1.55-.076v3.869c0 4.123-.006 4.093.886 4.024.431-.034.444-.074.493-1.606zm.038-3.907c0-.897.001-.899.584-.899.704 0 1.01.272 1.01.899 0 .626-.306.898-1.01.898-.583 0-.584-.002-.584-.898zM4.426 9.592c0-.12.202-.519.45-.888.359-.537.393-.67.169-.67-.307 0-1.681.67-1.681.82 0 .05.172.329.382.617.37.51.68.564.68.121zm10.306-4.156c7.411-1.213 14.756-1.594 22.532-1.168 3.178.174 8.566.705 10.71 1.056.93.152 1.232.128 1.027-.08-.151-.154-4.307-.939-6.515-1.23-4.141-.548-7.419-.695-13.355-.601-6.178.098-8.788.327-12.844 1.128-3.005.593-5.537 1.337-4.55 1.337.16 0 1.507-.199 2.995-.442z" fill="#040404"/></g><defs><clipPath id="clip0_1_159"><path fill="#fff" d="M0 0h63v72H0z"/></clipPath></defs></svg>