<?xml version="1.0" encoding="utf-8"?><svg viewBox="0 0 135 44" xmlns="http://www.w3.org/2000/svg" xmlns:xlink="http://www.w3.org/1999/xlink"><style>:root>svg{display:none}:root>svg:target{display:block}</style><svg viewBox="0 0 120 40" id="icon-appstore" xmlns="http://www.w3.org/2000/svg"><rect x=".5" y=".5" width="119" height="39" rx="6.5"/><rect x=".5" y=".5" width="119" height="39" rx="6.5"/><path d="M81.526 19.201v2.291H80.09v1.502h1.436V28.1c0 1.744.788 2.44 2.772 2.44.349 0 .681-.04.971-.09v-1.486c-.249.025-.406.041-.68.041-.888 0-1.278-.415-1.278-1.361v-4.649h1.958v-1.502H83.31v-2.291h-1.784ZM90.323 30.664c2.64 0 4.259-1.768 4.259-4.698 0-2.914-1.627-4.69-4.259-4.69-2.64 0-4.266 1.776-4.266 4.69 0 2.93 1.618 4.698 4.266 4.698Zm0-1.585c-1.552 0-2.423-1.137-2.423-3.113 0-1.959.871-3.104 2.423-3.104 1.544 0 2.424 1.145 2.424 3.104 0 1.967-.88 3.113-2.424 3.113ZM95.967 30.49h1.784v-5.337c0-1.27.955-2.125 2.308-2.125.315 0 .847.058.996.108v-1.76c-.191-.05-.531-.075-.797-.075-1.179 0-2.183.648-2.44 1.536h-.133V21.45h-1.718v9.039ZM105.486 22.795c1.32 0 2.183.922 2.225 2.341h-4.566c.1-1.411 1.021-2.34 2.341-2.34Zm2.217 5.255c-.332.705-1.071 1.095-2.15 1.095-1.428 0-2.349-1.004-2.408-2.59v-.1h6.384v-.622c0-2.839-1.519-4.557-4.034-4.557-2.549 0-4.167 1.835-4.167 4.723 0 2.889 1.585 4.665 4.175 4.665 2.067 0 3.511-.996 3.918-2.614h-1.718ZM69.822 27.152c.138 2.22 1.988 3.64 4.74 3.64 2.943 0 4.784-1.49 4.784-3.864 0-1.867-1.05-2.9-3.596-3.493l-1.368-.335c-1.617-.379-2.271-.887-2.271-1.773 0-1.118 1.015-1.85 2.538-1.85 1.445 0 2.443.715 2.624 1.859h1.876c-.112-2.09-1.954-3.562-4.474-3.562-2.71 0-4.517 1.471-4.517 3.682 0 1.824 1.024 2.908 3.27 3.433l1.6.387c1.643.387 2.365.955 2.365 1.902 0 1.1-1.135 1.901-2.684 1.901-1.66 0-2.813-.748-2.977-1.927h-1.91ZM51.335 21.301c-1.229 0-2.291.614-2.839 1.644h-.133V21.45h-1.718v12.044h1.785V29.12h.14c.474.955 1.495 1.52 2.782 1.52 2.282 0 3.735-1.802 3.735-4.674 0-2.872-1.453-4.665-3.752-4.665Zm-.506 7.736c-1.495 0-2.432-1.178-2.432-3.063 0-1.892.938-3.07 2.44-3.07 1.51 0 2.415 1.153 2.415 3.062 0 1.918-.904 3.071-2.423 3.071ZM61.332 21.301c-1.229 0-2.291.614-2.84 1.644h-.132V21.45h-1.718v12.044h1.784V29.12h.142c.473.955 1.494 1.52 2.78 1.52 2.283 0 3.736-1.802 3.736-4.674 0-2.872-1.453-4.665-3.752-4.665Zm-.507 7.736c-1.494 0-2.432-1.178-2.432-3.063 0-1.892.938-3.07 2.44-3.07 1.511 0 2.416 1.153 2.416 3.062 0 1.918-.905 3.071-2.424 3.071ZM43.443 30.49h2.048l-4.483-12.415h-2.073L34.452 30.49h1.98l1.143-3.295h4.732l1.136 3.295Zm-3.57-10.16h.146l1.798 5.247h-3.751l1.806-5.248ZM35.651 8.71v5.99h2.162c1.785 0 2.819-1.1 2.819-3.013 0-1.885-1.042-2.976-2.819-2.976h-2.162Zm.93.848h1.129c1.24 0 1.975.788 1.975 2.141 0 1.374-.722 2.154-1.975 2.154h-1.13V9.558ZM43.797 14.787c1.32 0 2.129-.884 2.129-2.349 0-1.457-.814-2.345-2.13-2.345-1.32 0-2.133.888-2.133 2.345 0 1.465.81 2.35 2.134 2.35Zm0-.793c-.776 0-1.212-.568-1.212-1.556 0-.98.436-1.552 1.212-1.552.772 0 1.212.573 1.212 1.552 0 .984-.44 1.556-1.212 1.556ZM52.818 10.18h-.892l-.806 3.45h-.07l-.93-3.45h-.855l-.93 3.45h-.066l-.81-3.45h-.904L47.8 14.7h.917l.93-3.329h.07l.934 3.329h.926l1.241-4.52ZM53.846 14.7h.892v-2.644c0-.705.42-1.145 1.079-1.145.66 0 .975.36.975 1.087V14.7h.893v-2.926c0-1.075-.556-1.681-1.565-1.681-.68 0-1.129.303-1.349.805h-.066v-.718h-.86v4.52ZM59.09 14.7h.892V8.416h-.892V14.7ZM63.338 14.787c1.32 0 2.13-.884 2.13-2.349 0-1.457-.814-2.345-2.13-2.345-1.32 0-2.133.888-2.133 2.345 0 1.465.81 2.35 2.133 2.35Zm0-.793c-.776 0-1.212-.568-1.212-1.556 0-.98.436-1.552 1.212-1.552.772 0 1.212.573 1.212 1.552 0 .984-.44 1.556-1.212 1.556ZM68.126 14.023c-.485 0-.838-.236-.838-.643 0-.398.282-.61.905-.652l1.104-.07v.378c0 .56-.498.987-1.17.987Zm-.228.752c.594 0 1.087-.258 1.357-.71h.07v.635h.86v-3.088c0-.954-.64-1.519-1.772-1.519-1.025 0-1.756.498-1.847 1.274h.863c.1-.32.444-.502.942-.502.61 0 .926.27.926.747v.39l-1.225.07c-1.075.067-1.68.536-1.68 1.35 0 .826.634 1.353 1.506 1.353ZM73.213 14.775c.623 0 1.15-.295 1.42-.789h.07v.714h.855V8.416h-.892v2.482h-.067c-.245-.498-.768-.793-1.386-.793-1.141 0-1.876.905-1.876 2.333 0 1.432.726 2.337 1.876 2.337Zm.253-3.869c.747 0 1.216.594 1.216 1.536 0 .946-.465 1.532-1.216 1.532-.755 0-1.208-.577-1.208-1.536 0-.95.457-1.532 1.208-1.532ZM81.344 14.787c1.32 0 2.13-.884 2.13-2.349 0-1.457-.814-2.345-2.13-2.345-1.32 0-2.133.888-2.133 2.345 0 1.465.81 2.35 2.133 2.35Zm0-.793c-.776 0-1.212-.568-1.212-1.556 0-.98.436-1.552 1.212-1.552.772 0 1.212.573 1.212 1.552 0 .984-.44 1.556-1.212 1.556ZM84.655 14.7h.892v-2.644c0-.705.42-1.145 1.08-1.145.66 0 .975.36.975 1.087V14.7h.892v-2.926c0-1.075-.556-1.681-1.565-1.681-.68 0-1.129.303-1.349.805h-.066v-.718h-.86v4.52ZM92.604 9.055v1.146h-.718v.751h.718v2.553c0 .871.394 1.22 1.386 1.22.174 0 .34-.02.485-.046v-.743c-.124.013-.203.021-.34.021-.444 0-.64-.208-.64-.68v-2.325h.98v-.751h-.98V9.055h-.891ZM95.673 14.7h.893v-2.64c0-.684.406-1.145 1.137-1.145.63 0 .967.365.967 1.087V14.7h.892v-2.918c0-1.075-.593-1.685-1.556-1.685-.68 0-1.158.303-1.378.81h-.07v-2.49h-.885V14.7ZM102.781 10.852c.66 0 1.092.461 1.113 1.17h-2.283c.05-.705.51-1.17 1.17-1.17Zm1.108 2.628c-.166.352-.535.548-1.075.548-.713 0-1.174-.503-1.203-1.295v-.05h3.191v-.311c0-1.42-.759-2.279-2.017-2.279-1.274 0-2.083.917-2.083 2.362 0 1.444.793 2.332 2.087 2.332 1.034 0 1.756-.498 1.959-1.307h-.859ZM24.769 20.3a4.989 4.989 0 0 1 2.357-4.151 5.128 5.128 0 0 0-3.992-2.158c-1.679-.176-3.307 1.005-4.163 1.005-.872 0-2.19-.987-3.608-.958a5.359 5.359 0 0 0-4.473 2.728c-1.934 3.348-.491 8.27 1.361 10.976.927 1.325 2.01 2.805 3.428 2.753 1.387-.058 1.905-.885 3.58-.885 1.658 0 2.144.885 3.59.852 1.489-.024 2.426-1.332 3.32-2.67a10.96 10.96 0 0 0 1.52-3.092 4.824 4.824 0 0 1-2.92-4.4ZM22.037 12.211a4.872 4.872 0 0 0 1.115-3.49 4.957 4.957 0 0 0-3.208 1.66 4.678 4.678 0 0 0-1.143 3.36 4.148 4.148 0 0 0 3.236-1.53Z"/></svg><svg viewBox="0 0 14 14" id="icon-arrow_btn" xmlns="http://www.w3.org/2000/svg"><path d="M8.31 13.3c-.26 0-.5-.14-.61-.36L5.66 9.08a.59.59 0 0 1 .05-.66L9 4.2 4.53 7.31c-.2.13-.47.15-.7.05L-.25 5.43a.67.67 0 0 1-.38-.62c.02-.26.19-.49.45-.57L12.89-.31c.25-.09.53-.03.72.15.19.17.26.44.16.68L8.96 12.87c-.1.24-.34.41-.61.42-.01 0-.02.01-.04.01Z"/></svg><svg viewBox="0 0 44 44" id="icon-asia" xmlns="http://www.w3.org/2000/svg"><clipPath id="cb"><path transform="translate(0 -.97)" fill-opacity="0" d="M0 0h44v44H0z"/></clipPath><clipPath id="ca"><path transform="translate(0 -.97)" fill-opacity="0" d="M0 0h44v44H0z"/></clipPath><path fill="none" d="M0-.97h44v44H0z"/><g clip-path="url(#ca)"><path fill="none" d="M0-.97h44v44H0z"/><g clip-path="url(#cb)"><path d="M15.13 12.59h2.12c.55 0 1 .45 1 1v1.47a.644.644 0 0 0 1.29 0v-1.47c0-1.26-1.03-2.29-2.29-2.29h-2.12c-.55 0-.99-.44-.99-.98s.44-.98.99-.98h4.71a2.275 2.275 0 0 0 0-4.55h-3.77c-.36 0-.65.29-.65.65 0 .35.29.64.65.64h3.77c.54 0 .98.44.98.98 0 .55-.44.99-.98.99h-4.71c-1.26 0-2.28 1.02-2.28 2.27s1.02 2.27 2.28 2.27ZM7.38 16.92h2.11c.55 0 .99.44.99.98v1.46a.644.644 0 0 0 1.29 0V17.9c0-1.25-1.02-2.27-2.28-2.27H7.38c-.53 0-.97-.44-.97-.97 0-.54.44-.97.97-.97h2.47a.644.644 0 0 0 0-1.29H7.38c-1.24 0-2.26 1.01-2.26 2.26a2.27 2.27 0 0 0 2.26 2.26Z"/><path d="M26.29 25.19c0 .36-.29.65-.64.65-.36 0-.65-.29-.65-.65a.644.644 0 0 1 1.29 0ZM29.47 26.65c0 .36-.29.65-.64.65-.36 0-.65-.29-.65-.65a.644.644 0 0 1 1.29 0ZM31.36 28.89a.644.644 0 1 1-1.289-.009.644.644 0 0 1 1.289.009ZM28.7 23.65a.644.644 0 1 1-1.291-.009.644.644 0 0 1 1.291.009ZM26.55 29.32a.644.644 0 1 1-1.289-.009.644.644 0 0 1 1.289.009Z" fill-rule="evenodd"/><path d="M42.91 21.84h-1.83l.9-1.87A2.51 2.51 0 0 0 44 17.51c0-1.24-.92-2.27-2.11-2.47-1.31-2.37-3.88-4.14-7-4.86v-.04c0-.36-.29-.65-.64-.65-.3 0-.55.2-.62.47-.39-.05-.79-.08-1.2-.1a.632.632 0 0 0-.58-.37c-.26 0-.48.15-.58.37-.41.02-.81.05-1.2.1a.645.645 0 0 0-.62-.47c-.35 0-.64.29-.64.65v.04c-3.12.72-5.69 2.49-7 4.86-1.19.2-2.11 1.23-2.11 2.47 0 .08.01.15.01.22-2.97.28-5.65 1.52-7.65 3.38H8.01c-.28 0-.52.13-.69.32H5.43a2.108 2.108 0 0 0-4.07.77c0 .1.01.2.03.29A2.12 2.12 0 0 0 .32 25.6c-.21.33-.32.72-.32 1.12 0 1.16.94 2.11 2.1 2.11.88 0 1.65-.56 1.96-1.34h1.7c.08.29.29.52.59.62l2.02.69c-.02.21-.02.42-.02.63 0 .2 0 .39.01.59-.31.08-.61.21-.87.38-.43-.29-.95-.46-1.51-.46-1.5 0-2.72 1.22-2.72 2.72 0 .03.01.05.01.07h-.76c-.42 0-.8.24-.98.62-.18.39-.13.83.14 1.16l1.93 2.35c.21.25.52.4.85.4h27.26a.644.644 0 0 0 0-1.29H4.54l-1.6-1.95h39.54l-1.6 1.95h-6.17a.644.644 0 0 0 0 1.29h6.26c.33 0 .63-.15.84-.4l1.94-2.35c.27-.33.32-.77.14-1.16-.18-.38-.56-.62-.99-.62h-.63c.63-1.09.87-2.39.64-3.67a.663.663 0 0 0-.52-.52c-1.75-.32-3.54.24-4.79 1.5-.08.07-.15.15-.22.23-.37-.2-.79-.31-1.24-.32v-1.23h.69c1.09 0 1.98-.89 1.98-1.98v-.86h4.1c.6 0 1.09-.49 1.09-1.09v-1.87c0-.6-.49-1.08-1.09-1.08ZM6.29 32.73H4.56c-.01-.02-.01-.04-.01-.07 0-.79.64-1.43 1.43-1.43.23 0 .44.06.63.15-.21.38-.33.82-.33 1.28 0 .03 0 .05.01.07Zm32.22-1.78c.84-.85 2.01-1.28 3.19-1.2a4.11 4.11 0 0 1-1.01 2.98h-1.06l.88-.88c.25-.25.25-.66 0-.91a.646.646 0 0 0-.91 0l-.92.91c-.08-.26-.2-.5-.34-.71.05-.07.11-.13.17-.19ZM25.5 12.97c.97-.66 2.1-1.15 3.31-1.45v.66a.644.644 0 0 0 1.29 0v-.92c.36-.05.73-.09 1.1-.11v1.03c0 .35.29.64.65.64.36 0 .64-.29.64-.64v-1.03c.38.02.75.06 1.11.11v.92a.644.644 0 0 0 1.29 0v-.66c1.21.3 2.34.79 3.31 1.45.95.63 1.73 1.4 2.29 2.25-.22.1-.42.23-.6.38-.45-.37-1.02-.59-1.61-.59-.6 0-1.16.22-1.61.59a2.51 2.51 0 0 0-1.61-.59c-.59 0-1.16.22-1.6.59-.45-.37-1.02-.59-1.61-.59-.59 0-1.16.22-1.61.59-.44-.37-1.01-.59-1.6-.59-.6 0-1.17.22-1.61.59a2.53 2.53 0 0 0-1.61-.59c-.59 0-1.16.22-1.61.59-.18-.15-.38-.28-.6-.38.56-.85 1.34-1.62 2.29-2.25Zm-3.29 3.33c.43 0 .83.23 1.05.61.11.2.32.32.55.32.23 0 .45-.12.56-.32.22-.38.62-.61 1.05-.61.43 0 .83.23 1.05.61a.65.65 0 0 0 1.12 0c.21-.38.61-.61 1.05-.61.43 0 .83.23 1.04.61a.65.65 0 0 0 1.12 0c.22-.38.62-.61 1.05-.61.43 0 .83.23 1.05.61.11.2.33.32.56.32.23 0 .44-.12.55-.32.22-.38.62-.61 1.05-.61.43 0 .84.23 1.05.61a.65.65 0 0 0 1.12 0c.22-.38.62-.61 1.05-.61.43 0 .83.23 1.05.61.11.2.33.32.56.32.22 0 .44-.12.55-.32a1.216 1.216 0 0 1 2.27.6c0 .67-.55 1.22-1.22 1.22-.43 0-.83-.24-1.05-.61a.634.634 0 0 0-.55-.32c-.23 0-.45.12-.56.32-.22.37-.62.61-1.05.61-.43 0-.83-.24-1.05-.61a.65.65 0 0 0-1.12 0c-.21.37-.62.61-1.05.61-.43 0-.83-.24-1.05-.61a.622.622 0 0 0-.55-.32c-.23 0-.45.12-.56.32-.22.37-.62.61-1.05.61-.43 0-.83-.24-1.05-.61a.65.65 0 0 0-1.12 0c-.21.37-.61.61-1.04.61-.44 0-.84-.24-1.05-.61a.65.65 0 0 0-1.12 0c-.13.22-.32.39-.54.49-1.51-.6-3.18-.94-4.93-.94 0-.05-.01-.1-.01-.16 0-.67.55-1.21 1.22-1.21ZM8.39 22.4h2.47c-.26.32-.49.65-.71.99H8.39v-.99Zm-2.66 3.8H3.55a.65.65 0 0 0-.64.59c-.04.42-.39.75-.81.75-.45 0-.82-.37-.82-.82 0-.24.11-.47.3-.63.15-.12.23-.3.23-.49 0-.2-.08-.38-.23-.5a.811.811 0 0 1-.3-.63c0-.45.37-.81.82-.81.42 0 .77.33.81.74.03.34.31.59.64.59h2.18v1.21Zm.22-2.49H4.06c-.24-.6-.75-1.07-1.36-1.25a.751.751 0 0 1-.05-.26c0-.45.37-.82.82-.82.42 0 .77.33.81.75.03.33.31.59.64.59H7.1v.67h-.46a.89.89 0 0 0-.69.32Zm4.48 9.02H7.57v-.07a1.43 1.43 0 1 1 2.86 0v.07Zm19.88 0h-2.25v-.07a1.43 1.43 0 0 1 2.44-1.01c-.13.32-.2.66-.2 1.01 0 .03.01.05.01.07Zm-.82-2.79c-1.5 0-2.72 1.22-2.72 2.72v.07H11.72v-.07c0-1.27-.88-2.34-2.06-2.64-.02-.19-.02-.39-.02-.59v-.2l6.59 2.24c.45.15.9.22 1.35.22.85 0 1.68-.26 2.4-.78a4.09 4.09 0 0 0 1.74-3.37c0-.49-.09-.96-.25-1.41a.641.641 0 1 0-1.21.43c.11.32.17.64.17.98 0 .93-.44 1.78-1.2 2.32-.76.55-1.7.69-2.58.39l-9.63-3.27v-2.3h10.55c.32 0 .64.05.94.16.34.12.71-.06.82-.4.12-.33-.05-.7-.39-.82-.44-.15-.9-.23-1.37-.23h-5.85c2.06-2.68 5.44-4.43 9.26-4.43 6.25 0 11.34 4.7 11.34 10.47 0 .2-.01.41-.02.61-.39.11-.75.3-1.04.56-.48-.41-1.1-.66-1.77-.66Zm4.96 2.79H31.6c-.01-.02-.01-.04-.01-.07a1.43 1.43 0 1 1 2.86 0v.07Zm.4-2.49c-.1.06-.2.12-.29.18-.29-.2-.62-.34-.97-.41.01-.2.02-.39.02-.58 0-.24-.01-.48-.03-.71h1.27v1.52Zm2.67 2.42v.07h-1.78v-.07c0-.45-.11-.88-.31-1.26.19-.11.42-.17.66-.17.79 0 1.43.64 1.43 1.43Zm0-5.92c0 .38-.31.69-.69.69h-3.41c-.09-.53-.23-1.05-.4-1.55h4.5v.86Zm5.19-2.15H32.49c-.25-.51-.53-1-.85-1.47h2.73c.36 0 .64-.28.64-.64s-.28-.64-.64-.64h-3.76c-.61-.68-1.31-1.29-2.07-1.83.03.01.06.01.1.01.59 0 1.16-.22 1.6-.59.45.37 1.02.59 1.61.59.59 0 1.16-.22 1.61-.59.44.37 1.01.59 1.6.59.6 0 1.17-.22 1.61-.59.45.37 1.01.59 1.61.59.59 0 1.16-.22 1.61-.59.21.18.45.32.72.42l-.96 1.99h-2.27a.64.64 0 1 0 0 1.28h5.33v1.47Z"/></g></g></svg><svg viewBox="0 0 24 20" id="icon-before" xmlns="http://www.w3.org/2000/svg"><path d="M5.217 9.565c1.276.116 2.32.609 3.13 1.479.812.869 1.218 1.97 1.218 3.304 0 1.45-.435 2.637-1.304 3.565-.87.87-1.971 1.304-3.304 1.304-1.508 0-2.725-.55-3.653-1.652C.434 16.464 0 14.754 0 12.435 0 7.97 1.478 4.115 4.435.87c.58-.58 1.246-.87 2-.87.637 0 1.188.232 1.652.696.464.405.696.898.696 1.478 0 .638-.232 1.188-.696 1.652-1.507 1.565-2.464 3.478-2.87 5.74Zm14.435 0c1.275.116 2.319.609 3.13 1.479.812.869 1.218 1.97 1.218 3.304 0 1.45-.435 2.637-1.304 3.565-.87.87-1.971 1.304-3.305 1.304-1.507 0-2.724-.55-3.652-1.652-.87-1.101-1.304-2.811-1.304-5.13 0-4.464 1.478-8.32 4.435-11.565.58-.58 1.246-.87 2-.87.637 0 1.188.232 1.652.696.463.405.695.898.695 1.478 0 .638-.232 1.188-.695 1.652-1.507 1.565-2.464 3.478-2.87 5.74Z"/></svg><svg viewBox="0 0 44 44" id="icon-burger" xmlns="http://www.w3.org/2000/svg"><clipPath id="ea"><path transform="translate(0 -.97)" fill-opacity="0" d="M0 0h44v44H0z"/></clipPath><path fill="none" d="M0-.97h44v44H0z"/><g clip-path="url(#ea)"><path d="M44 19.36a3.86 3.86 0 0 0-2.61-3.65c-.23-5.24-2.19-9.27-5.82-11.97C32.25 1.28 27.68.02 22 .02c-5.69 0-10.26 1.26-13.58 3.72-3.63 2.7-5.59 6.73-5.82 11.97-1.52.52-2.6 1.96-2.6 3.65 0 .99.37 1.89.98 2.58a3.872 3.872 0 0 0 1.64 6.24c.56 5.89 5.56 10.52 11.64 10.52h15.47c6.08 0 11.08-4.63 11.64-10.52 1.52-.52 2.63-1.96 2.63-3.66 0-.99-.38-1.9-.99-2.58.61-.69.99-1.59.99-2.58ZM22 2.6c7.39 0 16.15 2.28 16.8 12.89H5.19C5.84 4.88 14.6 2.6 22 2.6ZM3.86 18.07h36.27c.71 0 1.29.58 1.29 1.29 0 .71-.58 1.29-1.29 1.29H3.86c-.71 0-1.29-.58-1.29-1.29 0-.71.58-1.29 1.29-1.29Zm25.87 18.05H14.26c-4.58 0-8.38-3.37-9.02-7.74h1.2c.86 0 1.13.3 1.68.88.66.72 1.58 1.7 3.56 1.7 2 0 2.89-.99 3.54-1.72.51-.57.77-.86 1.62-.86.85 0 1.1.29 1.62.86.65.73 1.54 1.72 3.54 1.72 1.99 0 2.88-.99 3.53-1.72.52-.57.77-.86 1.62-.86.85 0 1.11.29 1.62.86.65.73 1.54 1.72 3.54 1.72s2.89-.99 3.54-1.72c.51-.57.77-.86 1.61-.86h1.29c-.64 4.37-4.44 7.74-9.02 7.74Zm10.4-10.31h-2.67c-2 0-2.89.99-3.53 1.71-.52.58-.77.86-1.62.86-.85 0-1.11-.28-1.62-.86-.65-.72-1.54-1.71-3.54-1.71s-2.89.99-3.54 1.71c-.51.58-.77.86-1.61.86-.85 0-1.11-.28-1.62-.86-.65-.72-1.54-1.71-3.54-1.71s-2.89.99-3.54 1.71c-.51.58-.77.86-1.62.86-.86 0-1.13-.29-1.67-.87-.67-.72-1.58-1.7-3.57-1.7H3.86c-.71 0-1.29-.58-1.29-1.29 0-.71.58-1.29 1.29-1.29h36.27c.71 0 1.29.58 1.29 1.29 0 .71-.58 1.29-1.29 1.29Z"/><path d="M15.55 11.63c0 .71-.58 1.29-1.29 1.29-.71 0-1.29-.58-1.29-1.29 0-.72.58-1.29 1.29-1.29.71 0 1.29.57 1.29 1.29ZM31.02 11.63c0 .71-.58 1.29-1.29 1.29-.71 0-1.29-.58-1.29-1.29 0-.72.58-1.29 1.29-1.29.71 0 1.29.57 1.29 1.29ZM25.86 9.05c0 .71-.57 1.29-1.29 1.29-.71 0-1.29-.58-1.29-1.29 0-.71.58-1.29 1.29-1.29.72 0 1.29.58 1.29 1.29ZM20.71 6.47c0 .71-.58 1.29-1.29 1.29-.72 0-1.29-.58-1.29-1.29 0-.71.57-1.29 1.29-1.29.71 0 1.29.58 1.29 1.29Z" fill-rule="evenodd"/></g></svg><svg viewBox="0 0 24 24" id="icon-calling" xmlns="http://www.w3.org/2000/svg"><path fill="none" d="M0 0h24v24H0z"/><path d="M14.35 2.5c3.7.41 6.62 3.33 7.04 7.03M14.35 6.04a4.43 4.43 0 0 1 3.5 3.5M18.46 14.38c2.45 2.45 3.86 2.94.75 6.04-.38.31-2.85 4.07-11.53-4.61C-1 7.14 2.76 4.67 3.07 4.28c3.11-3.11 3.59-1.7 6.04.75 2.54 2.54-2.07 3.45 1.92 7.44 3.99 3.99 4.89-.63 7.43 1.91Z"/></svg><svg viewBox="0 0 14 13" id="icon-card" xmlns="http://www.w3.org/2000/svg"><path d="M8.121.293a1 1 0 0 0 0 1.414L11.413 5 1 5.007a1 1 0 0 0 0 2L11.414 7l-3.293 3.293a1 1 0 1 0 1.414 1.414l3.586-3.585a3 3 0 0 0 0-4.243L9.535.293a1 1 0 0 0-1.414 0Z"/></svg><svg viewBox="0 0 20 19" id="icon-cart" xmlns="http://www.w3.org/2000/svg"><path d="m0 .02 2.08.36.96 11.34c.08.93.86 1.64 1.8 1.63h10.91c.89.01 1.66-.65 1.78-1.52l.95-6.49c.11-.72-.4-1.39-1.13-1.5-.07-.01-14.94-.01-14.94-.01M11.37 7.48h2.77"/><path d="M4.4 16.78c.3 0 .54.24.54.54 0 .3-.24.54-.54.54-.3 0-.54-.24-.54-.54 0-.3.24-.54.54-.54Z" fill-rule="evenodd"/><path d="M4.94 17.32c0 .3-.24.54-.54.54-.3 0-.54-.24-.54-.54 0-.3.24-.54.54-.54.3 0 .54.24.54.54Z"/><path d="M15.68 16.78c.3 0 .54.24.54.54 0 .3-.24.54-.54.54-.3 0-.54-.24-.54-.54 0-.3.24-.54.54-.54Z" fill-rule="evenodd"/><path d="M16.22 17.32c0 .3-.24.54-.54.54-.3 0-.54-.24-.54-.54 0-.3.24-.54.54-.54.3 0 .54.24.54.54Z"/></svg><svg viewBox="0 0 32 32" id="icon-delivery" xmlns="http://www.w3.org/2000/svg"><path d="M31.938 25.78c0-.905-.337-1.777-.948-2.45l-.791.7c.314.346.529.769.623 1.225h-3.666a.536.536 0 0 0-.442.233l-1.967 2.917h-1.31V26.83a3.659 3.659 0 0 1 1.09-2.598 3.745 3.745 0 0 1 2.63-1.078h1.062c.522 0 1.033.152 1.468.438l.588-.875a3.723 3.723 0 0 0-1.525-.575v-1.613a.522.522 0 0 0-.156-.371.534.534 0 0 0-.375-.154 2.14 2.14 0 0 1-1.502-.616 2.09 2.09 0 0 1-.623-1.485v-2.1h1.593c.141 0 .276-.055.376-.154a.522.522 0 0 0 .156-.37v-3.677a.522.522 0 0 0-.156-.37.535.535 0 0 0-.375-.154h-.938c-.221 0-.442.03-.656.089v-.615a.521.521 0 0 0-.117-.328L24.24 8.077a1.82 1.82 0 0 0-.43-2.366 1.873 1.873 0 0 0-2.43.078 1.822 1.822 0 0 0-.274 2.388 1.86 1.86 0 0 0 1.06.74c.432.112.89.067 1.291-.127l1.575 1.947v.662l-2.335-.77a1.448 1.448 0 0 0-.476-.077h-4.382l-2.522-2.908A1.58 1.58 0 0 0 16 6.352v-.2l.769-.38a.53.53 0 0 0 .276-.336.518.518 0 0 0-.072-.426l-.872-1.293a.532.532 0 0 0 .309-.182.52.52 0 0 0 .121-.334c0-.835-.337-1.636-.934-2.226A3.21 3.21 0 0 0 13.344.05c-1 0-1.927.284-2.616 1.036a3.123 3.123 0 0 0-.808 2.427l.113 1.124c.048.484.282.932.655 1.25v9.915c0 .37.098.731.285 1.05h-.817c-.18 0-.36.03-.531.09v-6.916c0-.417-.169-.818-.467-1.113a1.605 1.605 0 0 0-1.127-.462H1.656c-.422 0-.827.167-1.126.462a1.568 1.568 0 0 0-.467 1.113v2.626h1.062v-1.05h7.438v5.25H1.125v-3.15H.063v4.287c0 .246.087.485.246.673.16.19.381.317.626.36l4.971.894v1.232c-.45.103-.89.247-1.314.43H1.656a.534.534 0 0 0-.375.154.522.522 0 0 0-.156.371v2.492a7.393 7.393 0 0 0-1.062 3.81c0 .139.055.272.155.37.1.099.235.154.376.154h2.435c.317.776.862 1.44 1.564 1.908a4.286 4.286 0 0 0 4.752 0 4.211 4.211 0 0 0 1.564-1.908h8.932a2.687 2.687 0 0 0 1.966-.859l.568-.618v1.477c0 .14.056.273.156.372.1.098.234.153.375.153h1.101c.468.801 1.19 1.427 2.054 1.78a4.297 4.297 0 0 0 2.727.177 4.253 4.253 0 0 0 2.271-1.5 4.17 4.17 0 0 0 .705-3.745.522.522 0 0 0 .174-.387ZM21.843 7.14a.782.782 0 0 1 .492-.728.805.805 0 0 1 .868.17.786.786 0 0 1 .173.859.803.803 0 0 1-1.3.255.784.784 0 0 1-.233-.557Zm-7.6 18.64c-.52 0-1.02-.205-1.387-.569a1.93 1.93 0 0 1-.576-1.37c0-.516.132-.998.48-1.395.31-.353.737-.583 1.205-.65a2.377 2.377 0 0 0 1.454-.783c.374-.426.58-.97.58-1.534a.518.518 0 0 0-.156-.372 1.56 1.56 0 0 0 .065-1.203h1.443l-2.332 5.99a1.208 1.208 0 0 0-.082.453v1.433h-.694ZM16 24.73h2.656a.535.535 0 0 1 .508.372.52.52 0 0 1-.213.59 1.074 1.074 0 0 1-.424.088H16v-1.05Zm4.123-.092a1.582 1.582 0 0 0-.484-.623 1.608 1.608 0 0 0-.727-.315l2.2-5.235a3.03 3.03 0 0 0-.284-2.875 3.085 3.085 0 0 0-1.116-1 3.126 3.126 0 0 0-1.46-.362H16v-.833l.156.154a.533.533 0 0 0 .375.154h5.404a1.557 1.557 0 0 0 .201 1.435 1.607 1.607 0 0 0 1.301.666h.002a2.592 2.592 0 0 0-.533 1.574v4.074c0 .278-.112.545-.311.742l-2.472 2.444Zm3.314-9.885a.535.535 0 0 1-.49-.324.52.52 0 0 1 .115-.572.532.532 0 0 1 .579-.114.53.53 0 0 1 .328.485c0 .14-.056.273-.156.371a.535.535 0 0 1-.375.154Zm3.72-2.625v2.625h-1.063v-2.462a1.41 1.41 0 0 1 .656-.163h.406Zm-2.126 2.1a1.56 1.56 0 0 0-.673-1.286 1.603 1.603 0 0 0-1.452-.199v-.937l2.125.7v1.722Zm-7.437-2.626h4.25v1.05H16.75L13.72 9.657l-.75.743 1.969 1.946v1.883H11.75V7.927h2.412l3.028 3.492a.53.53 0 0 0 .404.183Zm-6.078-9.81c.485-.53 1.13-.691 1.828-.691.47 0 .928.155 1.3.44.373.286.64.685.758 1.135h-2.058a.535.535 0 0 0-.376.154.522.522 0 0 0-.155.371v1.247a.848.848 0 0 1-.24.586.868.868 0 0 1-1.482-.5l-.114-1.124a2.054 2.054 0 0 1 .539-1.618Zm.433 4.56c.51 0 1-.202 1.361-.558.361-.357.564-.841.565-1.346v-.722h1.063a.52.52 0 0 0 .089.292l.728 1.08-.524.26a.53.53 0 0 0-.293.469v.525c0 .139-.057.272-.156.37a.535.535 0 0 1-.376.155H11.75V6.34c.066.007.133.01.2.01Zm-.199 9.451v-.525h6.501c.335 0 .665.082.96.238.296.156.547.382.733.657a1.997 1.997 0 0 1 .187 1.889l-2.36 5.617h-1.529l2.379-6.112a.52.52 0 0 0-.249-.653.536.536 0 0 0-.247-.06h-5.313a1.07 1.07 0 0 1-.75-.309 1.045 1.045 0 0 1-.312-.742Zm-1.594 2.1h4.25c.141 0 .276.056.376.154a.522.522 0 0 1-.376.897h-4.25a.534.534 0 0 1-.375-.154.522.522 0 0 1 0-.743.535.535 0 0 1 .375-.153Zm-9.031-7.35v-.526c0-.139.056-.272.156-.37a.535.535 0 0 1 .375-.155h6.375c.141 0 .276.056.376.154.1.099.155.232.155.371v.525H1.125Zm0 7.35h7.438v1.05H6.485l-5.36-.963v-.086Zm1.72 4.726c-.231.185-.45.384-.658.594v-.594h.657Zm4.124 7.877a3.24 3.24 0 0 1-1.592-.426 3.194 3.194 0 0 1-1.168-1.15h1.356a2.136 2.136 0 0 0 2.808 0h1.355a3.194 3.194 0 0 1-1.168 1.15 3.24 3.24 0 0 1-1.591.426Zm14.051-3.141a1.595 1.595 0 0 1-1.18.515H1.148a6.358 6.358 0 0 1 1.592-3.701 6.487 6.487 0 0 1 3.513-2.03 2.01 2.01 0 0 1 .418-.045h3.486v-1.05H6.97v-1.05h7.856a1.314 1.314 0 0 1-1.01.753c-.72.102-1.38.458-1.857 1-.514.586-.74 1.318-.74 2.083 0 .712.258 1.4.726 1.94H7.5v1.05h11.027a2.176 2.176 0 0 0 1.503-.615l3.316-3.278c.398-.395.621-.928.623-1.485v-4.074c0-.325.102-.643.293-.909.19-.266.459-.467.77-.576v2.01c0 .745.267 1.465.753 2.033.486.569 1.16.95 1.902 1.074v1.094c-.33 0-.667-.02-.995.023a4.82 4.82 0 0 0-2.683 1.15 4.727 4.727 0 0 0-1.507 2.476l-1.482 1.612Zm6.42-1.06h.027l.642.634a.588.588 0 0 1 .074.743.594.594 0 0 1-.612.25.597.597 0 0 1-.305-.16l-.489-.484.663-.983Zm.247 4.2c-.46 0-.914-.1-1.332-.291a3.2 3.2 0 0 1-1.09-.813.528.528 0 0 0 .208-.18l.46-.682c.257.37.626.65 1.055.799.428.148.893.156 1.327.024a2.123 2.123 0 0 0 1.083-.76 2.083 2.083 0 0 0 .129-2.297h1.166a3.118 3.118 0 0 1-.403 2.869 3.178 3.178 0 0 1-1.137.978 3.218 3.218 0 0 1-1.465.354Z"/></svg><svg viewBox="0 0 44 43" id="icon-dish" xmlns="http://www.w3.org/2000/svg"><clipPath id="ja"><path transform="translate(0 -.97)" fill-opacity="0" d="M0 0h44v43.489H0z"/></clipPath><path fill="none" d="M0-.97h44v43.489H0z"/><g clip-path="url(#ja)"><path d="m31.15 13.68-.47-1.53c-.6-1.74-2.51-2.67-4.27-2.08-.99.33-1.77 1.1-2.1 2.08l-.47 1.53c-.4 1.29-.48 2.66-.25 3.99.22 1.12.94 2.08 1.96 2.61l-.53 11.65c-.07.65.14 1.3.59 1.79.95 1.03 2.57 1.1 3.62.16l.16-.16c.43-.48.65-1.11.59-1.74l-.53-11.7a3.773 3.773 0 0 0 1.95-2.61c.23-1.33.15-2.7-.25-3.99Zm-1.2 3.74c-.16.8-.74 1.46-1.52 1.73-.3.11-.49.4-.48.71l.56 12.23c.03.24-.05.48-.22.66-.44.43-1.15.43-1.59 0a.863.863 0 0 1-.22-.7l.56-12.19c.01-.31-.18-.6-.48-.71a2.32 2.32 0 0 1-1.52-1.73c-.2-1.11-.13-2.24.2-3.31l.47-1.54c.37-.97 1.46-1.47 2.44-1.11.53.19.94.6 1.13 1.11l.47 1.54c.33 1.07.4 2.2.2 3.31ZM19.79 9.9c-.4 0-.73.32-.73.72v6.23l-1.98 1.96c-.15.14-.23.34-.22.55l.64 12.68c.02.27-.08.54-.27.74-.41.4-1.06.4-1.46.01l-.01-.01c-.19-.2-.29-.47-.28-.74l.65-12.68a.703.703 0 0 0-.22-.55l-1.98-1.96v-6.23c0-.4-.33-.72-.73-.72-.41 0-.74.32-.74.72v6.53c0 .19.08.37.22.51l1.97 1.95-.63 12.36c-.07 1.35.99 2.5 2.35 2.56 1.37.07 2.53-.97 2.6-2.32v-.24l-.63-12.36 1.97-1.95a.72.72 0 0 0 .22-.51v-6.53c0-.4-.33-.72-.74-.72Z"/><path d="M15.4 9.9c-.41 0-.74.32-.74.72v5.8a.736.736 0 0 0 1.47 0v-5.8c0-.4-.33-.72-.73-.72ZM17.6 9.9c-.41 0-.74.32-.74.72v5.8a.736.736 0 0 0 1.47 0v-5.8c0-.4-.33-.72-.73-.72Z"/><path d="M22-.98C9.84-.98 0 8.76 0 20.77s9.84 21.74 22 21.74c12.15 0 22-9.73 22-21.74-.02-12-9.86-21.73-22-21.75Zm0 42.04c-11.35 0-20.54-9.08-20.54-20.29C1.46 9.56 10.65.47 22 .47c11.34 0 20.53 9.09 20.53 20.3-.01 11.2-9.2 20.28-20.53 20.29Z"/><path d="M24.38 34.38c-.04-.4-.4-.69-.81-.66-.01.01-.01.01-.02.01-1.03.12-2.08.12-3.11 0a.724.724 0 1 0-.17 1.44c1.15.13 2.3.13 3.45 0 .4-.04.69-.4.66-.79ZM33.22 11.43a.742.742 0 0 0-1.04-.09c-.31.26-.35.72-.09 1.02a12.943 12.943 0 0 1-.78 17.65c-.28.28-.28.74 0 1.03.29.28.75.28 1.04 0 5.4-5.32 5.78-13.85.87-19.61ZM17.08 8.61ZM25.45 6.68c-2.86-.68-5.87-.5-8.63.52a.73.73 0 0 0-.43.94c.11.28.38.47.69.47.09-.01.17-.02.26-.05a13.46 13.46 0 0 1 7.77-.47c.39.09.79-.15.88-.54.1-.39-.14-.78-.54-.87ZM12.64 29.97a12.908 12.908 0 0 1-3.85-9.2c0-2.76.88-5.45 2.53-7.67.24-.32.18-.78-.15-1.02a.73.73 0 0 0-1.02.14c-.01.01-.01.02-.02.02C5.89 18 6.52 25.95 11.61 31c.28.28.75.28 1.03 0 .29-.28.29-.74 0-1.03Z"/></g></svg><svg viewBox="0 0 10 21" id="icon-facebook" xmlns="http://www.w3.org/2000/svg"><path d="M2.547 20.556v-9.631H0V7.457h2.547V4.495C2.547 2.167 4.05.03 7.517.03 8.922.03 9.96.164 9.96.164l-.082 3.239s-1.058-.01-2.213-.01c-1.25 0-1.45.575-1.45 1.532v2.532h3.763l-.164 3.468h-3.6v9.631H2.547Z"/></svg><svg viewBox="0 0 135 40" id="icon-googleplay" xmlns="http://www.w3.org/2000/svg"><rect x=".5" y=".5" width="134" height="39" rx="4.5"/><rect x=".5" y=".5" width="134" height="39" rx="4.5"/><path d="M68.136 21.751c-2.352 0-4.269 1.79-4.269 4.253 0 2.45 1.917 4.253 4.269 4.253 2.353 0 4.27-1.804 4.27-4.253-.001-2.464-1.918-4.253-4.27-4.253Zm0 6.832c-1.289 0-2.4-1.063-2.4-2.578 0-1.53 1.112-2.578 2.4-2.578 1.289 0 2.4 1.047 2.4 2.578 0 1.514-1.111 2.578-2.4 2.578Zm-9.314-6.832c-2.352 0-4.269 1.79-4.269 4.253 0 2.45 1.917 4.253 4.269 4.253 2.353 0 4.27-1.804 4.27-4.253 0-2.464-1.917-4.253-4.27-4.253Zm0 6.832c-1.289 0-2.4-1.063-2.4-2.578 0-1.53 1.112-2.578 2.4-2.578 1.289 0 2.4 1.047 2.4 2.578.001 1.514-1.111 2.578-2.4 2.578Zm-11.078-5.526v1.804h4.318c-.129 1.015-.467 1.756-.983 2.271-.628.628-1.611 1.321-3.335 1.321-2.658 0-4.736-2.143-4.736-4.8 0-2.659 2.078-4.802 4.736-4.802 1.434 0 2.481.564 3.254 1.29l1.273-1.274c-1.08-1.03-2.513-1.82-4.527-1.82-3.641 0-6.702 2.964-6.702 6.605 0 3.641 3.061 6.605 6.702 6.605 1.965 0 3.448-.645 4.607-1.853 1.192-1.192 1.563-2.868 1.563-4.22 0-.419-.032-.806-.097-1.128h-6.073v.001Zm45.308 1.401c-.354-.95-1.434-2.707-3.641-2.707-2.191 0-4.012 1.724-4.012 4.253 0 2.384 1.805 4.253 4.221 4.253 1.949 0 3.077-1.192 3.545-1.885l-1.45-.967c-.483.71-1.144 1.176-2.095 1.176-.95 0-1.627-.435-2.062-1.289l5.687-2.352-.193-.482Zm-5.8 1.418c-.048-1.644 1.273-2.48 2.224-2.48.741 0 1.369.37 1.579.901l-3.803 1.58ZM82.629 30h1.868V17.5h-1.868V30Zm-3.062-7.298h-.064c-.419-.5-1.225-.95-2.239-.95-2.127 0-4.076 1.868-4.076 4.27 0 2.383 1.949 4.236 4.076 4.236 1.015 0 1.82-.45 2.239-.966h.064v.612c0 1.627-.87 2.497-2.271 2.497-1.144 0-1.853-.82-2.143-1.514l-1.627.677c.467 1.127 1.707 2.513 3.77 2.513 2.191 0 4.044-1.289 4.044-4.43V22.01h-1.772v.692h-.001Zm-2.142 5.881c-1.289 0-2.368-1.08-2.368-2.562 0-1.499 1.079-2.594 2.368-2.594 1.272 0 2.271 1.095 2.271 2.594 0 1.482-.999 2.562-2.271 2.562ZM101.806 17.5h-4.471V30H99.2v-4.736h2.605c2.068 0 4.102-1.497 4.102-3.882s-2.033-3.883-4.101-3.883Zm.048 6.025H99.2V19.24h2.654c1.395 0 2.187 1.155 2.187 2.143 0 .968-.792 2.142-2.187 2.142Zm11.532-1.795c-1.351 0-2.75.595-3.329 1.914l1.656.691c.354-.69 1.014-.917 1.705-.917.965 0 1.946.58 1.962 1.608v.13c-.338-.194-1.062-.483-1.946-.483-1.785 0-3.603.981-3.603 2.814 0 1.673 1.464 2.75 3.104 2.75 1.254 0 1.946-.563 2.38-1.223h.064v.965h1.802v-4.793c.001-2.218-1.657-3.456-3.795-3.456Zm-.226 6.851c-.61 0-1.463-.306-1.463-1.062 0-.965 1.062-1.335 1.979-1.335.819 0 1.206.177 1.704.418a2.262 2.262 0 0 1-2.22 1.98Zm10.583-6.578-2.139 5.42h-.064l-2.22-5.42h-2.01l3.329 7.575-1.898 4.214h1.946l5.131-11.789h-2.075ZM106.937 30h1.865V17.5h-1.865V30ZM47.418 10.243c0 .838-.248 1.505-.745 2.003-.564.592-1.3.888-2.204.888-.866 0-1.603-.3-2.208-.9-.606-.601-.909-1.345-.909-2.233 0-.89.303-1.633.91-2.233.604-.601 1.341-.901 2.207-.901.43 0 .841.084 1.231.25.391.169.704.392.938.67l-.527.529c-.397-.475-.944-.712-1.643-.712-.632 0-1.178.222-1.639.666-.461.444-.69 1.02-.69 1.73 0 .709.229 1.286.69 1.73a2.282 2.282 0 0 0 1.639.666c.67 0 1.23-.223 1.676-.67.29-.291.458-.696.503-1.215h-2.179V9.79h2.907c.03.157.043.308.043.453ZM52.028 7.737h-2.732v1.902h2.464v.721h-2.464v1.902h2.732V13h-3.503V7h3.503v.737ZM55.279 13h-.771V7.737h-1.676V7h4.123v.737h-1.676V13ZM59.938 13V7h.771v6h-.771ZM64.128 13h-.77V7.737H61.68V7h4.123v.737h-1.676V13ZM73.609 12.225c-.59.606-1.323.909-2.2.909-.877 0-1.61-.303-2.2-.909-.59-.606-.883-1.348-.883-2.225s.294-1.619.884-2.225c.589-.606 1.322-.91 2.199-.91.872 0 1.604.305 2.196.914.592.609.888 1.349.888 2.221 0 .877-.295 1.619-.884 2.225Zm-3.83-.503a2.2 2.2 0 0 0 1.63.674c.643 0 1.187-.225 1.63-.674.444-.45.667-1.024.667-1.722s-.223-1.272-.667-1.722a2.199 2.199 0 0 0-1.63-.674c-.643 0-1.186.225-1.63.674-.443.45-.666 1.024-.666 1.722s.223 1.272.666 1.722ZM75.575 13V7h.938l2.916 4.667h.033l-.033-1.156V7h.77v6h-.804l-3.051-4.894h-.033l.033 1.156V13h-.77Z"/><path d="M47.418 10.243c0 .838-.248 1.505-.745 2.003-.564.592-1.3.888-2.204.888-.866 0-1.603-.3-2.208-.9-.606-.601-.909-1.345-.909-2.233 0-.89.303-1.633.91-2.233.604-.601 1.341-.901 2.207-.901.43 0 .841.084 1.231.25.391.169.704.392.938.67l-.527.529c-.397-.475-.944-.712-1.643-.712-.632 0-1.178.222-1.639.666-.461.444-.69 1.02-.69 1.73 0 .709.229 1.286.69 1.73a2.282 2.282 0 0 0 1.639.666c.67 0 1.23-.223 1.676-.67.29-.291.458-.696.503-1.215h-2.179V9.79h2.907c.03.157.043.308.043.453ZM52.028 7.737h-2.732v1.902h2.464v.721h-2.464v1.902h2.732V13h-3.503V7h3.503v.737ZM55.279 13h-.771V7.737h-1.676V7h4.123v.737h-1.676V13ZM59.938 13V7h.771v6h-.771ZM64.128 13h-.77V7.737H61.68V7h4.123v.737h-1.676V13ZM73.609 12.225c-.59.606-1.323.909-2.2.909-.877 0-1.61-.303-2.2-.909-.59-.606-.883-1.348-.883-2.225s.294-1.619.884-2.225c.589-.606 1.322-.91 2.199-.91.872 0 1.604.305 2.196.914.592.609.888 1.349.888 2.221 0 .877-.295 1.619-.884 2.225Zm-3.83-.503a2.2 2.2 0 0 0 1.63.674c.643 0 1.187-.225 1.63-.674.444-.45.667-1.024.667-1.722s-.223-1.272-.667-1.722a2.199 2.199 0 0 0-1.63-.674c-.643 0-1.186.225-1.63.674-.443.45-.666 1.024-.666 1.722s.223 1.272.666 1.722ZM75.575 13V7h.938l2.916 4.667h.033l-.033-1.156V7h.77v6h-.804l-3.051-4.894h-.033l.033 1.156V13h-.77Z"/><g filter="url(#la)"><path d="M10.436 7.538c-.291.308-.463.786-.463 1.405v22.116c0 .62.172 1.097.463 1.405l.074.072 12.389-12.389v-.292L10.51 7.465l-.074.073ZM27.028 24.278l-4.129-4.131v-.292l4.13-4.13.093.053 4.893 2.78c1.397.794 1.397 2.093 0 2.888l-4.893 2.78-.094.052Z"/><g filter="url(#lb)"><path d="m27.122 24.225-4.224-4.224-12.462 12.463c.46.488 1.221.548 2.078.062l14.608-8.301Z"/></g><path d="m27.122 15.777-14.608-8.3c-.857-.487-1.618-.426-2.078.062l12.463 12.463 4.223-4.225Z"/></g><defs><filter id="la" x="9.973" y="7.141" width="23.09" height="25.721" filterUnits="userSpaceOnUse" color-interpolation-filters="sRGB"><feFlood flood-opacity="0" result="BackgroundImageFix"/><feBlend in="SourceGraphic" in2="BackgroundImageFix" result="shape"/><feColorMatrix in="SourceAlpha" values="0 0 0 0 0 0 0 0 0 0 0 0 0 0 0 0 0 0 127 0" result="hardAlpha"/><feOffset dy="-.15"/><feComposite in2="hardAlpha" operator="arithmetic" k2="-1" k3="1"/><feColorMatrix values="0 0 0 0 0 0 0 0 0 0 0 0 0 0 0 0 0 0 0.12 0"/><feBlend in2="shape" result="effect1_innerShadow_0_545"/><feColorMatrix in="SourceAlpha" values="0 0 0 0 0 0 0 0 0 0 0 0 0 0 0 0 0 0 127 0" result="hardAlpha"/><feOffset dy=".15"/><feComposite in2="hardAlpha" operator="arithmetic" k2="-1" k3="1"/><feColorMatrix values="0 0 0 0 1 0 0 0 0 1 0 0 0 0 1 0 0 0 0.25 0"/><feBlend in2="effect1_innerShadow_0_545" result="effect2_innerShadow_0_545"/></filter><filter id="lb" x="10.436" y="20.001" width="16.686" height="12.861" filterUnits="userSpaceOnUse" color-interpolation-filters="sRGB"><feFlood flood-opacity="0" result="BackgroundImageFix"/><feBlend in="SourceGraphic" in2="BackgroundImageFix" result="shape"/><feColorMatrix in="SourceAlpha" values="0 0 0 0 0 0 0 0 0 0 0 0 0 0 0 0 0 0 127 0" result="hardAlpha"/><feOffset dy="-.15"/><feComposite in2="hardAlpha" operator="arithmetic" k2="-1" k3="1"/><feColorMatrix values="0 0 0 0 0 0 0 0 0 0 0 0 0 0 0 0 0 0 0.08 0"/><feBlend in2="shape" result="effect1_innerShadow_0_545"/></filter></defs></svg><svg viewBox="0 0 20 20" id="icon-instagram" xmlns="http://www.w3.org/2000/svg"><path d="M9.748 6.528A3.258 3.258 0 0 0 6.496 9.78a3.258 3.258 0 0 0 3.252 3.251 3.258 3.258 0 0 0 3.25-3.251 3.258 3.258 0 0 0-3.25-3.252Zm9.751 3.252c0-1.347.013-2.68-.063-4.025-.076-1.56-.432-2.946-1.573-4.088C16.719.523 15.336.17 13.775.094 12.428.018 11.094.03 9.75.03 8.404.03 7.07.018 5.725.094 4.165.17 2.78.526 1.637 1.667.493 2.811.14 4.194.064 5.755-.01 7.102.001 8.435.001 9.78c0 1.344-.012 2.68.063 4.024.076 1.561.432 2.947 1.573 4.088 1.144 1.144 2.527 1.498 4.088 1.574 1.347.075 2.681.063 4.025.063 1.346 0 2.68.012 4.025-.063 1.56-.076 2.946-.432 4.088-1.574 1.144-1.144 1.497-2.527 1.573-4.088.078-1.344.063-2.678.063-4.024Zm-9.751 5.003A4.996 4.996 0 0 1 4.745 9.78a4.996 4.996 0 0 1 5.003-5.003A4.996 4.996 0 0 1 14.75 9.78a4.996 4.996 0 0 1-5.002 5.003Zm5.207-9.042a1.167 1.167 0 0 1-1.168-1.169c0-.646.522-1.168 1.168-1.168a1.167 1.167 0 0 1 .827 1.995 1.167 1.167 0 0 1-.827.342Z"/></svg><svg viewBox="0 0 17 19" id="icon-location" xmlns="http://www.w3.org/2000/svg"><path d="M8 5.02c-1.39 0-2.5 1.12-2.5 2.51 0 1.38 1.11 2.49 2.5 2.49 1.38 0 2.5-1.11 2.5-2.49 0-1.39-1.12-2.51-2.5-2.51Z"/><path d="M.5 7.59C.5 3.41 3.85.02 7.99.02c4.15 0 7.51 3.39 7.51 7.57 0 5.33-6.31 10.43-7.51 10.43C6.8 18.02.5 12.92.5 7.59Z"/></svg><svg viewBox="0 0 24 24" id="icon-message" xmlns="http://www.w3.org/2000/svg"><path d="m17.903 8.851-4.444 3.613c-.84.666-2.02.666-2.86 0L6.12 8.851"/><path fill-rule="evenodd" clip-rule="evenodd" d="M16.909 21C19.95 21.008 22 18.51 22 15.438V8.57C22 5.499 19.95 3 16.909 3H7.09C4.05 3 2 5.499 2 8.57v6.868C2 18.51 4.05 21.008 7.091 21h9.818Z"/></svg><svg viewBox="0 0 11 19" id="icon-next" xmlns="http://www.w3.org/2000/svg"><path d="m2.635.45 7.746 7.747c.601.604.601 1.58 0 2.184l-7.746 7.746a1.548 1.548 0 0 1-2.184-2.184l6.646-6.646L.45 2.635a1.548 1.548 0 0 1 0-2.184 1.548 1.548 0 0 1 2.184 0Z"/></svg><svg viewBox="0 0 44 44" id="icon-pizza" xmlns="http://www.w3.org/2000/svg"><clipPath id="qa"><path transform="matrix(1 0 0 -1 0 43.03)" fill-opacity="0" d="M0 0h44v44H0z"/></clipPath><path fill="none" d="M0 43.03h44v-44H0z"/><g clip-path="url(#qa)"><path d="M43.74 42.78c-.23.23-.58.31-.89.19L7.15 30.25c-1.24.76-2.81.93-4.25.34-2.4-1-3.54-3.75-2.55-6.15 2.34-5.64 5.72-10.7 10.04-15.02 4.32-4.32 9.38-7.7 15.03-10.04a4.69 4.69 0 0 1 1.79-.36c1.84 0 3.6 1.1 4.35 2.91.5 1.21.45 2.52-.03 3.65l12.42 36.31c.11.31.03.66-.21.89ZM12.56 30.35l3.78 1.35c.45-.47.66-1.13.58-1.78-.08-.58-.38-1.1-.84-1.46-.47-.35-1.04-.51-1.62-.43-.58.08-1.1.37-1.45.84-.33.43-.49.95-.45 1.48ZM29.97 2.58a2.995 2.995 0 0 0-3.9-1.61C15.07 5.53 6.5 14.1 1.94 25.1a3 3 0 0 0 0 2.28c.31.74.88 1.31 1.62 1.62a3 3 0 0 0 2.28 0c.73-.31 1.31-.88 1.61-1.62a38.58 38.58 0 0 1 20.91-20.9 2.995 2.995 0 0 0 1.61-3.9Zm7.63 26.07c-.07 0-.15 0-.23.01-.58.08-1.09.38-1.45.84-.36.46-.51 1.04-.43 1.62.15 1.2 1.26 2.04 2.45 1.88.37-.04.72-.19 1.02-.41l-1.36-3.94Zm1.93 5.62a3.917 3.917 0 0 1-5.75-2.93 3.86 3.86 0 0 1 .78-2.89 3.84 3.84 0 0 1 2.47-1.47l-1.7-5-1.97 1.51c-.38.29-.92.22-1.2-.16a.869.869 0 0 1 .15-1.21l2.43-1.86L30.3 7.27c-.38.33-.81.6-1.29.8-9.1 3.77-16.2 10.86-19.97 19.97-.13.32-.29.61-.48.88l2.3.82c.08-.69.35-1.35.78-1.92.64-.83 1.56-1.36 2.59-1.49.18-.03.35-.04.52-.04.86 0 1.68.28 2.37.81.83.64 1.36 1.56 1.5 2.59.12.93-.1 1.85-.58 2.61l10.68 3.81.41-.97a.84.84 0 0 1 .79-.54c.11 0 .22.03.33.07.44.18.64.68.46 1.12l-.37.9 11.41 4.07-2.22-6.49Z"/><path d="M9.28 19.97c-.01 0-.01.01-.02.02-.26.39-.79.5-1.19.24-.39-.27-.5-.8-.24-1.19.17-.26.44-.39.72-.39.16 0 .32.04.47.13.4.26.51.79.26 1.19ZM7.97 22.1c-.84 1.47-1.59 3.01-2.24 4.57-.18.44-.68.65-1.12.47a.869.869 0 0 1-.47-1.13c.68-1.62 1.46-3.23 2.34-4.76a.86.86 0 0 1 1.17-.32c.41.24.55.76.32 1.17ZM26.89 32.03c-.17.02-.35.03-.52.03a3.92 3.92 0 0 1-3.87-3.4 3.923 3.923 0 0 1 3.37-4.39 3.913 3.913 0 0 1 4.38 3.37c.28 2.14-1.23 4.1-3.36 4.39Zm1.66-4.17a2.198 2.198 0 0 0-2.17-1.9c-.09 0-.19.01-.29.02-1.2.16-2.04 1.26-1.88 2.46a2.188 2.188 0 0 0 2.45 1.88c1.2-.16 2.05-1.26 1.89-2.46ZM26.66 21.34a3.913 3.913 0 0 1-1.02-7.76c.17-.02.35-.03.52-.03a3.92 3.92 0 0 1 3.87 3.4c.28 2.14-1.23 4.1-3.37 4.39Zm1.67-4.17a2.205 2.205 0 0 0-2.17-1.9c-.1 0-.2.01-.29.02-.58.08-1.1.37-1.45.84-.36.46-.51 1.04-.44 1.62.15 1.08 1.08 1.9 2.17 1.9.1 0 .19 0 .29-.02 1.2-.16 2.04-1.26 1.89-2.46ZM21 24.9l-2.65.34c-.47.07-.9-.26-.96-.74-.06-.47.27-.9.74-.96l2.64-.35h.11c.43 0 .8.31.86.74.06.47-.27.9-.74.97ZM19.66 18.55l-.24 1.78c-.06.47-.49.8-.96.74-.47-.07-.8-.5-.74-.97l.23-1.77a.87.87 0 0 1 .85-.75c.04 0 .08.01.12.01.47.06.8.49.74.96Z"/></g></svg><svg viewBox="0 0 11 19" id="icon-prev" xmlns="http://www.w3.org/2000/svg"><path d="M8.197 18.05.45 10.302a1.548 1.548 0 0 1 0-2.184L8.197.373a1.548 1.548 0 0 1 2.184 2.184L3.735 9.203l6.646 6.662c.601.604.601 1.58 0 2.184a1.548 1.548 0 0 1-2.184 0Z"/></svg><svg viewBox="0 0 32 32" id="icon-restaurant" xmlns="http://www.w3.org/2000/svg"><path d="M31.406 27.156h-3.718V16.484a2.31 2.31 0 0 0 1.69-3.092l-1.69-4.397V.594a.531.531 0 0 0-.532-.531H4.844a.531.531 0 0 0-.532.53v8.402l-1.69 4.397a2.31 2.31 0 0 0 1.69 3.092v10.672H.595a.531.531 0 0 0-.531.532v3.718a.532.532 0 0 0 .53.532h30.813a.532.532 0 0 0 .532-.532v-3.718a.53.53 0 0 0-.532-.532Zm-5.843 0v-11.33c.29.3.658.517 1.062.625v10.705h-1.063Zm-4.25.532v3.187h-2.125v-3.719h1.062a.53.53 0 0 0 .531-.531v-1.594a.531.531 0 0 0-.531-.531h-3.188a.531.531 0 0 0-.53.531v1.594a.531.531 0 0 0 .53.531h1.063v3.719H16v-3.188a.53.53 0 0 0-.531-.53h-1.063v-1.595a.529.529 0 0 0-.531-.53h-1.063v-8.55a2.309 2.309 0 0 0 1.313-.79 2.29 2.29 0 0 0 1.781.84h.188a2.288 2.288 0 0 0 1.78-.84c.077.092.161.178.251.258v1.644a2.659 2.659 0 0 0-2.656 2.656.533.533 0 0 0 .531.531h5.313a.529.529 0 0 0 .53-.531 2.659 2.659 0 0 0-2.655-2.656v-1.111c.154.032.311.048.469.048h.166a2.305 2.305 0 0 0 1.802-.864 2.302 2.302 0 0 0 1.805.864h.102c.334 0 .664-.07.968-.21v8.71h-1.063a.53.53 0 0 0-.53.532v1.593h-1.063a.532.532 0 0 0-.532.532Zm-3.72-1.594v-.532h2.126v.532h-2.125ZM7.264 13.893l1.173-4.268h2.156l-.79 4.8a1.244 1.244 0 0 1-1.232 1.044h-.102a1.248 1.248 0 0 1-1.204-1.576ZM7.5 16.32c.304.14.634.21.968.21h.102a2.301 2.301 0 0 0 1.805-.864 2.306 2.306 0 0 0 1.375.825v2.695H7.5v-2.866Zm4.677-.852a1.248 1.248 0 0 1-1.231-1.451l.724-4.393h2.175l-.256 4.664a1.248 1.248 0 0 1-1.246 1.18h-.166Zm4.822-.39a1.237 1.237 0 0 1-.905.39h-.188a1.25 1.25 0 0 1-1.245-1.313l.248-4.531h2.182l.248 4.528v.003a1.233 1.233 0 0 1-.34.923Zm1.412-.79-.256-4.664h2.175l.724 4.393a1.248 1.248 0 0 1-1.231 1.45h-.166a1.248 1.248 0 0 1-1.246-1.179Zm.776 4.367a1.597 1.597 0 0 1 1.503 1.063h-4.068a1.597 1.597 0 0 1 1.503-1.063h1.063Zm5.338-3.679a1.239 1.239 0 0 1-.992.492h-.104a1.244 1.244 0 0 1-1.23-1.045l-.792-4.799h2.157l1.172 4.265v.003a1.24 1.24 0 0 1-.211 1.084Zm-.556 11.117h.531v1.062h-.531v-1.062Zm4.418-12.321a1.248 1.248 0 1 1-2.368.779l-1.354-4.927h2.127l1.595 4.148ZM5.375 1.125h21.25v7.438H5.375V1.125ZM3.749 14.928a1.23 1.23 0 0 1-.136-1.155l1.595-4.148h2.127L5.98 14.552a1.252 1.252 0 0 1-1.785.775 1.23 1.23 0 0 1-.447-.4Zm1.626 1.523a2.305 2.305 0 0 0 1.063-.626v11.331H5.375V16.452Zm4.25 14.424h-8.5v-2.656h8.5v2.656Zm.531-3.719H7.5V20.25h4.25v10.625h-1.063v-3.188a.53.53 0 0 0-.53-.53Zm2.656-1.062h.532v1.593a.529.529 0 0 0 .531.532h1.063v2.656h-2.126v-4.781Zm18.063 4.781h-8.5v-2.656h8.5v2.656Z"/></svg><svg viewBox="0 0 24 20" id="icon-reviews" xmlns="http://www.w3.org/2000/svg"><path d="M5.217 9.565c1.276.116 2.32.609 3.13 1.479.812.869 1.218 1.97 1.218 3.304 0 1.45-.435 2.637-1.304 3.565-.87.87-1.971 1.304-3.304 1.304-1.508 0-2.725-.55-3.653-1.652C.434 16.464 0 14.754 0 12.435 0 7.97 1.478 4.115 4.435.87c.58-.58 1.246-.87 2-.87.637 0 1.188.232 1.652.696.464.405.696.898.696 1.478 0 .638-.232 1.188-.696 1.652-1.507 1.565-2.464 3.478-2.87 5.74Zm14.435 0c1.275.116 2.319.609 3.13 1.479.812.869 1.218 1.97 1.218 3.304 0 1.45-.435 2.637-1.304 3.565-.87.87-1.971 1.304-3.305 1.304-1.507 0-2.724-.55-3.652-1.652-.87-1.101-1.304-2.811-1.304-5.13 0-4.464 1.478-8.32 4.435-11.565.58-.58 1.246-.87 2-.87.637 0 1.188.232 1.652.696.463.405.695.898.695 1.478 0 .638-.232 1.188-.695 1.652-1.507 1.565-2.464 3.478-2.87 5.74Z"/></svg><svg viewBox="0 0 44 44" id="icon-sandvich" xmlns="http://www.w3.org/2000/svg"><clipPath id="ua"><path transform="translate(0 -.97)" fill-opacity="0" d="M0 0h44v44H0z"/></clipPath><path fill="none" d="M0-.97h44v44H0z"/><g clip-path="url(#ua)"><path d="M41.79 5.62h-1.46V4.16a2.2 2.2 0 0 0-2.2-2.2h-1.75L35.32-.16c-.25-.5-.76-.82-1.31-.82h-1.02c-.81 0-1.46.66-1.46 1.47v1.47h-8.07a2.2 2.2 0 0 0-2.2 2.2v1.46h-1.47c-1.21 0-2.19.99-2.19 2.2v1.47c0 .81.65 1.47 1.46 1.47h.08l.86 7.57-3.54-.83a10 10 0 0 0-.57-.81l-1.25-5.36a.726.726 0 0 0-.71-.57H9.71C7.73 9.01 5.38 8.21 3.6 8.74L2.53 7.56A1.45 1.45 0 0 0 .92 7.2c-.56.21-.93.75-.92 1.35v32.29c0 1.21.97 2.18 2.18 2.18h35.95c.37 0 .68-.28.73-.65l3.59-31.61h.08c.81 0 1.47-.66 1.47-1.47V7.82c-.01-1.21-.99-2.2-2.21-2.2ZM32.99.49h1.02l.73 1.47h-1.75V.49ZM22.73 4.16c0-.41.33-.74.73-.74h14.67c.4 0 .73.33.73.74v1.46H22.73V4.16ZM20.67 20l.05.01.59.14.4 4.16a6.702 6.702 0 0 0-3.94-1.24c.27-1.3.13-2.64-.41-3.85l3.31.78Zm1.44 6.48.01.01c.26.25.52.51.75.78.88.97 1.52 2.13 1.88 3.39.12.44.19.89.19 1.34l-6.85-7.47c1.52.17 2.94.86 4.02 1.95Zm-7.73-9.32c1.58 1.82 2.32 4.01 1.97 5.47L8.89 14.5c1.5-.34 3.79.72 5.49 2.66Zm-1.04-4.94.59 2.5c-.59-.46-1.23-.85-1.91-1.15-.28-.47-.59-.92-.93-1.35h2.25Zm-3.68.55c.06.07.11.15.17.22-.69-.06-1.38.05-2.01.34L4.8 10.04c1.48.02 3.4 1.06 4.86 2.73Zm21.07 28.36a.71.71 0 0 1-.65.43H2.18c-.4 0-.72-.32-.72-.72L1.45 8.56l14.72 16.05 8.64 9.42.01.02 4.74 5.17.06.06.98 1.07c.19.21.25.52.13.78Zm-4.54-7.76c.14-.44.21-.89.21-1.35.38.32.74.68 1.07 1.06.41.47.77.97 1.08 1.51.43.72.74 1.51.9 2.33l-3.26-3.55Zm11.28 8.19h-5.34c.28-.76.1-1.61-.45-2.2l-.74-.81c.15-1.23-.05-2.47-.57-3.59h7.85l-.75 6.6Zm.92-8.07h-8.8c-.3-.48-.64-.94-1.01-1.37-.72-.84-1.57-1.56-2.51-2.14a10.14 10.14 0 0 0-2.09-3.68c-.22-.24-.44-.48-.67-.7l-.58-6.11a.758.758 0 0 0-.56-.65l-.65-.15-.16-1.33h18.86l-1.83 16.13Zm2-17.6H21.2l-.58-5.13h20.35l-.58 5.13Zm2.14-6.6H19.06V7.82c0-.4.33-.73.73-.73h22c.41 0 .74.33.74.73v1.47Z"/><path d="M31.1 31.29c.04 0 .08 0 .12-.01.01 0 .02.01.03.01.04 0 .08-.01.11-.01 1.15-.08 2.21-.65 2.9-1.57.92-1.3 1.19-2.96.71-4.48-.1-.38-.19-.75-.28-1.11-.57-2.29-1.12-4.45-3.44-4.55-.02 0-.04-.01-.06-.01h-.09c-2.6 0-4.71 2.63-4.71 5.86 0 3.24 2.11 5.87 4.71 5.87Zm.56-10.16c.76.3 1.1 1.3 1.61 3.35.09.36.18.75.29 1.14.35 1.08.18 2.26-.46 3.2-.24.3-.54.55-.88.73-.02-1.26-.27-2.51-.73-3.68-.08-.23-.15-.45-.21-.66-.43-1.39.07-3.19.38-4.08Zm-1.57.11a8.032 8.032 0 0 0-.21 4.4c.06.22.14.45.22.68.36 1.12.8 2.48.62 3.47-1.61-.25-2.86-2.11-2.86-4.37 0-1.94.94-3.6 2.23-4.18ZM3.88 37.59l-.52.52c-.19.18-.27.45-.2.71.07.26.27.46.52.52.26.07.53-.01.71-.2l.52-.52c.28-.28.28-.74-.01-1.02a.715.715 0 0 0-1.02-.01ZM10.89 32.65c.28-.29.28-.75 0-1.04a.749.749 0 0 0-1.04 0l-.52.52c-.18.19-.26.46-.19.71.07.25.27.45.52.52s.52-.01.71-.19l.52-.52ZM4.39 30.77l-.51.52a.73.73 0 0 0-.2.71c.06.26.26.46.52.53s.53-.01.71-.2l.52-.52c.28-.29.28-.75-.01-1.03a.746.746 0 0 0-1.03-.01ZM4.39 25.64l-.51.52c-.19.18-.27.45-.2.71.06.26.26.46.52.53.26.06.53-.01.71-.2l.52-.52c.28-.29.28-.75-.01-1.03a.736.736 0 0 0-1.03-.01ZM11 37.59l-.52.52c-.19.18-.27.45-.2.71.06.26.26.46.52.52.26.07.53-.01.71-.2l.52-.52c.28-.28.28-.74-.01-1.02a.715.715 0 0 0-1.02-.01ZM16.34 37.59l-.52.52a.74.74 0 0 0-.2.71c.07.26.27.46.53.52.25.07.53-.01.71-.2l.52-.52c.28-.28.27-.74-.01-1.02a.727.727 0 0 0-1.03-.01Z"/></g></svg><svg viewBox="0 0 24 24" id="icon-search" xmlns="http://www.w3.org/2000/svg"><path fill="none" d="M0 0h24v23.721H0z"/><ellipse cx="11.767" cy="11.63" rx="8.989" ry="8.884"/><path d="m18.01 18.27 3.53 3.47"/></svg><svg viewBox="0 0 34 34" id="icon-stopwatch" xmlns="http://www.w3.org/2000/svg"><g clip-path="url(#wa)"><path d="m31.754 12.881.996-.996c.288-.288.447-.67.447-1.078 0-.407-.159-.79-.447-1.077l-1.14-1.141a1.514 1.514 0 0 0-1.078-.447c-.407 0-.79.159-1.078.447l-.996.996a12.7 12.7 0 0 0-4.412-1.933V6.179h.606a1.49 1.49 0 0 0 1.488-1.488v-2.07a1.49 1.49 0 0 0-1.488-1.488H17.8a1.49 1.49 0 0 0-1.488 1.488v2.07c0 .82.668 1.488 1.488 1.488h.606v1.477a12.703 12.703 0 0 0-4.392 1.929l-.996-.996a1.514 1.514 0 0 0-1.078-.447c-.407 0-.79.159-1.078.447l-1.14 1.14a1.526 1.526 0 0 0 0 2.156l.176.177H5.19a.664.664 0 0 0 0 1.328h5.193a12.713 12.713 0 0 0-1.215 2.552H.664a.664.664 0 0 0 0 1.328H8.79a12.747 12.747 0 0 0-.314 2.553H4.25a.664.664 0 0 0 0 1.328h4.265c.072.879.233 1.733.474 2.552H3.32a.664.664 0 0 0 0 1.329h6.142c1.932 4.598 6.482 7.835 11.774 7.835C28.274 32.867 34 27.142 34 20.104c0-2.678-.83-5.167-2.246-7.222Zm-1.36-3.353a.192.192 0 0 1 .138-.058c.037 0 .091.01.139.058l1.14 1.14a.193.193 0 0 1 .058.14c0 .037-.01.09-.058.138l-.873.873c-.435-.509-.91-.983-1.418-1.418l.873-.873ZM17.64 4.69v-2.07a.16.16 0 0 1 .16-.16h6.852a.16.16 0 0 1 .16.16v2.07a.16.16 0 0 1-.16.16H17.8a.16.16 0 0 1-.16-.16Zm2.095 1.488h2.983v1.247a12.835 12.835 0 0 0-2.983.002V6.179Zm-9.075 4.49 1.141-1.141a.192.192 0 0 1 .139-.058c.037 0 .091.01.139.058l.873.873c-.51.435-.983.91-1.418 1.418l-.874-.873a.196.196 0 0 1 0-.277Zm10.576 20.87C14.93 31.54 9.8 26.41 9.8 20.103S14.93 8.667 21.236 8.667s11.436 5.13 11.436 11.436-5.13 11.436-11.436 11.436Z"/><path d="m25.619 14.781-3.14 3.14a2.498 2.498 0 0 0-1.243-.331 2.517 2.517 0 0 0-2.514 2.513 2.517 2.517 0 0 0 2.514 2.514 2.516 2.516 0 0 0 2.514-2.514c0-.452-.121-.877-.331-1.244l3.139-3.139a.664.664 0 0 0-.94-.939Zm-4.383 6.508a1.187 1.187 0 0 1-1.186-1.186 1.187 1.187 0 0 1 2.371 0c0 .654-.531 1.186-1.185 1.186ZM21.236 11.494a.669.669 0 0 0 .47-.195.67.67 0 0 0 .194-.47.669.669 0 0 0-.664-.664.669.669 0 0 0-.664.664.668.668 0 0 0 .664.665ZM21.236 28.713a.669.669 0 0 0-.47.194.668.668 0 0 0 .47 1.134.666.666 0 0 0 .664-.664.669.669 0 0 0-.194-.47.669.669 0 0 0-.47-.194ZM14.678 12.882a.67.67 0 0 0-.47.194.67.67 0 0 0-.194.47.67.67 0 0 0 .195.47.669.669 0 0 0 .939 0 .67.67 0 0 0 .194-.47.67.67 0 0 0-.194-.47.669.669 0 0 0-.47-.194ZM27.794 25.997a.67.67 0 0 0-.47.194.668.668 0 0 0 0 .94.67.67 0 0 0 .47.194.669.669 0 0 0 .47-.195.67.67 0 0 0 .194-.47.669.669 0 0 0-.664-.663ZM14.678 25.997a.67.67 0 0 0-.47.194.669.669 0 0 0-.194.47.67.67 0 0 0 .195.47.67.67 0 0 0 .47.194.669.669 0 0 0 .469-.195.67.67 0 0 0 .194-.47.67.67 0 0 0-.194-.469.67.67 0 0 0-.47-.194ZM11.963 19.44a.668.668 0 0 0-.665.663.667.667 0 0 0 .665.664.666.666 0 0 0 .664-.664.669.669 0 0 0-.195-.47.669.669 0 0 0-.47-.194ZM30.98 19.634a.667.667 0 0 0-1.133.47.667.667 0 0 0 .663.663.669.669 0 0 0 .664-.664.67.67 0 0 0-.195-.47ZM.664 23.704a.669.669 0 0 0-.47.194.67.67 0 0 0-.194.47.67.67 0 0 0 .195.47.67.67 0 0 0 .47.194.669.669 0 0 0 .468-.195.67.67 0 0 0 .195-.47.67.67 0 0 0-.195-.47.668.668 0 0 0-.469-.193Z"/><path d="M30.314 18.087a.664.664 0 0 0 .447-.826 9.964 9.964 0 0 0-6.704-6.689.664.664 0 1 0-.376 1.274 8.576 8.576 0 0 1 5.807 5.794.664.664 0 0 0 .826.447Z"/></g><defs><clipPath id="wa"><path d="M0 0h34v34H0z"/></clipPath></defs></svg><svg viewBox="0 0 22 22" id="icon-timer" xmlns="http://www.w3.org/2000/svg"><g opacity=".9"><path d="M11.575 2.54v-.959a.611.611 0 0 0-1.222 0v.965c-4.803.333-8.609 4.344-8.609 9.23 0 5.102 4.153 9.254 9.256 9.254 5.103 0 9.256-4.152 9.256-9.255 0-4.91-3.845-8.937-8.681-9.235ZM11 19.808c-4.43 0-8.033-3.604-8.033-8.033 0-4.43 3.603-8.033 8.033-8.033s8.033 3.604 8.033 8.033c0 4.429-3.603 8.033-8.033 8.033Z"/><path d="M7.863 17.322a6.39 6.39 0 0 1-3.234-5.547.305.305 0 1 0-.611 0 7.004 7.004 0 0 0 3.544 6.079.306.306 0 0 0 .3-.532ZM9.53 18.16a6.836 6.836 0 0 1-.353-.102.305.305 0 0 0-.186.582c.127.04.255.078.385.11a.305.305 0 0 0 .153-.59ZM18.885 5.728a.611.611 0 0 0 .863-.865L18.162 3.28a.61.61 0 1 0-.863.865l1.586 1.583ZM11.575 11.661V6.776a.611.611 0 0 0-1.223 0v5.15c0 .168.088.328.21.443l1.789 1.672a.61.61 0 0 0 .657.117.61.61 0 0 0 .164-1.006l-1.597-1.49Z"/></g></svg><svg viewBox="0 0 21 17" id="icon-twitter" xmlns="http://www.w3.org/2000/svg"><path d="M20.526 2.01a8.435 8.435 0 0 1-2.422.652 4.196 4.196 0 0 0 1.85-2.319 8.304 8.304 0 0 1-2.67 1.016A4.196 4.196 0 0 0 14.212.03a4.205 4.205 0 0 0-4.206 4.21c0 .325.04.65.104.964A11.954 11.954 0 0 1 1.436.799a4.177 4.177 0 0 0-.573 2.124c0 1.46.743 2.748 1.875 3.506a4.243 4.243 0 0 1-1.902-.536v.052a4.207 4.207 0 0 0 3.372 4.13 4.451 4.451 0 0 1-1.107.143c-.274 0-.533-.027-.795-.064a4.214 4.214 0 0 0 3.933 2.918 8.43 8.43 0 0 1-5.223 1.798c-.352 0-.678-.012-1.016-.052a11.911 11.911 0 0 0 6.46 1.887c7.737 0 11.97-6.408 11.97-11.971 0-.183 0-.365-.013-.548a9.06 9.06 0 0 0 2.11-2.175Z"/></svg></svg>