<svg width="14.000000" height="14.000000" viewBox="0 0 14 14" fill="none" xmlns="http://www.w3.org/2000/svg" xmlns:xlink="http://www.w3.org/1999/xlink">
	
	<path id="Vector" d="M8.31 13.3C8.05 13.3 7.81 13.16 7.7 12.94L5.66 9.08C5.54 8.87 5.56 8.61 5.71 8.42L9 4.2L4.53 7.31C4.33 7.44 4.06 7.46 3.83 7.36L-0.25 5.43C-0.49 5.31 -0.64 5.07 -0.63 4.81C-0.61 4.55 -0.44 4.32 -0.18 4.24L12.89 -0.31C13.14 -0.4 13.42 -0.34 13.61 -0.16C13.8 0.01 13.87 0.28 13.77 0.52L8.96 12.87C8.86 13.11 8.62 13.28 8.35 13.29C8.34 13.29 8.33 13.3 8.31 13.3Z" fill="#FFFFFF" fill-opacity="1.000000" fill-rule="nonzero"/>
</svg>
