<svg width="20.000000" height="19.000000" viewBox="0 0 20 19" fill="none" xmlns="http://www.w3.org/2000/svg" xmlns:xlink="http://www.w3.org/1999/xlink">
	<defs/>
	<path id="Stroke 1" d="M0 0.02L2.08 0.38L3.04 11.72C3.12 12.65 3.9 13.36 4.84 13.35L15.75 13.35C16.64 13.36 17.41 12.7 17.53 11.83L18.48 5.34C18.59 4.62 18.08 3.95 17.35 3.84C17.28 3.83 2.41 3.83 2.41 3.83" stroke="#000000" stroke-opacity="1.000000" stroke-width="1.500000" stroke-linejoin="round" stroke-linecap="round"/>
	<path id="Stroke 3" d="M11.37 7.48L14.14 7.48" stroke="#000000" stroke-opacity="1.000000" stroke-width="1.500000" stroke-linejoin="round" stroke-linecap="round"/>
	<path id="Stroke 5" d="M4.4 16.78C4.7 16.78 4.94 17.02 4.94 17.32C4.94 17.62 4.7 17.86 4.4 17.86C4.1 17.86 3.86 17.62 3.86 17.32C3.86 17.02 4.1 16.78 4.4 16.78Z" fill="#000000" fill-opacity="1.000000" fill-rule="evenodd"/>
	<path id="Stroke 5" d="M4.94 17.32C4.94 17.62 4.7 17.86 4.4 17.86C4.1 17.86 3.86 17.62 3.86 17.32C3.86 17.02 4.1 16.78 4.4 16.78C4.7 16.78 4.94 17.02 4.94 17.32Z" stroke="#000000" stroke-opacity="1.000000" stroke-width="1.500000" stroke-linejoin="round"/>
	<path id="Stroke 7" d="M15.68 16.78C15.98 16.78 16.22 17.02 16.22 17.32C16.22 17.62 15.98 17.86 15.68 17.86C15.38 17.86 15.14 17.62 15.14 17.32C15.14 17.02 15.38 16.78 15.68 16.78Z" fill="#000000" fill-opacity="1.000000" fill-rule="evenodd"/>
	<path id="Stroke 7" d="M16.22 17.32C16.22 17.62 15.98 17.86 15.68 17.86C15.38 17.86 15.14 17.62 15.14 17.32C15.14 17.02 15.38 16.78 15.68 16.78C15.98 16.78 16.22 17.02 16.22 17.32Z" stroke="#000000" stroke-opacity="1.000000" stroke-width="1.500000" stroke-linejoin="round"/>
</svg>
