<svg width="31.885742" height="36.000000" viewBox="0 0 31.8857 36" fill="none" xmlns="http://www.w3.org/2000/svg" xmlns:xlink="http://www.w3.org/1999/xlink">
	<desc>
			Created with Pixso.
	</desc>
	<defs>
		<clipPath id="clip20162_261">
			<rect width="31.885714" height="36.000000" fill="white" fill-opacity="0"/>
		</clipPath>
	</defs>
	<rect width="31.885714" height="36.000000" fill="#000000" fill-opacity="0"/>
	<g clip-path="url(#clip20162_261)">
		<path d="M13.78 28.12L1.13 28.12C0.51 28.12 0 28.62 0 29.25C0 29.87 0.51 30.37 1.13 30.37L13.78 30.37C14.3 32.94 16.6 34.87 19.35 34.87C22.11 34.87 24.41 32.94 24.93 30.37L30.74 30.37C31.37 30.37 31.88 29.87 31.88 29.25C31.88 28.62 31.37 28.12 30.74 28.12L24.93 28.12C24.41 25.55 22.11 23.62 19.35 23.62C16.6 23.62 14.3 25.55 13.78 28.12ZM22.77 29.25C22.77 31.11 21.24 32.62 19.35 32.62C17.47 32.62 15.94 31.11 15.94 29.25C15.94 27.38 17.47 25.87 19.35 25.87C21.24 25.87 22.77 27.38 22.77 29.25ZM2.39 16.87L1.13 16.87C0.51 16.87 0 17.37 0 18C0 18.62 0.51 19.12 1.13 19.12L2.39 19.12C2.91 21.69 5.21 23.62 7.97 23.62C10.72 23.62 13.02 21.69 13.55 19.12L30.74 19.12C31.37 19.12 31.88 18.62 31.88 18C31.88 17.37 31.37 16.87 30.74 16.87L13.55 16.87C13.02 14.3 10.72 12.37 7.97 12.37C5.21 12.37 2.91 14.3 2.39 16.87ZM11.38 18C11.38 19.86 9.85 21.37 7.97 21.37C6.08 21.37 4.55 19.86 4.55 18C4.55 16.13 6.08 14.62 7.97 14.62C9.85 14.62 11.38 16.13 11.38 18ZM18.33 5.62L1.13 5.62C0.51 5.62 0 6.12 0 6.75C0 7.37 0.51 7.87 1.13 7.87L18.33 7.87C18.86 10.44 21.15 12.37 23.91 12.37C26.66 12.37 28.96 10.44 29.49 7.87L30.74 7.87C31.37 7.87 31.88 7.37 31.88 6.75C31.88 6.12 31.37 5.62 30.74 5.62L29.49 5.62C28.96 3.05 26.66 1.12 23.91 1.12C21.15 1.12 18.86 3.05 18.33 5.62ZM27.33 6.75C27.33 8.61 25.8 10.12 23.91 10.12C22.02 10.12 20.49 8.61 20.49 6.75C20.49 4.88 22.02 3.37 23.91 3.37C25.8 3.37 27.33 4.88 27.33 6.75Z" fill="#000000" fill-opacity="1.000000" fill-rule="nonzero"/>
	</g>
</svg>
