<svg width="104.000000" height="16.000000" viewBox="0 0 104 16" fill="none" xmlns="http://www.w3.org/2000/svg" xmlns:xlink="http://www.w3.org/1999/xlink">
	<desc>
			Created with Pixso.
	</desc>
	<defs>
		<clipPath id="clip3197_781">
			<rect id="star 1" width="16.000000" height="16.000000" transform="matrix(-1 0 0 1 16 0)" fill="white" fill-opacity="0"/>
		</clipPath>
		<clipPath id="clip3197_785">
			<rect id="star 1" width="16.000000" height="16.000000" transform="matrix(-1 0 0 1 38 0)" fill="white" fill-opacity="0"/>
		</clipPath>
		<clipPath id="clip3197_789">
			<rect id="star 2" width="16.000000" height="16.000000" transform="matrix(-1 0 0 1 60 0)" fill="white" fill-opacity="0"/>
		</clipPath>
		<clipPath id="clip3197_793">
			<rect id="star 3" width="16.000000" height="16.000000" transform="matrix(-1 0 0 1 82 0)" fill="white" fill-opacity="0"/>
		</clipPath>
		<clipPath id="clip3197_797">
			<rect id="star 4" width="16.000000" height="16.000000" transform="matrix(-1 0 0 1 104 0)" fill="white" fill-opacity="0"/>
		</clipPath>
	</defs>
	<rect id="star 1" width="16.000000" height="16.000000" transform="matrix(-1 0 0 1 16 0)" fill="#FFFFFF" fill-opacity="0"/>
	<g clip-path="url(#clip3197_781)">
		<path id="Vector" d="M0.02 6.16C0.07 5.99 0.22 5.87 0.4 5.84L5.36 5.12L7.57 0.62C7.65 0.46 7.82 0.36 8 0.36C8.17 0.36 8.34 0.46 8.42 0.62L10.63 5.12L15.59 5.84C15.77 5.87 15.92 5.99 15.97 6.16C16.03 6.33 15.98 6.52 15.85 6.64L12.26 10.14L13.11 15.08C13.14 15.25 13.07 15.43 12.93 15.54C12.84 15.6 12.75 15.63 12.65 15.63C12.57 15.63 12.5 15.61 12.43 15.57L8 13.24L3.56 15.57C3.4 15.66 3.21 15.64 3.07 15.54C2.92 15.43 2.85 15.25 2.88 15.08L3.73 10.14L0.14 6.64C0.01 6.52 -0.04 6.33 0.02 6.16Z" fill="#C1C1C1" fill-opacity="1.000000" fill-rule="nonzero"/>
	</g>
	<rect id="star 1" width="16.000000" height="16.000000" transform="matrix(-1 0 0 1 38 0)" fill="#FFFFFF" fill-opacity="0"/>
	<g clip-path="url(#clip3197_785)">
		<path id="Vector" d="M22.02 6.16C22.07 5.99 22.22 5.87 22.4 5.84L27.36 5.12L29.57 0.62C29.65 0.46 29.82 0.36 30 0.36C30.17 0.36 30.34 0.46 30.42 0.62L32.63 5.12L37.59 5.84C37.77 5.87 37.92 5.99 37.97 6.16C38.03 6.33 37.98 6.52 37.85 6.64L34.26 10.14L35.11 15.08C35.14 15.25 35.07 15.43 34.93 15.54C34.84 15.6 34.75 15.63 34.65 15.63C34.57 15.63 34.5 15.61 34.43 15.57L30 13.24L25.56 15.57C25.4 15.66 25.21 15.64 25.07 15.54C24.92 15.43 24.85 15.25 24.88 15.08L25.73 10.14L22.14 6.64C22.01 6.52 21.96 6.33 22.02 6.16Z" fill="#C1C1C1" fill-opacity="1.000000" fill-rule="nonzero"/>
	</g>
	<rect id="star 2" width="16.000000" height="16.000000" transform="matrix(-1 0 0 1 60 0)" fill="#FFFFFF" fill-opacity="0"/>
	<g clip-path="url(#clip3197_789)">
		<path id="Vector" d="M44.02 6.16C44.07 5.99 44.22 5.87 44.4 5.84L49.36 5.12L51.57 0.62C51.65 0.46 51.82 0.36 52 0.36C52.17 0.36 52.34 0.46 52.42 0.62L54.63 5.12L59.59 5.84C59.77 5.87 59.92 5.99 59.97 6.16C60.03 6.33 59.98 6.52 59.85 6.64L56.26 10.14L57.11 15.08C57.14 15.25 57.07 15.43 56.93 15.54C56.84 15.6 56.75 15.63 56.65 15.63C56.57 15.63 56.5 15.61 56.43 15.57L52 13.24L47.56 15.57C47.4 15.66 47.21 15.64 47.07 15.54C46.92 15.43 46.85 15.25 46.88 15.08L47.73 10.14L44.14 6.64C44.01 6.52 43.96 6.33 44.02 6.16Z" fill="#C1C1C1" fill-opacity="1.000000" fill-rule="nonzero"/>
	</g>
	<rect id="star 3" width="16.000000" height="16.000000" transform="matrix(-1 0 0 1 82 0)" fill="#FFFFFF" fill-opacity="0"/>
	<g clip-path="url(#clip3197_793)">
		<path id="Vector" d="M66.02 6.16C66.07 5.99 66.22 5.87 66.4 5.84L71.36 5.12L73.57 0.62C73.65 0.46 73.82 0.36 74 0.36C74.17 0.36 74.34 0.46 74.42 0.62L76.63 5.12L81.59 5.84C81.77 5.87 81.92 5.99 81.97 6.16C82.03 6.33 81.98 6.52 81.85 6.64L78.26 10.14L79.11 15.08C79.14 15.25 79.07 15.43 78.93 15.54C78.84 15.6 78.75 15.63 78.65 15.63C78.57 15.63 78.5 15.61 78.43 15.57L74 13.24L69.56 15.57C69.4 15.66 69.21 15.64 69.07 15.54C68.92 15.43 68.85 15.25 68.88 15.08L69.73 10.14L66.14 6.64C66.01 6.52 65.96 6.33 66.02 6.16Z" fill="#C1C1C1" fill-opacity="1.000000" fill-rule="nonzero"/>
	</g>
	<rect id="star 4" width="16.000000" height="16.000000" transform="matrix(-1 0 0 1 104 0)" fill="#FFFFFF" fill-opacity="0"/>
	<g clip-path="url(#clip3197_797)">
		<path id="Vector" d="M88.02 6.16C88.07 5.99 88.22 5.87 88.4 5.84L93.36 5.12L95.57 0.62C95.65 0.46 95.82 0.36 96 0.36C96.17 0.36 96.34 0.46 96.42 0.62L98.63 5.12L103.59 5.84C103.77 5.87 103.92 5.99 103.97 6.16C104.03 6.33 103.98 6.52 103.85 6.64L100.26 10.14L101.11 15.08C101.14 15.25 101.07 15.43 100.93 15.54C100.84 15.6 100.75 15.63 100.65 15.63C100.58 15.63 100.5 15.61 100.43 15.57L96 13.24L91.56 15.57C91.4 15.66 91.21 15.64 91.07 15.54C90.92 15.43 90.85 15.25 90.88 15.08L91.73 10.14L88.14 6.64C88.01 6.52 87.96 6.33 88.02 6.16Z" fill="#C1C1C1" fill-opacity="1.000000" fill-rule="nonzero"/>
	</g>
</svg>
