<svg width="20.000854" height="19.333252" viewBox="0 0 20.0009 19.3333" fill="none" xmlns="http://www.w3.org/2000/svg" xmlns:xlink="http://www.w3.org/1999/xlink">
	<desc>
			Created with Pixso.
	</desc>
	<defs/>
	<path d="M0.75 0.75L2.83 1.1L3.79 12.44C3.87 13.37 4.65 14.08 5.59 14.08L16.5 14.08C17.39 14.08 18.16 13.42 18.28 12.55L19.23 6.07C19.34 5.34 18.83 4.67 18.1 4.56C18.03 4.55 3.16 4.55 3.16 4.55" stroke="#000000" stroke-opacity="1.000000" stroke-width="1.500000" stroke-linejoin="round" stroke-linecap="round"/>
	<path d="M12.12 8.2L14.89 8.2" stroke="#000000" stroke-opacity="1.000000" stroke-width="1.500000" stroke-linejoin="round" stroke-linecap="round"/>
	<path d="M5.15 17.5C5.45 17.5 5.69 17.74 5.69 18.04C5.69 18.34 5.45 18.58 5.15 18.58C4.85 18.58 4.61 18.34 4.61 18.04C4.61 17.74 4.85 17.5 5.15 17.5Z" fill="#000000" fill-opacity="1.000000" fill-rule="evenodd"/>
	<path d="M5.69 18.04C5.69 18.34 5.45 18.58 5.15 18.58C4.85 18.58 4.61 18.34 4.61 18.04C4.61 17.74 4.85 17.5 5.15 17.5C5.45 17.5 5.69 17.74 5.69 18.04Z" stroke="#000000" stroke-opacity="1.000000" stroke-width="1.500000" stroke-linejoin="round"/>
	<path d="M16.43 17.5C16.73 17.5 16.98 17.74 16.98 18.04C16.98 18.34 16.73 18.58 16.43 18.58C16.13 18.58 15.89 18.34 15.89 18.04C15.89 17.74 16.13 17.5 16.43 17.5Z" fill="#000000" fill-opacity="1.000000" fill-rule="evenodd"/>
	<path d="M16.98 18.04C16.98 18.34 16.73 18.58 16.43 18.58C16.13 18.58 15.89 18.34 15.89 18.04C15.89 17.74 16.13 17.5 16.43 17.5C16.73 17.5 16.98 17.74 16.98 18.04Z" stroke="#000000" stroke-opacity="1.000000" stroke-width="1.500000" stroke-linejoin="round"/>
</svg>
