<svg width="44.000000" height="44.000000" viewBox="0 0 44 44" fill="none" xmlns="http://www.w3.org/2000/svg" xmlns:xlink="http://www.w3.org/1999/xlink">
		<clipPath id="clip20162_123">
			<rect width="44.000000" height="44.000000" transform="translate(0.000000 -0.970215)" fill="white" fill-opacity="0"/>
		</clipPath>
		<clipPath id="clip20162_111">
			<rect width="44.000000" height="44.000000" transform="translate(0.000000 -0.970215)" fill="white" fill-opacity="0"/>
		</clipPath>
	</defs>
	<rect width="44.000000" height="44.000000" transform="translate(0.000000 -0.970215)" fill="#FFFFFF" fill-opacity="0"/>
	<g clip-path="url(#clip20162_111)">
		<path d="M41.79 5.62L40.33 5.62L40.33 4.16C40.33 2.94 39.34 1.96 38.13 1.96L36.38 1.96L35.32 -0.16C35.07 -0.66 34.56 -0.98 34.01 -0.98L32.99 -0.98C32.18 -0.98 31.53 -0.32 31.53 0.49L31.53 1.96L23.46 1.96C22.25 1.96 21.26 2.94 21.26 4.16L21.26 5.62L19.79 5.62C18.58 5.62 17.6 6.61 17.6 7.82L17.6 9.29C17.6 10.1 18.25 10.76 19.06 10.76L19.14 10.76L20 18.33L16.46 17.5C16.29 17.23 16.1 16.96 15.89 16.69L14.64 11.33C14.56 10.99 14.27 10.76 13.93 10.76L9.71 10.76C7.73 9.01 5.38 8.21 3.6 8.74L2.53 7.56C2.12 7.12 1.48 6.97 0.92 7.2C0.36 7.41 -0.01 7.95 -6.11e-5 8.55L-6.11e-5 40.84C0 42.05 0.97 43.02 2.18 43.02L38.13 43.02C38.5 43.02 38.81 42.74 38.86 42.37L42.45 10.76L42.53 10.76C43.34 10.76 44 10.1 44 9.29L44 7.82C43.99 6.61 43.01 5.62 41.79 5.62ZM32.99 0.49L34.01 0.49L34.74 1.96L32.99 1.96L32.99 0.49ZM22.73 4.16C22.73 3.75 23.06 3.42 23.46 3.42L38.13 3.42C38.53 3.42 38.86 3.75 38.86 4.16L38.86 5.62L22.73 5.62L22.73 4.16ZM20.67 20L20.72 20.01L21.31 20.15L21.71 24.31C20.56 23.49 19.18 23.06 17.77 23.07C18.04 21.77 17.9 20.43 17.36 19.22L20.67 20ZM22.11 26.48L22.12 26.49C22.38 26.74 22.64 27 22.87 27.27C23.75 28.24 24.39 29.4 24.75 30.66C24.87 31.1 24.94 31.55 24.94 32L18.09 24.53C19.61 24.7 21.03 25.39 22.11 26.48ZM14.38 17.16L14.38 17.16C15.96 18.98 16.7 21.17 16.35 22.63L8.89 14.5C10.39 14.16 12.68 15.22 14.38 17.16ZM13.34 12.22L13.93 14.72C13.34 14.26 12.7 13.87 12.02 13.57C11.74 13.1 11.43 12.65 11.09 12.22L13.34 12.22ZM9.66 12.77L9.66 12.77C9.72 12.84 9.77 12.92 9.83 12.99C9.14 12.93 8.45 13.04 7.82 13.33L4.8 10.04C6.28 10.06 8.2 11.1 9.66 12.77ZM30.73 41.13C30.62 41.39 30.36 41.56 30.08 41.56L23.46 41.56L2.18 41.56C1.78 41.56 1.46 41.24 1.46 40.84L1.45 8.56L16.17 24.61L16.17 24.61L24.81 34.03L24.82 34.05L29.56 39.22C29.58 39.24 29.6 39.26 29.62 39.28L30.6 40.35C30.79 40.56 30.85 40.87 30.73 41.13ZM26.19 33.37C26.33 32.93 26.4 32.48 26.4 32.02C26.78 32.34 27.14 32.7 27.47 33.08C27.88 33.55 28.24 34.05 28.55 34.59C28.98 35.31 29.29 36.1 29.45 36.92L26.19 33.37ZM37.47 41.56L32.13 41.56C32.41 40.8 32.23 39.95 31.68 39.36L30.94 38.55C31.09 37.32 30.89 36.08 30.37 34.96L38.22 34.96L37.47 41.56ZM38.39 33.49L29.59 33.49C29.29 33.01 28.95 32.55 28.58 32.12C27.86 31.28 27.01 30.56 26.07 29.98C25.64 28.62 24.93 27.37 23.98 26.3C23.76 26.06 23.54 25.82 23.31 25.6L22.73 19.49C22.7 19.18 22.47 18.92 22.17 18.84L21.52 18.69L21.36 17.36L40.22 17.36L38.39 33.49ZM40.39 15.89L21.2 15.89L20.62 10.76L40.97 10.76L40.39 15.89ZM42.53 9.29L19.06 9.29L19.06 7.82C19.06 7.42 19.39 7.09 19.79 7.09L41.79 7.09C42.2 7.09 42.53 7.42 42.53 7.82L42.53 9.29Z" fill="#000000" fill-opacity="1.000000" fill-rule="nonzero"/>
		<path d="M31.1 31.29C31.14 31.29 31.18 31.29 31.22 31.28C31.23 31.28 31.24 31.29 31.25 31.29C31.29 31.29 31.33 31.28 31.36 31.28C32.51 31.2 33.57 30.63 34.26 29.71C35.18 28.41 35.45 26.75 34.97 25.23C34.87 24.85 34.78 24.48 34.69 24.12C34.12 21.83 33.57 19.67 31.25 19.57C31.23 19.57 31.21 19.56 31.19 19.56C31.16 19.56 31.13 19.56 31.1 19.56C28.5 19.56 26.39 22.19 26.39 25.42C26.39 28.66 28.5 31.29 31.1 31.29ZM31.66 21.13C32.42 21.43 32.76 22.43 33.27 24.48C33.36 24.84 33.45 25.23 33.56 25.62C33.91 26.7 33.74 27.88 33.1 28.82C32.86 29.12 32.56 29.37 32.22 29.55C32.2 28.29 31.95 27.04 31.49 25.87C31.41 25.64 31.34 25.42 31.28 25.21C30.85 23.82 31.35 22.02 31.66 21.13ZM30.09 21.24C29.61 22.66 29.54 24.18 29.88 25.64C29.94 25.86 30.02 26.09 30.1 26.32C30.46 27.44 30.9 28.8 30.72 29.79C29.11 29.54 27.86 27.68 27.86 25.42C27.86 23.48 28.8 21.82 30.09 21.24Z" fill="#000000" fill-opacity="1.000000" fill-rule="nonzero"/>
		<path d="M3.88 37.59L3.36 38.11C3.17 38.29 3.09 38.56 3.16 38.82C3.23 39.08 3.43 39.28 3.68 39.34C3.94 39.41 4.21 39.33 4.39 39.14L4.91 38.62C5.19 38.34 5.19 37.88 4.9 37.6C4.62 37.31 4.16 37.31 3.88 37.59Z" fill="#000000" fill-opacity="1.000000" fill-rule="nonzero"/>
		<path d="M10.89 32.65C11.17 32.36 11.17 31.9 10.89 31.61C10.6 31.33 10.14 31.33 9.85 31.61L9.33 32.13C9.15 32.32 9.07 32.59 9.14 32.84C9.21 33.09 9.41 33.29 9.66 33.36C9.91 33.43 10.18 33.35 10.37 33.17L10.89 32.65Z" fill="#000000" fill-opacity="1.000000" fill-rule="nonzero"/>
		<path d="M4.39 30.77L3.88 31.29C3.69 31.48 3.61 31.75 3.68 32C3.74 32.26 3.94 32.46 4.2 32.53C4.46 32.6 4.73 32.52 4.91 32.33L5.43 31.81C5.71 31.52 5.71 31.06 5.42 30.78C5.14 30.5 4.68 30.5 4.39 30.77Z" fill="#000000" fill-opacity="1.000000" fill-rule="nonzero"/>
		<path d="M4.39 25.64L3.88 26.16C3.69 26.34 3.61 26.61 3.68 26.87C3.74 27.13 3.94 27.33 4.2 27.4C4.46 27.46 4.73 27.39 4.91 27.2L5.43 26.68C5.71 26.39 5.71 25.93 5.42 25.65C5.14 25.37 4.68 25.36 4.39 25.64Z" fill="#000000" fill-opacity="1.000000" fill-rule="nonzero"/>
		<path d="M11 37.59L10.48 38.11C10.29 38.29 10.21 38.56 10.28 38.82C10.34 39.08 10.54 39.28 10.8 39.34C11.06 39.41 11.33 39.33 11.51 39.14L12.03 38.62C12.31 38.34 12.31 37.88 12.02 37.6C11.74 37.31 11.28 37.31 11 37.59Z" fill="#000000" fill-opacity="1.000000" fill-rule="nonzero"/>
		<path d="M16.34 37.59L15.82 38.11C15.63 38.29 15.56 38.56 15.62 38.82C15.69 39.08 15.89 39.28 16.15 39.34C16.4 39.41 16.68 39.33 16.86 39.14L17.38 38.62C17.66 38.34 17.65 37.88 17.37 37.6C17.09 37.31 16.63 37.31 16.34 37.59Z" fill="#000000" fill-opacity="1.000000" fill-rule="nonzero"/>
	</g>
</svg>
