<?xml version="1.0" encoding="UTF-8"?>
<svg xmlns="http://www.w3.org/2000/svg" xmlns:xlink="http://www.w3.org/1999/xlink" width="16px" height="16px" viewBox="0 0 16 16" version="1.1">
<g id="surface1">
<path style=" stroke:none;fill-rule:nonzero;fill:#d8d8d8;" d="M 16.003906 6.285156 C 16.003906 6.046875 15.824219 5.898438 15.464844 5.84375 L 10.636719 5.140625 L 8.472656 0.765625 C 8.351562 0.5 8.195312 0.371094 8 0.371094 C 7.808594 0.371094 7.652344 0.5 7.53125 0.765625 L 5.367188 5.140625 L 0.539062 5.84375 C 0.179688 5.898438 0 6.046875 0 6.285156 C 0 6.417969 0.0820312 6.574219 0.242188 6.746094 L 3.742188 10.152344 L 2.914062 14.960938 C 2.902344 15.046875 2.894531 15.113281 2.894531 15.152344 C 2.894531 15.285156 2.929688 15.398438 2.996094 15.492188 C 3.0625 15.585938 3.164062 15.632812 3.296875 15.632812 C 3.414062 15.632812 3.542969 15.59375 3.683594 15.515625 L 8 13.246094 L 12.320312 15.515625 C 12.453125 15.59375 12.582031 15.632812 12.703125 15.632812 C 12.832031 15.632812 12.929688 15.585938 12.996094 15.492188 C 13.066406 15.398438 13.097656 15.285156 13.097656 15.152344 C 13.097656 15.066406 13.09375 15.003906 13.089844 14.960938 L 12.261719 10.152344 L 15.753906 6.746094 C 15.917969 6.578125 16.003906 6.425781 16.003906 6.285156 Z M 16.003906 6.285156 "/>
</g>
</svg>
