<svg width="44.000000" height="43.000000" viewBox="0 0 44 43" fill="none" xmlns="http://www.w3.org/2000/svg" xmlns:xlink="http://www.w3.org/1999/xlink">
		<clipPath id="clip20162_146">
			<rect width="44.000000" height="43.489380" transform="translate(0.000000 -0.970215)" fill="white" fill-opacity="0"/>
		</clipPath>
	</defs>
	<rect width="44.000000" height="43.489380" transform="translate(0.000000 -0.970215)" fill="#FFFFFF" fill-opacity="0"/>
	<g clip-path="url(#clip20162_146)">
		<path d="M31.15 13.68L30.68 12.15C30.08 10.41 28.17 9.48 26.41 10.07C25.42 10.4 24.64 11.17 24.31 12.15L23.84 13.68C23.44 14.97 23.36 16.34 23.59 17.67C23.81 18.79 24.53 19.75 25.55 20.28L25.02 31.93C24.95 32.58 25.16 33.23 25.61 33.72C26.56 34.75 28.18 34.82 29.23 33.88C29.28 33.83 29.34 33.77 29.39 33.72C29.82 33.24 30.04 32.61 29.98 31.98L29.45 20.28C30.46 19.75 31.18 18.79 31.4 17.67C31.63 16.34 31.55 14.97 31.15 13.68ZM29.95 17.42C29.79 18.22 29.21 18.88 28.43 19.15C28.13 19.26 27.94 19.55 27.95 19.86L28.51 32.09C28.54 32.33 28.46 32.57 28.29 32.75C27.85 33.18 27.14 33.18 26.7 32.75C26.52 32.56 26.45 32.3 26.48 32.05L27.04 19.86C27.05 19.55 26.86 19.26 26.56 19.15C25.78 18.88 25.2 18.22 25.04 17.42C24.84 16.31 24.91 15.18 25.24 14.11L25.71 12.57C26.08 11.6 27.17 11.1 28.15 11.46C28.68 11.65 29.09 12.06 29.28 12.57L29.75 14.11C30.08 15.18 30.15 16.31 29.95 17.42Z" fill="#000000" fill-opacity="1.000000" fill-rule="nonzero"/>
		<path d="M19.79 9.9C19.39 9.9 19.06 10.22 19.06 10.62L19.06 16.85L17.08 18.81C16.93 18.95 16.85 19.15 16.86 19.36L17.5 32.04C17.52 32.31 17.42 32.58 17.23 32.78C16.82 33.18 16.17 33.18 15.77 32.79C15.76 32.78 15.76 32.78 15.76 32.78C15.57 32.58 15.47 32.31 15.48 32.04L16.13 19.36C16.14 19.15 16.06 18.95 15.91 18.81L13.93 16.85L13.93 10.62C13.93 10.22 13.6 9.9 13.2 9.9C12.79 9.9 12.46 10.22 12.46 10.62L12.46 17.15C12.46 17.34 12.54 17.52 12.68 17.66L14.65 19.61L14.02 31.97C13.95 33.32 15.01 34.47 16.37 34.53C17.74 34.6 18.9 33.56 18.97 32.21C18.97 32.13 18.97 32.05 18.97 31.97L18.34 19.61L20.31 17.66C20.45 17.52 20.53 17.34 20.53 17.15L20.53 10.62C20.53 10.22 20.2 9.9 19.79 9.9Z" fill="#000000" fill-opacity="1.000000" fill-rule="nonzero"/>
		<path d="M15.4 9.9C14.99 9.9 14.66 10.22 14.66 10.62L14.66 16.42C14.66 16.82 14.99 17.15 15.4 17.15C15.8 17.15 16.13 16.82 16.13 16.42L16.13 10.62C16.13 10.22 15.8 9.9 15.4 9.9Z" fill="#000000" fill-opacity="1.000000" fill-rule="nonzero"/>
		<path d="M17.6 9.9C17.19 9.9 16.86 10.22 16.86 10.62L16.86 16.42C16.86 16.82 17.19 17.15 17.6 17.15C18 17.15 18.33 16.82 18.33 16.42L18.33 10.62C18.33 10.22 18 9.9 17.6 9.9Z" fill="#000000" fill-opacity="1.000000" fill-rule="nonzero"/>
		<path d="M22 -0.98C9.84 -0.98 0 8.76 0 20.77C0 32.78 9.84 42.51 22 42.51C34.15 42.51 44 32.78 44 20.77C43.98 8.77 34.14 -0.96 22 -0.98ZM22 41.06C10.65 41.06 1.46 31.98 1.46 20.77C1.46 9.56 10.65 0.47 22 0.47C33.34 0.47 42.53 9.56 42.53 20.77C42.52 31.97 33.33 41.05 22 41.06Z" fill="#000000" fill-opacity="1.000000" fill-rule="nonzero"/>
		<path d="M24.38 34.38C24.34 33.98 23.98 33.69 23.57 33.72C23.56 33.73 23.56 33.73 23.55 33.73L23.55 33.73C22.52 33.85 21.47 33.85 20.44 33.73C20.04 33.68 19.67 33.97 19.63 34.36C19.58 34.76 19.87 35.12 20.27 35.17C21.42 35.3 22.57 35.3 23.72 35.17C24.12 35.13 24.41 34.77 24.38 34.38Z" fill="#000000" fill-opacity="1.000000" fill-rule="nonzero"/>
		<path d="M33.22 11.43C32.96 11.12 32.49 11.08 32.18 11.34C32.18 11.34 32.18 11.34 32.18 11.34C31.87 11.6 31.83 12.06 32.09 12.36C36.51 17.55 36.17 25.22 31.31 30.01C31.03 30.29 31.03 30.75 31.31 31.04C31.6 31.32 32.06 31.32 32.35 31.04C37.75 25.72 38.13 17.19 33.22 11.43Z" fill="#000000" fill-opacity="1.000000" fill-rule="nonzero"/>
		<path d="M17.08 8.61C17.08 8.61 17.08 8.61 17.08 8.61C17.08 8.61 17.08 8.61 17.08 8.61L17.08 8.61Z" fill="#000000" fill-opacity="1.000000" fill-rule="nonzero"/>
		<path d="M25.45 6.68C22.59 6 19.58 6.18 16.82 7.2C16.44 7.34 16.25 7.76 16.39 8.14C16.5 8.42 16.77 8.61 17.08 8.61C17.17 8.6 17.25 8.59 17.34 8.56C19.82 7.64 22.53 7.48 25.11 8.09C25.5 8.18 25.9 7.94 25.99 7.55C26.09 7.16 25.85 6.77 25.45 6.68Z" fill="#000000" fill-opacity="1.000000" fill-rule="nonzero"/>
		<path d="M12.64 29.97C10.17 27.54 8.79 24.22 8.79 20.77C8.79 18.01 9.67 15.32 11.32 13.1C11.56 12.78 11.5 12.32 11.17 12.08C10.85 11.84 10.39 11.9 10.15 12.22C10.14 12.23 10.14 12.24 10.13 12.24C5.89 18 6.52 25.95 11.61 31C11.89 31.28 12.36 31.28 12.64 31C12.93 30.72 12.93 30.26 12.64 29.97Z" fill="#000000" fill-opacity="1.000000" fill-rule="nonzero"/>
	</g>
</svg>
