<svg width="44.000000" height="44.000000" viewBox="0 0 44 44" fill="none" xmlns="http://www.w3.org/2000/svg" xmlns:xlink="http://www.w3.org/1999/xlink">
		<clipPath id="clip20162_82">
			<rect width="44.000000" height="44.000000" transform="translate(0.000000 -0.970215)" fill="white" fill-opacity="0"/>
		</clipPath>
	</defs>
	<rect width="44.000000" height="44.000000" transform="translate(0.000000 -0.970215)" fill="#FFFFFF" fill-opacity="0"/>
	<g clip-path="url(#clip20162_82)">
		<path d="M44 19.36C44 17.67 42.91 16.23 41.39 15.71C41.16 10.47 39.2 6.44 35.57 3.74C32.25 1.28 27.68 0.02 22 0.02C16.31 0.02 11.74 1.28 8.42 3.74C4.79 6.44 2.83 10.47 2.6 15.71C1.08 16.23 0 17.67 0 19.36C0 20.35 0.37 21.25 0.98 21.94C0.37 22.62 0 23.53 0 24.52C0 26.22 1.1 27.66 2.62 28.18C3.18 34.07 8.18 38.7 14.26 38.7L29.73 38.7C35.81 38.7 40.81 34.07 41.37 28.18C42.89 27.66 44 26.22 44 24.52C44 23.53 43.62 22.62 43.01 21.94C43.62 21.25 44 20.35 44 19.36ZM22 2.6C29.39 2.6 38.15 4.88 38.8 15.49L5.19 15.49C5.84 4.88 14.6 2.6 22 2.6ZM3.86 18.07L40.13 18.07C40.84 18.07 41.42 18.65 41.42 19.36C41.42 20.07 40.84 20.65 40.13 20.65L3.86 20.65C3.15 20.65 2.57 20.07 2.57 19.36C2.57 18.65 3.15 18.07 3.86 18.07ZM29.73 36.12L14.26 36.12C9.68 36.12 5.88 32.75 5.24 28.38L6.44 28.38C7.3 28.38 7.57 28.68 8.12 29.26C8.78 29.98 9.7 30.96 11.68 30.96C13.68 30.96 14.57 29.97 15.22 29.24C15.73 28.67 15.99 28.38 16.84 28.38C17.69 28.38 17.94 28.67 18.46 29.24C19.11 29.97 20 30.96 22 30.96C23.99 30.96 24.88 29.97 25.53 29.24C26.05 28.67 26.3 28.38 27.15 28.38C28 28.38 28.26 28.67 28.77 29.24C29.42 29.97 30.31 30.96 32.31 30.96C34.31 30.96 35.2 29.97 35.85 29.24C36.36 28.67 36.62 28.38 37.46 28.38L38.75 28.38C38.11 32.75 34.31 36.12 29.73 36.12ZM40.13 25.81L37.46 25.81C35.46 25.81 34.57 26.8 33.93 27.52C33.41 28.1 33.16 28.38 32.31 28.38C31.46 28.38 31.2 28.1 30.69 27.52C30.04 26.8 29.15 25.81 27.15 25.81C25.15 25.81 24.26 26.8 23.61 27.52C23.1 28.1 22.84 28.38 22 28.38C21.15 28.38 20.89 28.1 20.38 27.52C19.73 26.8 18.84 25.81 16.84 25.81C14.84 25.81 13.95 26.8 13.3 27.52C12.79 28.1 12.53 28.38 11.68 28.38C10.82 28.38 10.55 28.09 10.01 27.51C9.34 26.79 8.43 25.81 6.44 25.81L3.86 25.81C3.15 25.81 2.57 25.23 2.57 24.52C2.57 23.81 3.15 23.23 3.86 23.23L40.13 23.23C40.84 23.23 41.42 23.81 41.42 24.52C41.42 25.23 40.84 25.81 40.13 25.81Z" fill="#000000" fill-opacity="1.000000" fill-rule="nonzero"/>
		<path d="M15.55 11.63C15.55 12.34 14.97 12.92 14.26 12.92C13.55 12.92 12.97 12.34 12.97 11.63C12.97 10.91 13.55 10.34 14.26 10.34C14.97 10.34 15.55 10.91 15.55 11.63Z" fill="#000000" fill-opacity="1.000000" fill-rule="evenodd"/>
		<path d="M31.02 11.63C31.02 12.34 30.44 12.92 29.73 12.92C29.02 12.92 28.44 12.34 28.44 11.63C28.44 10.91 29.02 10.34 29.73 10.34C30.44 10.34 31.02 10.91 31.02 11.63Z" fill="#000000" fill-opacity="1.000000" fill-rule="evenodd"/>
		<path d="M25.86 9.05C25.86 9.76 25.29 10.34 24.57 10.34C23.86 10.34 23.28 9.76 23.28 9.05C23.28 8.34 23.86 7.76 24.57 7.76C25.29 7.76 25.86 8.34 25.86 9.05Z" fill="#000000" fill-opacity="1.000000" fill-rule="evenodd"/>
		<path d="M20.71 6.47C20.71 7.18 20.13 7.76 19.42 7.76C18.7 7.76 18.13 7.18 18.13 6.47C18.13 5.76 18.7 5.18 19.42 5.18C20.13 5.18 20.71 5.76 20.71 6.47Z" fill="#000000" fill-opacity="1.000000" fill-rule="evenodd"/>
	</g>
</svg>
